Merriweather-HeadingLightNarrow.ufo
<glyph name="exclam" format="2">
  <advance width="403.27272727272725"/>
  <unicode hex="0021"/>
  <outline>
    <contour>
      <point x="280.27272727272725" y="1798.0" type="line"/>
      <point x="114.27272727272728" y="1798.0" type="line"/>
      <point x="168.0909090909091" y="388.0909090909091" type="line"/>
      <point x="233.8181818181818" y="388.0909090909091" type="line"/>
    </contour>
    <contour>
      <point x="104.0909090909091" y="75.9090909090909" type="curve" smooth="yes"/>
      <point x="104.0909090909091" y="16.18181818181818"/>
      <point x="146.0" y="-22.0"/>
      <point x="193.8181818181818" y="-22.0" type="curve" smooth="yes"/>
      <point x="248.54545454545456" y="-22.0"/>
      <point x="299.1818181818182" y="24.90909090909091"/>
      <point x="299.1818181818182" y="93.36363636363636" type="curve" smooth="yes"/>
      <point x="299.1818181818182" y="144.36363636363637"/>
      <point x="272.1818181818182" y="191.27272727272728"/>
      <point x="210.0" y="191.27272727272728" type="curve" smooth="yes"/>
      <point x="156.8181818181818" y="191.27272727272728"/>
      <point x="104.0909090909091" y="141.63636363636363"/>
    </contour>
  </outline>
</glyph>
<glyph name="quotedbl" format="2">
  <advance width="993.0909090909091"/>
  <unicode hex="0022"/>
  <outline>
    <contour>
      <point x="378.8181818181818" y="1644.0" type="line"/>
      <point x="231.27272727272728" y="1644.0" type="line"/>
      <point x="271.72727272727275" y="1018.8181818181818" type="line"/>
      <point x="336.3636363636364" y="1018.8181818181818" type="line"/>
    </contour>
    <contour>
      <point x="764.7272727272727" y="1644.0" type="line"/>
      <point x="617.8181818181818" y="1644.0" type="line"/>
      <point x="657.6363636363636" y="1018.8181818181818" type="line"/>
      <point x="722.9090909090909" y="1018.8181818181818" type="line"/>
    </contour>
  </outline>
</glyph>
<glyph name="numbersign" format="2">
  <advance width="1311.4545454545455"/>
  <unicode hex="0023"/>
  <outline>
    <contour>
      <point x="345.54545454545456" y="413.0" type="line"/>
      <point x="281.54545454545456" y="0.0" type="line"/>
      <point x="367.72727272727275" y="0.0" type="line"/>
      <point x="432.72727272727275" y="413.0" type="line"/>
      <point x="757.7272727272727" y="413.0" type="line"/>
      <point x="694.7272727272727" y="0.0" type="line"/>
      <point x="780.9090909090909" y="0.0" type="line"/>
      <point x="843.9090909090909" y="413.0" type="line"/>
      <point x="1091.909090909091" y="413.0" type="line"/>
      <point x="1109.909090909091" y="546.0" type="line"/>
      <point x="865.9090909090909" y="546.0" type="line"/>
      <point x="936.9090909090909" y="977.0" type="line"/>
      <point x="1169.909090909091" y="977.0" type="line"/>
      <point x="1187.909090909091" y="1108.0" type="line"/>
      <point x="954.9090909090909" y="1108.0" type="line"/>
      <point x="1024.909090909091" y="1539.0" type="line"/>
      <point x="937.7272727272727" y="1539.0" type="line"/>
      <point x="867.7272727272727" y="1108.0" type="line"/>
      <point x="543.7272727272727" y="1108.0" type="line"/>
      <point x="611.7272727272727" y="1539.0" type="line"/>
      <point x="525.5454545454545" y="1539.0" type="line"/>
      <point x="457.54545454545456" y="1108.0" type="line"/>
      <point x="218.54545454545453" y="1108.0" type="line"/>
      <point x="200.54545454545453" y="977.0" type="line"/>
      <point x="436.54545454545456" y="977.0" type="line"/>
      <point x="366.54545454545456" y="546.0" type="line"/>
      <point x="141.54545454545453" y="546.0" type="line"/>
      <point x="123.54545454545455" y="413.0" type="line"/>
    </contour>
    <contour>
      <point x="779.7272727272727" y="546.0" type="line"/>
      <point x="451.72727272727275" y="546.0" type="line"/>
      <point x="523.7272727272727" y="977.0" type="line"/>
      <point x="849.7272727272727" y="977.0" type="line"/>
    </contour>
  </outline>
</glyph>
<glyph name="dollar" format="2">
  <advance width="1152.2727272727273"/>
  <unicode hex="0024"/>
  <outline>
    <contour>
      <point x="158.63636363636363" y="68.0" type="line"/>
      <point x="204.27272727272728" y="42.0"/>
      <point x="353.54545454545456" y="-7.636363636363637"/>
      <point x="511.8181818181818" y="-20.0" type="curve"/>
      <point x="509.8181818181818" y="-252.0" type="line"/>
      <point x="609.6363636363636" y="-252.0" type="line"/>
      <point x="611.2727272727273" y="-20.0" type="line"/>
      <point x="861.0" y="-1.6363636363636362"/>
      <point x="1012.0" y="151.63636363636363"/>
      <point x="1012.0" y="360.72727272727275" type="curve" smooth="yes"/>
      <point x="1012.0" y="597.4545454545455"/>
      <point x="823.5454545454545" y="709.5454545454545"/>
      <point x="630.1818181818181" y="818.9090909090909" type="curve" smooth="yes"/>
      <point x="478.6363636363636" y="903.0909090909091"/>
      <point x="318.3636363636364" y="985.4545454545455"/>
      <point x="318.3636363636364" y="1174.2727272727273" type="curve" smooth="yes"/>
      <point x="318.3636363636364" y="1333.1818181818182"/>
      <point x="432.54545454545456" y="1435.0"/>
      <point x="590.6363636363636" y="1435.3636363636363" type="curve" smooth="yes"/>
      <point x="678.4545454545455" y="1437.0"/>
      <point x="759.7272727272727" y="1411.090909090909"/>
      <point x="803.9090909090909" y="1375.3636363636363" type="curve"/>
      <point x="839.1818181818181" y="1110.6363636363637" type="line"/>
      <point x="931.6363636363636" y="1110.6363636363637" type="line"/>
      <point x="940.6363636363636" y="1426.0" type="line"/>
      <point x="892.8181818181819" y="1448.0"/>
      <point x="785.7272727272727" y="1491.6363636363637"/>
      <point x="639.9090909090909" y="1502.0" type="curve"/>
      <point x="639.9090909090909" y="1720.0" type="line"/>
      <point x="539.7272727272727" y="1720.0" type="line"/>
      <point x="539.7272727272727" y="1499.6363636363637" type="line"/>
      <point x="323.8181818181818" y="1471.2727272727273"/>
      <point x="175.27272727272728" y="1348.3636363636363"/>
      <point x="175.27272727272728" y="1140.090909090909" type="curve" smooth="yes"/>
      <point x="175.27272727272728" y="913.0"/>
      <point x="352.09090909090907" y="804.6363636363636"/>
      <point x="531.7272727272727" y="699.0909090909091" type="curve" smooth="yes"/>
      <point x="704.6363636363636" y="597.8181818181819"/>
      <point x="862.9090909090909" y="531.3636363636364"/>
      <point x="862.9090909090909" y="330.54545454545456" type="curve" smooth="yes"/>
      <point x="862.9090909090909" y="157.0909090909091"/>
      <point x="741.9090909090909" y="46.63636363636364"/>
      <point x="558.1818181818181" y="46.63636363636364" type="curve" smooth="yes"/>
      <point x="457.09090909090907" y="46.63636363636364"/>
      <point x="346.27272727272725" y="80.9090909090909"/>
      <point x="298.3636363636364" y="126.63636363636364" type="curve"/>
      <point x="267.72727272727275" y="403.3636363636364" type="line"/>
      <point x="171.63636363636363" y="403.3636363636364" type="line"/>
    </contour>
  </outline>
</glyph>
<glyph name="percent" format="2">
  <advance width="1753.8181818181818"/>
  <unicode hex="0025"/>
  <outline>
    <contour>
      <point x="538.1818181818181" y="0.0" type="line"/>
      <point x="653.7272727272727" y="0.0" type="line"/>
      <point x="1209.8181818181818" y="1502.0" type="line"/>
      <point x="1095.3636363636363" y="1501.3636363636363" type="line"/>
    </contour>
    <contour>
      <point x="396.54545454545456" y="648.6363636363636" type="curve" smooth="yes"/>
      <point x="573.6363636363636" y="648.6363636363636"/>
      <point x="738.1818181818181" y="794.6363636363636"/>
      <point x="738.1818181818181" y="1060.0" type="curve" smooth="yes"/>
      <point x="738.1818181818181" y="1284.3636363636363"/>
      <point x="643.7272727272727" y="1463.3636363636363"/>
      <point x="426.54545454545456" y="1463.3636363636363" type="curve" smooth="yes"/>
      <point x="245.45454545454544" y="1463.3636363636363"/>
      <point x="84.9090909090909" y="1313.3636363636363"/>
      <point x="84.9090909090909" y="1048.0" type="curve" smooth="yes"/>
      <point x="84.9090909090909" y="834.2727272727273"/>
      <point x="203.72727272727272" y="648.6363636363636"/>
    </contour>
    <contour>
      <point x="407.54545454545456" y="707.7272727272727" type="curve" smooth="yes"/>
      <point x="286.3636363636364" y="707.7272727272727"/>
      <point x="222.45454545454544" y="867.1818181818181"/>
      <point x="222.45454545454544" y="1056.0" type="curve" smooth="yes"/>
      <point x="222.45454545454544" y="1267.3636363636363"/>
      <point x="294.72727272727275" y="1404.2727272727273"/>
      <point x="415.54545454545456" y="1404.2727272727273" type="curve" smooth="yes"/>
      <point x="536.5454545454545" y="1404.2727272727273"/>
      <point x="601.6363636363636" y="1266.5454545454545"/>
      <point x="601.6363636363636" y="1052.0" type="curve" smooth="yes"/>
      <point x="601.6363636363636" y="842.3636363636364"/>
      <point x="527.7272727272727" y="707.7272727272727"/>
    </contour>
    <contour>
      <point x="1327.909090909091" y="49.27272727272727" type="curve" smooth="yes"/>
      <point x="1503.6363636363637" y="49.27272727272727"/>
      <point x="1668.909090909091" y="195.27272727272728"/>
      <point x="1668.909090909091" y="460.6363636363636" type="curve" smooth="yes"/>
      <point x="1668.909090909091" y="684.5454545454545"/>
      <point x="1574.4545454545455" y="864.0"/>
      <point x="1357.2727272727273" y="864.0" type="curve" smooth="yes"/>
      <point x="1176.1818181818182" y="864.0"/>
      <point x="1015.6363636363636" y="714.0"/>
      <point x="1015.6363636363636" y="448.6363636363636" type="curve" smooth="yes"/>
      <point x="1015.6363636363636" y="233.27272727272728"/>
      <point x="1135.090909090909" y="49.27272727272727"/>
    </contour>
    <contour>
      <point x="1337.5454545454545" y="108.36363636363637" type="curve" smooth="yes"/>
      <point x="1217.4545454545455" y="108.36363636363637"/>
      <point x="1152.8181818181818" y="267.8181818181818"/>
      <point x="1152.8181818181818" y="457.3636363636364" type="curve" smooth="yes"/>
      <point x="1152.8181818181818" y="667.6363636363636"/>
      <point x="1224.7272727272727" y="804.9090909090909"/>
      <point x="1346.6363636363637" y="804.9090909090909" type="curve" smooth="yes"/>
      <point x="1467.6363636363637" y="804.9090909090909"/>
      <point x="1532.7272727272727" y="667.0909090909091"/>
      <point x="1532.7272727272727" y="452.6363636363636" type="curve" smooth="yes"/>
      <point x="1532.7272727272727" y="242.63636363636363"/>
      <point x="1458.090909090909" y="108.36363636363637"/>
    </contour>
  </outline>
</glyph>
<glyph name="ampersand" format="2">
  <advance width="1341.909090909091"/>
  <unicode hex="0026"/>
  <outline>
    <contour>
      <point x="1308.8181818181818" y="784.5454545454545" type="line"/>
      <point x="933.6363636363636" y="784.5454545454545" type="line"/>
      <point x="933.6363636363636" y="718.3636363636364" type="line"/>
      <point x="1060.5454545454545" y="693.2727272727273" type="line"/>
      <point x="1070.909090909091" y="538.8181818181819"/>
      <point x="1053.090909090909" y="357.45454545454544"/>
      <point x="965.2727272727273" y="248.54545454545456" type="curve"/>
      <point x="814.6363636363636" y="418.27272727272725"/>
      <point x="690.0909090909091" y="584.3636363636364"/>
      <point x="574.3636363636364" y="757.5454545454545" type="curve"/>
      <point x="798.1818181818181" y="889.4545454545455"/>
      <point x="917.5454545454545" y="1014.9090909090909"/>
      <point x="917.5454545454545" y="1206.909090909091" type="curve" smooth="yes"/>
      <point x="917.5454545454545" y="1380.909090909091"/>
      <point x="800.5454545454545" y="1504.0"/>
      <point x="605.5454545454545" y="1504.0" type="curve" smooth="yes"/>
      <point x="392.6363636363636" y="1504.0"/>
      <point x="237.63636363636363" y="1349.6363636363637"/>
      <point x="237.63636363636363" y="1150.7272727272727" type="curve" smooth="yes"/>
      <point x="237.63636363636363" y="992.1818181818181"/>
      <point x="319.0" y="865.7272727272727"/>
      <point x="408.0" y="733.3636363636364" type="curve"/>
      <point x="235.0" y="646.1818181818181"/>
      <point x="109.63636363636364" y="529.9090909090909"/>
      <point x="109.63636363636364" y="350.09090909090907" type="curve" smooth="yes"/>
      <point x="109.63636363636364" y="132.8181818181818"/>
      <point x="298.3636363636364" y="-16.0"/>
      <point x="570.0" y="-16.0" type="curve" smooth="yes"/>
      <point x="673.5454545454545" y="-16.0"/>
      <point x="798.8181818181819" y="10.454545454545455"/>
      <point x="913.1818181818181" y="113.0" type="curve"/>
      <point x="992.0909090909091" y="37.90909090909091"/>
      <point x="1061.909090909091" y="-12.636363636363637"/>
      <point x="1155.5454545454545" y="-12.636363636363637" type="curve" smooth="yes"/>
      <point x="1194.0" y="-12.636363636363637"/>
      <point x="1247.6363636363637" y="-3.4545454545454546"/>
      <point x="1269.8181818181818" y="6.0" type="curve"/>
      <point x="1269.8181818181818" y="60.27272727272727" type="line"/>
      <point x="1183.4545454545455" y="61.81818181818182"/>
      <point x="1092.1818181818182" y="130.1818181818182"/>
      <point x="1012.0909090909091" y="210.9090909090909" type="curve"/>
      <point x="1130.6363636363637" y="329.09090909090907"/>
      <point x="1193.7272727272727" y="502.54545454545456"/>
      <point x="1188.1818181818182" y="693.2727272727273" type="curve"/>
      <point x="1308.8181818181818" y="718.3636363636364" type="line"/>
    </contour>
    <contour>
      <point x="384.27272727272725" y="1184.909090909091" type="curve" smooth="yes"/>
      <point x="384.27272727272725" y="1335.3636363636363"/>
      <point x="467.45454545454544" y="1443.6363636363637"/>
      <point x="588.0909090909091" y="1443.6363636363637" type="curve" smooth="yes"/>
      <point x="730.8181818181819" y="1443.6363636363637"/>
      <point x="777.8181818181819" y="1326.2727272727273"/>
      <point x="777.8181818181819" y="1195.8181818181818" type="curve" smooth="yes"/>
      <point x="777.8181818181819" y="1021.6363636363636"/>
      <point x="715.6363636363636" y="912.9090909090909"/>
      <point x="543.7272727272727" y="800.0909090909091" type="curve"/>
      <point x="465.72727272727275" y="913.8181818181819"/>
      <point x="384.27272727272725" y="1024.090909090909"/>
    </contour>
    <contour>
      <point x="594.2727272727273" y="56.0" type="curve" smooth="yes"/>
      <point x="388.09090909090907" y="61.09090909090909"/>
      <point x="262.09090909090907" y="204.36363636363637"/>
      <point x="262.09090909090907" y="371.54545454545456" type="curve" smooth="yes"/>
      <point x="262.09090909090907" y="494.72727272727275"/>
      <point x="317.09090909090907" y="617.0909090909091"/>
      <point x="440.0" y="692.1818181818181" type="curve"/>
      <point x="553.8181818181819" y="525.9090909090909"/>
      <point x="739.1818181818181" y="282.27272727272725"/>
      <point x="869.5454545454545" y="154.1818181818182" type="curve"/>
      <point x="794.9090909090909" y="86.27272727272728"/>
      <point x="691.2727272727273" y="53.45454545454545"/>
    </contour>
  </outline>
</glyph>
<glyph name="quotesingle" format="2">
  <advance width="567.9090909090909"/>
  <unicode hex="0027"/>
  <outline>
    <contour>
      <point x="357.72727272727275" y="1644.0" type="line"/>
      <point x="210.1818181818182" y="1644.0" type="line"/>
      <point x="250.63636363636363" y="1018.8181818181818" type="line"/>
      <point x="315.27272727272725" y="1018.8181818181818" type="line"/>
    </contour>
  </outline>
</glyph>
<glyph name="parenleft" format="2">
  <advance width="726.3636363636364"/>
  <unicode hex="0028"/>
  <outline>
    <contour>
      <point x="119.27272727272728" y="668.0" type="curve" smooth="yes"/>
      <point x="119.27272727272728" y="8.0"/>
      <point x="485.8181818181818" y="-310.0"/>
      <point x="559.2727272727273" y="-364.0" type="curve"/>
      <point x="615.0909090909091" y="-324.0" type="line"/>
      <point x="532.0" y="-258.0"/>
      <point x="242.45454545454544" y="94.0"/>
      <point x="255.1818181818182" y="704.0" type="curve"/>
      <point x="264.54545454545456" y="1244.0"/>
      <point x="535.2727272727273" y="1564.7272727272727"/>
      <point x="607.7272727272727" y="1618.7272727272727" type="curve"/>
      <point x="559.2727272727273" y="1652.0" type="line"/>
      <point x="471.0909090909091" y="1594.0"/>
      <point x="119.27272727272728" y="1240.0"/>
    </contour>
  </outline>
</glyph>
<glyph name="asterisk" format="2">
  <advance width="1012.8181818181818"/>
  <unicode hex="002A"/>
  <outline>
    <contour>
      <point x="344.0" y="1147.909090909091" type="line"/>
      <point x="104.81818181818181" y="1033.0" type="line"/>
      <point x="172.0909090909091" y="916.7272727272727" type="line"/>
      <point x="386.45454545454544" y="1073.8181818181818" type="line"/>
      <point x="493.0" y="1171.6363636363637" type="line"/>
      <point x="466.27272727272725" y="1028.2727272727273" type="line"/>
      <point x="444.8181818181818" y="760.9090909090909" type="line"/>
      <point x="578.0" y="761.6363636363636" type="line"/>
      <point x="549.0909090909091" y="1028.909090909091" type="line"/>
      <point x="519.0" y="1171.6363636363637" type="line"/>
      <point x="628.3636363636364" y="1075.909090909091" type="line"/>
      <point x="844.0" y="922.7272727272727" type="line"/>
      <point x="911.2727272727273" y="1040.4545454545455" type="line"/>
      <point x="668.7272727272727" y="1149.2727272727273" type="line"/>
      <point x="532.0" y="1194.1818181818182" type="line"/>
      <point x="668.0909090909091" y="1241.1818181818182" type="line"/>
      <point x="906.5454545454545" y="1355.3636363636363" type="line"/>
      <point x="840.0" y="1470.909090909091" type="line"/>
      <point x="624.9090909090909" y="1313.8181818181818" type="line"/>
      <point x="518.3636363636364" y="1216.7272727272727" type="line"/>
      <point x="545.8181818181818" y="1360.090909090909" type="line"/>
      <point x="568.0" y="1626.0" type="line"/>
      <point x="434.0909090909091" y="1626.0" type="line"/>
      <point x="462.27272727272725" y="1358.7272727272727" type="line"/>
      <point x="493.0909090909091" y="1216.0" type="line"/>
      <point x="383.72727272727275" y="1311.7272727272727" type="line"/>
      <point x="167.36363636363637" y="1464.909090909091" type="line"/>
      <point x="101.54545454545455" y="1348.6363636363637" type="line"/>
      <point x="343.3636363636364" y="1238.3636363636363" type="line"/>
      <point x="480.0909090909091" y="1194.1818181818182" type="line"/>
    </contour>
  </outline>
</glyph>
<glyph name="plus" format="2">
  <advance width="1163.0"/>
  <unicode hex="002B"/>
  <outline>
    <contour>
      <point x="317.72727272727275" y="644.0909090909091" type="line"/>
      <point x="154.54545454545456" y="644.0909090909091" type="line"/>
      <point x="154.54545454545456" y="542.0909090909091" type="line"/>
      <point x="317.72727272727275" y="542.0909090909091" type="line"/>
      <point x="532.3636363636364" y="544.2727272727273" type="line"/>
      <point x="530.1818181818181" y="353.8181818181818" type="line"/>
      <point x="530.1818181818181" y="121.45454545454545" type="line"/>
      <point x="632.1818181818181" y="121.45454545454545" type="line"/>
      <point x="632.1818181818181" y="353.8181818181818" type="line"/>
      <point x="629.2727272727273" y="544.2727272727273" type="line"/>
      <point x="816.7272727272727" y="542.0909090909091" type="line"/>
      <point x="1008.4545454545455" y="542.0909090909091" type="line"/>
      <point x="1008.4545454545455" y="644.0909090909091" type="line"/>
      <point x="816.7272727272727" y="644.0909090909091" type="line"/>
      <point x="629.2727272727273" y="640.4545454545455" type="line"/>
      <point x="632.1818181818181" y="837.4545454545455" type="line"/>
      <point x="632.1818181818181" y="1064.4545454545455" type="line"/>
      <point x="530.1818181818181" y="1064.4545454545455" type="line"/>
      <point x="530.1818181818181" y="837.4545454545455" type="line"/>
      <point x="532.3636363636364" y="640.4545454545455" type="line"/>
    </contour>
  </outline>
</glyph>
<glyph name="comma" format="2">
  <advance width="489.27272727272725"/>
  <unicode hex="002C"/>
  <outline>
    <contour>
      <point x="240.27272727272728" y="241.0909090909091" type="curve"/>
      <point x="233.54545454545456" y="241.0909090909091" type="line" smooth="yes"/>
      <point x="191.72727272727275" y="241.0909090909091"/>
      <point x="156.54545454545456" y="208.1818181818182"/>
      <point x="156.54545454545456" y="151.8181818181818" type="curve" smooth="yes"/>
      <point x="156.54545454545456" y="48.45454545454545"/>
      <point x="244.27272727272728" y="45.54545454545455"/>
      <point x="244.27272727272728" y="-41.45454545454545" type="curve" smooth="yes"/>
      <point x="244.27272727272728" y="-158.0909090909091"/>
      <point x="186.0" y="-283.0909090909091"/>
      <point x="136.1818181818182" y="-331.1818181818182" type="curve"/>
      <point x="136.1818181818182" y="-342.8181818181818" type="line"/>
      <point x="176.36363636363637" y="-370.72727272727275" type="line"/>
      <point x="177.72727272727275" y="-370.72727272727275" type="line"/>
      <point x="262.27272727272725" y="-310.9090909090909"/>
      <point x="354.8181818181818" y="-149.0"/>
      <point x="354.8181818181818" y="39.72727272727273" type="curve" smooth="yes"/>
      <point x="354.8181818181818" y="171.27272727272728"/>
      <point x="301.9090909090909" y="241.0909090909091"/>
    </contour>
  </outline>
</glyph>
<glyph name="period" format="2">
  <advance width="362.0"/>
  <unicode hex="002E"/>
  <outline>
    <contour>
      <point x="173.9090909090909" y="-22.0" type="curve" smooth="yes"/>
      <point x="227.1818181818182" y="-22.0"/>
      <point x="277.0909090909091" y="25.636363636363637"/>
      <point x="277.0909090909091" y="94.0909090909091" type="curve" smooth="yes"/>
      <point x="277.0909090909091" y="145.0909090909091"/>
      <point x="250.8181818181818" y="192.72727272727272"/>
      <point x="190.0909090909091" y="192.72727272727272" type="curve" smooth="yes"/>
      <point x="136.1818181818182" y="192.72727272727272"/>
      <point x="84.9090909090909" y="143.0909090909091"/>
      <point x="84.9090909090909" y="76.63636363636364" type="curve" smooth="yes"/>
      <point x="84.9090909090909" y="16.90909090909091"/>
      <point x="125.36363636363637" y="-22.0"/>
    </contour>
  </outline>
</glyph>
<glyph name="slash" format="2">
  <advance width="685.0909090909091"/>
  <unicode hex="002F"/>
  <outline>
    <contour>
      <point x="640.1818181818182" y="1562.0" type="line"/>
      <point x="533.4545454545455" y="1562.0" type="line"/>
      <point x="44.90909090909091" y="-354.0" type="line"/>
      <point x="151.63636363636363" y="-354.0" type="line"/>
    </contour>
  </outline>
</glyph>
<glyph name="zero" format="2">
  <advance width="1097.3636363636363"/>
  <unicode hex="0030"/>
  <outline>
    <contour>
      <point x="541.0" y="-18.0" type="curve" smooth="yes"/>
      <point x="826.4545454545455" y="-18.0"/>
      <point x="1015.5454545454545" y="278.0"/>
      <point x="1016.9090909090909" y="748.0" type="curve" smooth="yes"/>
      <point x="1018.9090909090909" y="1194.0"/>
      <point x="904.2727272727273" y="1504.0"/>
      <point x="563.7272727272727" y="1504.0" type="curve" smooth="yes"/>
      <point x="288.27272727272725" y="1504.0"/>
      <point x="81.81818181818181" y="1236.0"/>
      <point x="80.45454545454545" y="760.0" type="curve" smooth="yes"/>
      <point x="78.45454545454545" y="326.0"/>
      <point x="204.8181818181818" y="-18.0"/>
    </contour>
    <contour>
      <point x="546.0" y="47.27272727272727" type="curve" smooth="yes"/>
      <point x="345.09090909090907" y="47.27272727272727"/>
      <point x="247.45454545454544" y="371.6363636363636"/>
      <point x="247.45454545454544" y="768.0" type="curve" smooth="yes"/>
      <point x="247.45454545454544" y="1182.0"/>
      <point x="337.3636363636364" y="1438.7272727272727"/>
      <point x="552.3636363636364" y="1438.7272727272727" type="curve" smooth="yes"/>
      <point x="757.0" y="1438.7272727272727"/>
      <point x="849.9090909090909" y="1150.3636363636363"/>
      <point x="849.9090909090909" y="740.0" type="curve" smooth="yes"/>
      <point x="849.9090909090909" y="314.0"/>
      <point x="763.0" y="47.27272727272727"/>
    </contour>
  </outline>
</glyph>
<glyph name="one" format="2">
  <advance width="771.0"/>
  <unicode hex="0031"/>
  <outline>
    <contour>
      <point x="335.45454545454544" y="79.72727272727272" type="line"/>
      <point x="95.9090909090909" y="54.18181818181819" type="line"/>
      <point x="95.9090909090909" y="0.0" type="line"/>
      <point x="730.6363636363636" y="0.0" type="line"/>
      <point x="730.6363636363636" y="54.18181818181819" type="line"/>
      <point x="490.72727272727275" y="79.72727272727272" type="line"/>
      <point x="490.72727272727275" y="1484.0" type="line"/>
      <point x="393.8181818181818" y="1504.0" type="line"/>
      <point x="391.8181818181818" y="1504.0" type="line"/>
      <point x="320.3636363636364" y="1410.6363636363637"/>
      <point x="184.0909090909091" y="1327.4545454545455"/>
      <point x="60.45454545454545" y="1297.4545454545455" type="curve"/>
      <point x="72.81818181818181" y="1236.5454545454545" type="line"/>
      <point x="187.72727272727272" y="1257.4545454545455"/>
      <point x="272.45454545454544" y="1286.2727272727273"/>
      <point x="332.27272727272725" y="1316.7272727272727" type="curve"/>
    </contour>
  </outline>
</glyph>
<glyph name="two" format="2">
  <advance width="980.8181818181819"/>
  <unicode hex="0032"/>
  <outline>
    <contour>
      <point x="25.545454545454547" y="47.63636363636364" type="curve"/>
      <point x="40.63636363636363" y="0.0" type="line"/>
      <point x="842.3636363636364" y="0.0" type="line"/>
      <point x="898.0" y="306.0" type="line"/>
      <point x="827.6363636363636" y="319.54545454545456" type="line"/>
      <point x="741.2727272727273" y="139.8181818181818" type="line"/>
      <point x="198.36363636363637" y="98.45454545454545" type="line"/>
      <point x="527.1818181818181" y="359.72727272727275"/>
      <point x="847.6363636363636" y="760.0909090909091"/>
      <point x="847.6363636363636" y="1105.5454545454545" type="curve" smooth="yes"/>
      <point x="847.6363636363636" y="1331.5454545454545"/>
      <point x="712.3636363636364" y="1502.0"/>
      <point x="461.90909090909093" y="1502.0" type="curve" smooth="yes"/>
      <point x="267.72727272727275" y="1502.0"/>
      <point x="121.63636363636364" y="1393.4545454545455"/>
      <point x="31.81818181818182" y="1259.1818181818182" type="curve"/>
      <point x="80.72727272727272" y="1213.909090909091" type="line"/>
      <point x="165.9090909090909" y="1316.3636363636363"/>
      <point x="291.72727272727275" y="1391.6363636363637"/>
      <point x="421.3636363636364" y="1391.6363636363637" type="curve" smooth="yes"/>
      <point x="576.7272727272727" y="1391.6363636363637"/>
      <point x="686.1818181818181" y="1283.1818181818182"/>
      <point x="686.1818181818181" y="1077.5454545454545" type="curve" smooth="yes"/>
      <point x="686.1818181818181" y="723.2727272727273"/>
      <point x="338.3636363636364" y="259.27272727272725"/>
    </contour>
  </outline>
</glyph>
<glyph name="three" format="2">
  <advance width="946.7272727272727"/>
  <unicode hex="0033"/>
  <outline>
    <contour>
      <point x="260.09090909090907" y="-26.0" type="curve" smooth="yes"/>
      <point x="604.8181818181819" y="-30.454545454545453"/>
      <point x="879.0909090909091" y="156.8181818181818"/>
      <point x="877.2727272727273" y="468.90909090909093" type="curve" smooth="yes"/>
      <point x="876.1818181818181" y="682.3636363636364"/>
      <point x="684.2727272727273" y="824.6363636363636"/>
      <point x="439.54545454545456" y="787.9090909090909" type="curve"/>
      <point x="592.0909090909091" y="848.0909090909091"/>
      <point x="812.6363636363636" y="981.6363636363636"/>
      <point x="812.6363636363636" y="1210.1818181818182" type="curve" smooth="yes"/>
      <point x="812.6363636363636" y="1412.0"/>
      <point x="644.4545454545455" y="1502.0"/>
      <point x="448.9090909090909" y="1502.0" type="curve" smooth="yes"/>
      <point x="287.72727272727275" y="1502.0"/>
      <point x="130.0" y="1412.1818181818182"/>
      <point x="58.18181818181819" y="1335.6363636363637" type="curve"/>
      <point x="89.72727272727272" y="1281.4545454545455" type="line"/>
      <point x="171.1818181818182" y="1351.7272727272727"/>
      <point x="279.45454545454544" y="1398.090909090909"/>
      <point x="399.8181818181818" y="1399.3636363636363" type="curve" smooth="yes"/>
      <point x="530.3636363636364" y="1400.6363636363637"/>
      <point x="647.6363636363636" y="1336.8181818181818"/>
      <point x="646.9090909090909" y="1192.8181818181818" type="curve" smooth="yes"/>
      <point x="646.1818181818181" y="1037.8181818181818"/>
      <point x="533.3636363636364" y="906.0"/>
      <point x="360.27272727272725" y="833.0" type="curve" smooth="yes"/>
      <point x="317.0" y="814.8181818181819"/>
      <point x="268.45454545454544" y="798.2727272727273"/>
      <point x="226.72727272727272" y="785.7272727272727" type="curve"/>
      <point x="247.45454545454544" y="717.0909090909091" type="line"/>
      <point x="270.54545454545456" y="724.2727272727273"/>
      <point x="342.6363636363636" y="745.8181818181819"/>
      <point x="369.0" y="755.0" type="curve"/>
      <point x="605.1818181818181" y="757.3636363636364"/>
      <point x="707.3636363636364" y="627.9090909090909"/>
      <point x="708.0" y="460.0" type="curve" smooth="yes"/>
      <point x="709.2727272727273" y="217.54545454545456"/>
      <point x="546.8181818181819" y="46.45454545454545"/>
      <point x="245.36363636363637" y="49.63636363636364" type="curve" smooth="yes"/>
      <point x="197.45454545454544" y="50.27272727272727"/>
      <point x="136.0" y="60.0"/>
      <point x="94.81818181818181" y="74.54545454545455" type="curve"/>
      <point x="94.81818181818181" y="1.545454545454545" type="line"/>
      <point x="138.54545454545456" y="-14.272727272727273"/>
      <point x="212.54545454545456" y="-25.363636363636363"/>
    </contour>
  </outline>
</glyph>
<glyph name="four" format="2">
  <advance width="1039.6363636363637"/>
  <unicode hex="0034"/>
  <outline>
    <contour>
      <point x="654.8181818181819" y="0.0" type="line"/>
      <point x="798.6363636363636" y="0.0" type="line"/>
      <point x="798.6363636363636" y="322.0" type="line"/>
      <point x="998.1818181818181" y="322.0" type="line"/>
      <point x="997.5454545454545" y="446.72727272727275" type="line"/>
      <point x="798.0" y="430.8181818181818" type="line"/>
      <point x="798.6363636363636" y="860.3636363636364" type="line"/>
      <point x="661.1818181818181" y="848.3636363636364" type="line"/>
      <point x="654.1818181818181" y="424.8181818181818" type="line"/>
      <point x="129.9090909090909" y="391.72727272727275" type="line"/>
      <point x="267.1818181818182" y="635.7272727272727" type="line"/>
      <point x="650.7272727272727" y="1424.0" type="line"/>
      <point x="546.8181818181819" y="1486.0" type="line"/>
      <point x="486.1818181818182" y="1486.0" type="line"/>
      <point x="361.8181818181818" y="1152.0"/>
      <point x="218.1818181818182" y="768.0"/>
      <point x="37.18181818181819" y="402.0" type="curve"/>
      <point x="78.18181818181819" y="322.0" type="line"/>
      <point x="654.8181818181819" y="322.0" type="line"/>
    </contour>
  </outline>
</glyph>
<glyph name="five" format="2">
  <advance width="995.3636363636364"/>
  <unicode hex="0035"/>
  <outline>
    <contour>
      <point x="119.63636363636364" y="57.45454545454545" type="curve"/>
      <point x="120.9090909090909" y="-12.636363636363637" type="line"/>
      <point x="162.54545454545456" y="-24.0"/>
      <point x="210.27272727272728" y="-26.0"/>
      <point x="248.0" y="-26.0" type="curve" smooth="yes"/>
      <point x="680.6363636363636" y="-26.0"/>
      <point x="914.0909090909091" y="264.90909090909093"/>
      <point x="914.0909090909091" y="539.0" type="curve" smooth="yes"/>
      <point x="914.0909090909091" y="761.8181818181819"/>
      <point x="790.0" y="929.6363636363636"/>
      <point x="527.4545454545455" y="929.6363636363636" type="curve" smooth="yes"/>
      <point x="396.09090909090907" y="929.6363636363636"/>
      <point x="277.3636363636364" y="875.5454545454545"/>
      <point x="192.54545454545456" y="798.8181818181819" type="curve"/>
      <point x="310.8181818181818" y="1346.5454545454545" type="line"/>
      <point x="858.0909090909091" y="1346.5454545454545" type="line"/>
      <point x="886.9090909090909" y="1520.8181818181818" type="line"/>
      <point x="795.9090909090909" y="1520.8181818181818" type="line"/>
      <point x="777.2727272727273" y="1485.3636363636363" type="line"/>
      <point x="202.54545454545456" y="1485.3636363636363" type="line"/>
      <point x="116.18181818181819" y="770.2727272727273" type="line"/>
      <point x="168.45454545454544" y="735.6363636363636" type="line"/>
      <point x="248.0" y="779.8181818181819"/>
      <point x="355.1818181818182" y="828.4545454545455"/>
      <point x="467.3636363636364" y="828.4545454545455" type="curve" smooth="yes"/>
      <point x="650.2727272727273" y="828.4545454545455"/>
      <point x="754.8181818181819" y="707.4545454545455"/>
      <point x="754.8181818181819" y="518.8181818181819" type="curve" smooth="yes"/>
      <point x="754.8181818181819" y="226.72727272727272"/>
      <point x="513.5454545454545" y="50.18181818181819"/>
      <point x="225.9090909090909" y="50.18181818181819" type="curve" smooth="yes"/>
      <point x="190.0909090909091" y="50.18181818181819"/>
      <point x="150.45454545454544" y="52.81818181818182"/>
    </contour>
  </outline>
</glyph>
<glyph name="six" format="2">
  <advance width="1084.3636363636363"/>
  <unicode hex="0036"/>
  <outline>
    <contour>
      <point x="545.1818181818181" y="-26.0" type="curve" smooth="yes"/>
      <point x="847.8181818181819" y="-26.636363636363637"/>
      <point x="1014.0909090909091" y="239.45454545454544"/>
      <point x="1014.0909090909091" y="512.5454545454545" type="curve" smooth="yes"/>
      <point x="1014.0909090909091" y="799.8181818181819"/>
      <point x="855.2727272727273" y="976.7272727272727"/>
      <point x="608.1818181818181" y="976.7272727272727" type="curve" smooth="yes"/>
      <point x="476.54545454545456" y="976.7272727272727"/>
      <point x="355.90909090909093" y="909.2727272727273"/>
      <point x="277.9090909090909" y="782.4545454545455" type="curve"/>
      <point x="329.54545454545456" y="1097.4545454545455"/>
      <point x="498.8181818181818" y="1388.5454545454545"/>
      <point x="843.4545454545455" y="1512.5454545454545" type="curve"/>
      <point x="815.0" y="1572.0" type="line"/>
      <point x="392.3636363636364" y="1476.0"/>
      <point x="89.54545454545455" y="1056.0"/>
      <point x="89.54545454545455" y="604.0" type="curve" smooth="yes"/>
      <point x="89.54545454545455" y="290.1818181818182"/>
      <point x="236.54545454545456" y="-25.363636363636363"/>
    </contour>
    <contour>
      <point x="583.2727272727273" y="896.2727272727273" type="curve" smooth="yes"/>
      <point x="765.9090909090909" y="895.0"/>
      <point x="845.8181818181819" y="721.8181818181819"/>
      <point x="845.8181818181819" y="483.54545454545456" type="curve" smooth="yes"/>
      <point x="845.8181818181819" y="263.0"/>
      <point x="764.3636363636364" y="35.36363636363636"/>
      <point x="556.5454545454545" y="35.36363636363636" type="curve" smooth="yes"/>
      <point x="325.9090909090909" y="35.36363636363636"/>
      <point x="264.3636363636364" y="366.9090909090909"/>
      <point x="264.3636363636364" y="556.3636363636364" type="curve" smooth="yes"/>
      <point x="264.3636363636364" y="636.0"/>
      <point x="265.72727272727275" y="691.5454545454545"/>
      <point x="267.72727272727275" y="709.5454545454545" type="curve"/>
      <point x="316.90909090909093" y="791.5454545454545"/>
      <point x="431.8181818181818" y="896.9090909090909"/>
    </contour>
  </outline>
</glyph>
<glyph name="seven" format="2">
  <advance width="980.7272727272727"/>
  <unicode hex="0037"/>
  <outline>
    <contour>
      <point x="483.6363636363636" y="-2.0" type="line"/>
      <point x="946.0909090909091" y="1442.0" type="line"/>
      <point x="912.0909090909091" y="1486.0" type="line"/>
      <point x="109.72727272727272" y="1486.0" type="line"/>
      <point x="69.72727272727272" y="1119.3636363636363" type="line"/>
      <point x="132.72727272727272" y="1107.7272727272727" type="line"/>
      <point x="209.0909090909091" y="1352.0" type="line"/>
      <point x="839.1818181818181" y="1358.0" type="line"/>
      <point x="662.5454545454545" y="902.9090909090909"/>
      <point x="500.6363636363636" y="436.0"/>
      <point x="307.90909090909093" y="0.0" type="curve"/>
    </contour>
  </outline>
</glyph>
<glyph name="eight" format="2">
  <advance width="1061.1818181818182"/>
  <unicode hex="0038"/>
  <outline>
    <contour>
      <point x="76.81818181818181" y="355.90909090909093" type="curve" smooth="yes"/>
      <point x="76.81818181818181" y="124.9090909090909"/>
      <point x="251.36363636363637" y="-18.0"/>
      <point x="523.9090909090909" y="-18.0" type="curve" smooth="yes"/>
      <point x="773.4545454545455" y="-18.0"/>
      <point x="984.3636363636364" y="141.1818181818182"/>
      <point x="984.3636363636364" y="389.09090909090907" type="curve" smooth="yes"/>
      <point x="984.3636363636364" y="583.6363636363636"/>
      <point x="839.3636363636364" y="692.4545454545455"/>
      <point x="654.9090909090909" y="782.7272727272727" type="curve"/>
      <point x="843.8181818181819" y="879.5454545454545"/>
      <point x="944.3636363636364" y="1033.8181818181818"/>
      <point x="944.3636363636364" y="1182.909090909091" type="curve" smooth="yes"/>
      <point x="944.3636363636364" y="1364.0"/>
      <point x="799.4545454545455" y="1504.0"/>
      <point x="557.0909090909091" y="1504.0" type="curve" smooth="yes"/>
      <point x="326.6363636363636" y="1504.0"/>
      <point x="142.72727272727272" y="1355.8181818181818"/>
      <point x="142.72727272727272" y="1130.0" type="curve" smooth="yes"/>
      <point x="142.72727272727272" y="950.0"/>
      <point x="259.8181818181818" y="827.0909090909091"/>
      <point x="400.54545454545456" y="747.0" type="curve"/>
      <point x="181.36363636363637" y="664.3636363636364"/>
      <point x="76.81818181818181" y="510.8181818181818"/>
    </contour>
    <contour>
      <point x="273.8181818181818" y="1184.6363636363637" type="curve" smooth="yes"/>
      <point x="273.8181818181818" y="1347.0"/>
      <point x="386.72727272727275" y="1444.909090909091"/>
      <point x="545.9090909090909" y="1444.909090909091" type="curve" smooth="yes"/>
      <point x="714.5454545454545" y="1444.909090909091"/>
      <point x="812.0909090909091" y="1312.090909090909"/>
      <point x="812.0909090909091" y="1143.2727272727273" type="curve" smooth="yes"/>
      <point x="812.0909090909091" y="1005.6363636363636"/>
      <point x="737.6363636363636" y="874.5454545454545"/>
      <point x="603.9090909090909" y="808.6363636363636" type="curve"/>
      <point x="406.3636363636364" y="917.4545454545455"/>
      <point x="273.8181818181818" y="1012.9090909090909"/>
    </contour>
    <contour>
      <point x="836.1818181818181" y="329.54545454545456" type="curve" smooth="yes"/>
      <point x="836.1818181818181" y="158.36363636363637"/>
      <point x="703.4545454545455" y="46.45454545454545"/>
      <point x="544.7272727272727" y="46.45454545454545" type="curve" smooth="yes"/>
      <point x="324.3636363636364" y="46.45454545454545"/>
      <point x="222.1818181818182" y="200.54545454545453"/>
      <point x="222.1818181818182" y="386.72727272727275" type="curve" smooth="yes"/>
      <point x="222.1818181818182" y="525.8181818181819"/>
      <point x="307.1818181818182" y="663.0909090909091"/>
      <point x="457.9090909090909" y="722.0" type="curve"/>
      <point x="664.9090909090909" y="608.4545454545455"/>
      <point x="836.1818181818181" y="519.3636363636364"/>
    </contour>
  </outline>
</glyph>
<glyph name="nine" format="2">
  <advance width="1083.8181818181818"/>
  <unicode hex="0039"/>
  <outline>
    <contour>
      <point x="536.4545454545455" y="1504.0" type="curve" smooth="yes"/>
      <point x="261.8181818181818" y="1504.0"/>
      <point x="70.27272727272728" y="1286.2727272727273"/>
      <point x="70.27272727272728" y="969.9090909090909" type="curve" smooth="yes"/>
      <point x="70.27272727272728" y="689.0"/>
      <point x="237.8181818181818" y="500.0"/>
      <point x="484.9090909090909" y="500.0" type="curve" smooth="yes"/>
      <point x="611.4545454545455" y="500.0"/>
      <point x="726.3636363636364" y="567.4545454545455"/>
      <point x="806.9090909090909" y="694.2727272727273" type="curve"/>
      <point x="753.3636363636364" y="366.54545454545456"/>
      <point x="599.3636363636364" y="108.54545454545455"/>
      <point x="251.54545454545456" y="-15.454545454545455" type="curve"/>
      <point x="280.0" y="-74.9090909090909" type="line"/>
      <point x="707.0909090909091" y="21.09090909090909"/>
      <point x="994.2727272727273" y="414.3636363636364"/>
      <point x="994.2727272727273" y="879.0909090909091" type="curve" smooth="yes"/>
      <point x="994.2727272727273" y="1186.5454545454545"/>
      <point x="858.4545454545455" y="1504.0"/>
    </contour>
    <contour>
      <point x="504.09090909090907" y="580.4545454545455" type="curve" smooth="yes"/>
      <point x="336.0909090909091" y="581.0909090909091"/>
      <point x="240.45454545454544" y="761.2727272727273"/>
      <point x="240.45454545454544" y="999.5454545454545" type="curve" smooth="yes"/>
      <point x="240.45454545454544" y="1220.090909090909"/>
      <point x="333.8181818181818" y="1442.6363636363637"/>
      <point x="525.0909090909091" y="1442.6363636363637" type="curve" smooth="yes"/>
      <point x="767.1818181818181" y="1442.6363636363637"/>
      <point x="820.4545454545455" y="1109.8181818181818"/>
      <point x="820.4545454545455" y="920.3636363636364" type="curve" smooth="yes"/>
      <point x="820.4545454545455" y="863.2727272727273"/>
      <point x="819.0909090909091" y="787.3636363636364"/>
      <point x="817.0909090909091" y="767.1818181818181" type="curve"/>
      <point x="766.0" y="683.0"/>
      <point x="654.2727272727273" y="579.8181818181819"/>
    </contour>
  </outline>
</glyph>
<glyph name="colon" format="2">
  <advance width="492.54545454545456"/>
  <unicode hex="003A"/>
  <outline>
    <contour>
      <point x="239.1818181818182" y="781.3636363636364" type="curve" smooth="yes"/>
      <point x="292.45454545454544" y="781.3636363636364"/>
      <point x="342.3636363636364" y="829.0"/>
      <point x="342.3636363636364" y="897.4545454545455" type="curve" smooth="yes"/>
      <point x="342.3636363636364" y="948.4545454545455"/>
      <point x="316.0909090909091" y="996.0909090909091"/>
      <point x="255.36363636363637" y="996.0909090909091" type="curve" smooth="yes"/>
      <point x="201.45454545454544" y="996.0909090909091"/>
      <point x="150.1818181818182" y="946.4545454545455"/>
      <point x="150.1818181818182" y="880.0" type="curve" smooth="yes"/>
      <point x="150.1818181818182" y="820.2727272727273"/>
      <point x="190.63636363636363" y="781.3636363636364"/>
    </contour>
    <contour>
      <point x="239.1818181818182" y="-22.0" type="curve" smooth="yes"/>
      <point x="292.45454545454544" y="-22.0"/>
      <point x="342.3636363636364" y="25.636363636363637"/>
      <point x="342.3636363636364" y="94.0909090909091" type="curve" smooth="yes"/>
      <point x="342.3636363636364" y="145.0909090909091"/>
      <point x="316.0909090909091" y="192.72727272727272"/>
      <point x="255.36363636363637" y="192.72727272727272" type="curve" smooth="yes"/>
      <point x="201.45454545454544" y="192.72727272727272"/>
      <point x="150.1818181818182" y="143.0909090909091"/>
      <point x="150.1818181818182" y="76.63636363636364" type="curve" smooth="yes"/>
      <point x="150.1818181818182" y="16.90909090909091"/>
      <point x="190.63636363636363" y="-22.0"/>
    </contour>
  </outline>
</glyph>
<glyph name="semicolon" format="2">
  <advance width="433.27272727272725"/>
  <unicode hex="003B"/>
  <outline>
    <contour>
      <point x="240.63636363636363" y="781.3636363636364" type="curve" smooth="yes"/>
      <point x="293.9090909090909" y="781.3636363636364"/>
      <point x="343.8181818181818" y="829.0"/>
      <point x="343.8181818181818" y="897.4545454545455" type="curve" smooth="yes"/>
      <point x="343.8181818181818" y="948.4545454545455"/>
      <point x="317.54545454545456" y="996.0909090909091"/>
      <point x="256.8181818181818" y="996.0909090909091" type="curve" smooth="yes"/>
      <point x="202.9090909090909" y="996.0909090909091"/>
      <point x="151.63636363636363" y="946.4545454545455"/>
      <point x="151.63636363636363" y="880.0" type="curve" smooth="yes"/>
      <point x="151.63636363636363" y="820.2727272727273"/>
      <point x="192.0909090909091" y="781.3636363636364"/>
    </contour>
    <contour>
      <point x="240.27272727272728" y="241.0909090909091" type="curve"/>
      <point x="233.54545454545456" y="241.0909090909091" type="line" smooth="yes"/>
      <point x="191.72727272727275" y="241.0909090909091"/>
      <point x="156.54545454545456" y="208.1818181818182"/>
      <point x="156.54545454545456" y="151.8181818181818" type="curve" smooth="yes"/>
      <point x="156.54545454545456" y="48.45454545454545"/>
      <point x="244.27272727272728" y="45.54545454545455"/>
      <point x="244.27272727272728" y="-41.45454545454545" type="curve" smooth="yes"/>
      <point x="244.27272727272728" y="-158.0909090909091"/>
      <point x="186.0" y="-283.0909090909091"/>
      <point x="136.1818181818182" y="-331.1818181818182" type="curve"/>
      <point x="136.1818181818182" y="-342.8181818181818" type="line"/>
      <point x="176.36363636363637" y="-370.72727272727275" type="line"/>
      <point x="177.72727272727275" y="-370.72727272727275" type="line"/>
      <point x="262.27272727272725" y="-310.9090909090909"/>
      <point x="354.8181818181818" y="-149.0"/>
      <point x="354.8181818181818" y="39.72727272727273" type="curve" smooth="yes"/>
      <point x="354.8181818181818" y="171.27272727272728"/>
      <point x="301.9090909090909" y="241.0909090909091"/>
    </contour>
  </outline>
</glyph>
<glyph name="less" format="2">
  <advance width="1189.909090909091"/>
  <unicode hex="003C"/>
  <outline>
    <contour>
      <point x="984.4545454545455" y="1073.1818181818182" type="line"/>
      <point x="144.0" y="603.9090909090909" type="line"/>
      <point x="144.0" y="520.1818181818181" type="line"/>
      <point x="984.4545454545455" y="54.81818181818182" type="line"/>
      <point x="984.4545454545455" y="168.1818181818182" type="line"/>
      <point x="257.3636363636364" y="562.3636363636364" type="line"/>
      <point x="984.4545454545455" y="960.7272727272727" type="line"/>
    </contour>
  </outline>
</glyph>
<glyph name="equal" format="2">
  <advance width="1097.6363636363637"/>
  <unicode hex="003D"/>
  <outline>
    <contour>
      <point x="943.0909090909091" y="904.0" type="line"/>
      <point x="154.54545454545456" y="904.0" type="line"/>
      <point x="154.54545454545456" y="805.4545454545455" type="line"/>
      <point x="943.0909090909091" y="805.4545454545455" type="line"/>
    </contour>
    <contour>
      <point x="943.0909090909091" y="377.3636363636364" type="line"/>
      <point x="154.54545454545456" y="377.3636363636364" type="line"/>
      <point x="154.54545454545456" y="278.8181818181818" type="line"/>
      <point x="943.0909090909091" y="278.8181818181818" type="line"/>
    </contour>
  </outline>
</glyph>
<glyph name="greater" format="2">
  <advance width="1192.4545454545455"/>
  <unicode hex="003E"/>
  <outline>
    <contour>
      <point x="1048.4545454545455" y="534.0" type="line"/>
      <point x="1048.4545454545455" y="617.7272727272727" type="line"/>
      <point x="208.0" y="1087.0" type="line"/>
      <point x="208.0" y="974.5454545454545" type="line"/>
      <point x="935.0909090909091" y="576.1818181818181" type="line"/>
      <point x="208.0" y="182.0" type="line"/>
      <point x="208.0" y="68.63636363636364" type="line"/>
    </contour>
  </outline>
</glyph>
<glyph name="question" format="2">
  <advance width="788.4545454545455"/>
  <unicode hex="003F"/>
  <outline>
    <contour>
      <point x="279.54545454545456" y="394.8181818181818" type="curve"/>
      <point x="357.0" y="394.8181818181818" type="line"/>
      <point x="351.6363636363636" y="488.27272727272725"/>
      <point x="346.3636363636364" y="589.1818181818181"/>
      <point x="346.3636363636364" y="679.1818181818181" type="curve" smooth="yes"/>
      <point x="346.3636363636364" y="697.1818181818181"/>
      <point x="346.3636363636364" y="725.1818181818181"/>
      <point x="348.3636363636364" y="741.1818181818181" type="curve"/>
      <point x="415.9090909090909" y="906.3636363636364"/>
      <point x="730.7272727272727" y="1016.0909090909091"/>
      <point x="730.7272727272727" y="1342.3636363636363" type="curve" smooth="yes"/>
      <point x="730.7272727272727" y="1583.5454545454545"/>
      <point x="596.9090909090909" y="1784.5454545454545"/>
      <point x="261.3636363636364" y="1784.5454545454545" type="curve" smooth="yes"/>
      <point x="196.1818181818182" y="1784.5454545454545"/>
      <point x="104.18181818181819" y="1766.5454545454545"/>
      <point x="68.54545454545455" y="1742.5454545454545" type="curve"/>
      <point x="88.18181818181819" y="1666.5454545454545" type="line"/>
      <point x="124.45454545454545" y="1684.5454545454545"/>
      <point x="193.54545454545456" y="1692.5454545454545"/>
      <point x="238.54545454545456" y="1692.5454545454545" type="curve" smooth="yes"/>
      <point x="492.6363636363636" y="1692.5454545454545"/>
      <point x="604.4545454545455" y="1512.2727272727273"/>
      <point x="604.4545454545455" y="1300.090909090909" type="curve" smooth="yes"/>
      <point x="604.4545454545455" y="1150.1818181818182"/>
      <point x="529.3636363636364" y="1057.7272727272727"/>
      <point x="475.72727272727275" y="1013.6363636363636" type="curve" smooth="yes"/>
      <point x="371.3636363636364" y="929.0909090909091"/>
      <point x="219.0909090909091" y="845.8181818181818"/>
      <point x="219.0909090909091" y="723.1818181818181" type="curve"/>
      <point x="220.54545454545456" y="653.1818181818181"/>
      <point x="246.36363636363637" y="502.8181818181818"/>
    </contour>
    <contour>
      <point x="281.54545454545456" y="-22.0" type="curve" smooth="yes"/>
      <point x="336.27272727272725" y="-22.0"/>
      <point x="386.9090909090909" y="24.90909090909091"/>
      <point x="386.9090909090909" y="93.36363636363636" type="curve" smooth="yes"/>
      <point x="386.9090909090909" y="144.36363636363637"/>
      <point x="359.9090909090909" y="191.27272727272728"/>
      <point x="297.72727272727275" y="191.27272727272728" type="curve" smooth="yes"/>
      <point x="244.54545454545456" y="191.27272727272728"/>
      <point x="191.8181818181818" y="141.63636363636363"/>
      <point x="191.8181818181818" y="75.9090909090909" type="curve" smooth="yes"/>
      <point x="191.8181818181818" y="16.18181818181818"/>
      <point x="233.72727272727272" y="-22.0"/>
    </contour>
  </outline>
</glyph>
<glyph name="at" format="2">
  <advance width="1860.4545454545455"/>
  <unicode hex="0040"/>
  <outline>
    <contour>
      <point x="123.18181818181819" y="363.09090909090907" type="curve" smooth="yes"/>
      <point x="123.18181818181819" y="-184.54545454545456"/>
      <point x="399.72727272727275" y="-500.0"/>
      <point x="807.1818181818181" y="-500.0" type="curve" smooth="yes"/>
      <point x="985.7272727272727" y="-500.0"/>
      <point x="1153.090909090909" y="-439.0"/>
      <point x="1245.5454545454545" y="-358.0" type="curve"/>
      <point x="1224.909090909091" y="-298.27272727272725" type="line"/>
      <point x="1139.3636363636363" y="-371.72727272727275"/>
      <point x="976.5454545454545" y="-424.1818181818182"/>
      <point x="832.3636363636364" y="-424.1818181818182" type="curve" smooth="yes"/>
      <point x="476.6363636363636" y="-424.1818181818182"/>
      <point x="239.8181818181818" y="-105.18181818181819"/>
      <point x="239.8181818181818" y="384.54545454545456" type="curve" smooth="yes"/>
      <point x="239.8181818181818" y="985.8181818181819"/>
      <point x="597.0" y="1428.1818181818182"/>
      <point x="1043.909090909091" y="1428.1818181818182" type="curve" smooth="yes"/>
      <point x="1357.0" y="1428.1818181818182"/>
      <point x="1639.8181818181818" y="1220.7272727272727"/>
      <point x="1639.8181818181818" y="755.6363636363636" type="curve" smooth="yes"/>
      <point x="1639.8181818181818" y="320.3636363636364"/>
      <point x="1383.090909090909" y="79.0909090909091"/>
      <point x="1287.8181818181818" y="79.0909090909091" type="curve" smooth="yes"/>
      <point x="1240.909090909091" y="79.0909090909091"/>
      <point x="1216.090909090909" y="132.1818181818182"/>
      <point x="1230.0" y="322.45454545454544" type="curve" smooth="yes"/>
      <point x="1244.3636363636363" y="514.2727272727273"/>
      <point x="1288.3636363636363" y="782.6363636363636"/>
      <point x="1323.7272727272727" y="965.6363636363636" type="curve"/>
      <point x="1264.7272727272727" y="988.0"/>
      <point x="1249.0" y="994.0"/>
      <point x="1237.4545454545455" y="996.4545454545455" type="curve" smooth="yes"/>
      <point x="1221.090909090909" y="999.8181818181819"/>
      <point x="1212.7272727272727" y="988.7272727272727"/>
      <point x="1200.3636363636363" y="949.7272727272727" type="curve"/>
      <point x="1135.1818181818182" y="982.6363636363636"/>
      <point x="1046.4545454545455" y="1000.7272727272727"/>
      <point x="984.2727272727273" y="1000.7272727272727" type="curve" smooth="yes"/>
      <point x="695.6363636363636" y="1000.7272727272727"/>
      <point x="524.8181818181819" y="628.9090909090909"/>
      <point x="524.8181818181819" y="363.54545454545456" type="curve" smooth="yes"/>
      <point x="524.8181818181819" y="134.9090909090909"/>
      <point x="650.9090909090909" y="-6.90909090909091"/>
      <point x="767.3636363636364" y="-6.90909090909091" type="curve" smooth="yes"/>
      <point x="914.0909090909091" y="-6.90909090909091"/>
      <point x="1039.8181818181818" y="227.1818181818182"/>
      <point x="1121.2727272727273" y="460.90909090909093" type="curve"/>
      <point x="1103.3636363636363" y="308.27272727272725"/>
      <point x="1100.2727272727273" y="188.27272727272728"/>
      <point x="1102.0" y="148.36363636363637" type="curve" smooth="yes"/>
      <point x="1106.1818181818182" y="47.63636363636364"/>
      <point x="1173.3636363636363" y="-6.90909090909091"/>
      <point x="1241.1818181818182" y="-6.90909090909091" type="curve" smooth="yes"/>
      <point x="1389.8181818181818" y="-6.90909090909091"/>
      <point x="1743.090909090909" y="253.1818181818182"/>
      <point x="1743.090909090909" y="784.8181818181819" type="curve" smooth="yes"/>
      <point x="1743.090909090909" y="1260.090909090909"/>
      <point x="1461.090909090909" y="1504.0"/>
      <point x="1083.909090909091" y="1504.0" type="curve" smooth="yes"/>
      <point x="581.1818181818181" y="1504.0"/>
      <point x="123.18181818181819" y="1066.4545454545455"/>
    </contour>
    <contour>
      <point x="663.5454545454545" y="411.0" type="curve" smooth="yes"/>
      <point x="663.5454545454545" y="677.6363636363636"/>
      <point x="778.5454545454545" y="923.4545454545455"/>
      <point x="942.1818181818181" y="923.4545454545455" type="curve" smooth="yes"/>
      <point x="1011.0" y="923.4545454545455"/>
      <point x="1117.8181818181818" y="879.6363636363636"/>
      <point x="1167.4545454545455" y="836.1818181818181" type="curve"/>
      <point x="1155.8181818181818" y="760.0"/>
      <point x="1132.0" y="668.0"/>
      <point x="1109.1818181818182" y="595.0" type="curve" smooth="yes"/>
      <point x="1019.0" y="307.45454545454544"/>
      <point x="885.4545454545455" y="100.9090909090909"/>
      <point x="792.8181818181819" y="100.9090909090909" type="curve" smooth="yes"/>
      <point x="719.0" y="100.9090909090909"/>
      <point x="663.5454545454545" y="226.63636363636363"/>
    </contour>
  </outline>
</glyph>
<glyph name="A" format="2">
  <advance width="1149.2727272727273"/>
  <unicode hex="0041"/>
  <anchor x="543.7272727272727" y="0.0" name="bottom"/>
  <anchor x="1013.0" y="20.0" name="ogonek"/>
  <anchor x="582.7272727272727" y="1486.0" name="top"/>
  <outline>
    <contour>
      <point x="65.72727272727272" y="80.45454545454545" type="line"/>
      <point x="-50.72727272727273" y="54.18181818181819" type="line"/>
      <point x="-50.72727272727273" y="0.0" type="line"/>
      <point x="328.54545454545456" y="0.0" type="line"/>
      <point x="328.54545454545456" y="54.18181818181819" type="line"/>
      <point x="171.72727272727275" y="82.45454545454545" type="line"/>
      <point x="272.6363636363636" y="430.27272727272725" type="line"/>
      <point x="798.3636363636364" y="430.27272727272725" type="line"/>
      <point x="894.9090909090909" y="80.45454545454545" type="line"/>
      <point x="745.2727272727273" y="54.18181818181819" type="line"/>
      <point x="745.2727272727273" y="0.0" type="line"/>
      <point x="1184.090909090909" y="0.0" type="line"/>
      <point x="1184.090909090909" y="54.18181818181819" type="line"/>
      <point x="1061.8181818181818" y="80.45454545454545" type="line"/>
      <point x="669.2727272727273" y="1497.4545454545455" type="line"/>
      <point x="503.3636363636364" y="1497.4545454545455" type="line"/>
    </contour>
    <contour>
      <point x="773.5454545454545" y="510.09090909090907" type="line"/>
      <point x="298.0" y="510.09090909090907" type="line"/>
      <point x="497.27272727272725" y="1224.1818181818182" type="line"/>
      <point x="549.3636363636364" y="1404.6363636363637" type="line"/>
      <point x="590.1818181818182" y="1226.3636363636363" type="line"/>
    </contour>
  </outline>
</glyph>
<glyph name="B" format="2">
  <advance width="1098.909090909091"/>
  <unicode hex="0042"/>
  <anchor x="556.0909090909091" y="0.0" name="bottom"/>
  <anchor x="556.0909090909091" y="1486.0" name="top"/>
  <outline>
    <contour>
      <point x="176.63636363636363" y="80.0909090909091" type="line"/>
      <point x="44.0" y="53.81818181818182" type="line"/>
      <point x="44.0" y="0.0" type="line"/>
      <point x="254.45454545454544" y="0.0" type="line" smooth="yes"/>
      <point x="369.1818181818182" y="0.0"/>
      <point x="459.6363636363636" y="-12.0"/>
      <point x="548.0" y="-12.0" type="curve" smooth="yes"/>
      <point x="943.6363636363636" y="-12.0"/>
      <point x="1072.5454545454545" y="206.54545454545453"/>
      <point x="1070.0" y="438.27272727272725" type="curve" smooth="yes"/>
      <point x="1068.090909090909" y="640.3636363636364"/>
      <point x="927.6363636363636" y="793.6363636363636"/>
      <point x="699.0909090909091" y="785.6363636363636" type="curve"/>
      <point x="882.9090909090909" y="823.6363636363636"/>
      <point x="981.2727272727273" y="984.1818181818181"/>
      <point x="978.7272727272727" y="1163.4545454545455" type="curve" smooth="yes"/>
      <point x="975.5454545454545" y="1376.6363636363637"/>
      <point x="821.7272727272727" y="1502.0"/>
      <point x="558.8181818181819" y="1502.0" type="curve" smooth="yes"/>
      <point x="451.1818181818182" y="1502.0"/>
      <point x="393.3636363636364" y="1486.0"/>
      <point x="255.0" y="1486.0" type="curve" smooth="yes"/>
      <point x="45.72727272727273" y="1486.0" type="line"/>
      <point x="45.72727272727273" y="1432.1818181818182" type="line"/>
      <point x="176.63636363636363" y="1405.4545454545455" type="line"/>
    </contour>
    <contour>
      <point x="331.1818181818182" y="808.8181818181819" type="curve"/>
      <point x="331.1818181818182" y="1412.3636363636363" type="line"/>
      <point x="369.27272727272725" y="1420.0"/>
      <point x="445.0" y="1437.090909090909"/>
      <point x="535.0909090909091" y="1437.090909090909" type="curve" smooth="yes"/>
      <point x="712.3636363636364" y="1437.090909090909"/>
      <point x="811.3636363636364" y="1343.6363636363637"/>
      <point x="814.5454545454545" y="1145.1818181818182" type="curve" smooth="yes"/>
      <point x="818.3636363636364" y="925.2727272727273"/>
      <point x="730.2727272727273" y="806.8181818181819"/>
      <point x="562.2727272727273" y="806.8181818181819" type="curve" smooth="yes"/>
      <point x="499.27272727272725" y="806.8181818181819"/>
      <point x="391.72727272727275" y="804.4545454545455"/>
    </contour>
    <contour>
      <point x="330.54545454545456" y="77.36363636363636" type="curve"/>
      <point x="331.1818181818182" y="728.5454545454545" type="line"/>
      <point x="390.3636363636364" y="733.1818181818181"/>
      <point x="508.45454545454544" y="731.8181818181819"/>
      <point x="587.2727272727273" y="731.8181818181819" type="curve" smooth="yes"/>
      <point x="798.3636363636364" y="731.8181818181819"/>
      <point x="898.1818181818181" y="622.8181818181819"/>
      <point x="901.3636363636364" y="414.6363636363636" type="curve" smooth="yes"/>
      <point x="904.5454545454545" y="207.0909090909091"/>
      <point x="822.0" y="53.72727272727273"/>
      <point x="560.2727272727273" y="53.72727272727273" type="curve" smooth="yes"/>
      <point x="483.54545454545456" y="53.72727272727273"/>
      <point x="406.90909090909093" y="58.81818181818182"/>
    </contour>
  </outline>
</glyph>
<glyph name="D" format="2">
  <advance width="1196.4545454545455"/>
  <unicode hex="0044"/>
  <anchor x="714.6363636363636" y="0.0" name="bottom"/>
  <anchor x="636.0" y="764.0" name="center"/>
  <anchor x="254.8181818181818" y="763.0" name="lstem"/>
  <anchor x="714.6363636363636" y="1486.0" name="top"/>
  <outline>
    <contour>
      <point x="176.63636363636363" y="80.45454545454545" type="line"/>
      <point x="44.0" y="54.18181818181819" type="line"/>
      <point x="44.0" y="0.0" type="line"/>
      <point x="260.6363636363636" y="0.0" type="line" smooth="yes"/>
      <point x="338.45454545454544" y="0.0"/>
      <point x="444.90909090909093" y="-15.545454545454545"/>
      <point x="529.4545454545455" y="-16.272727272727273" type="curve" smooth="yes"/>
      <point x="885.7272727272727" y="-19.90909090909091"/>
      <point x="1149.3636363636363" y="312.0"/>
      <point x="1149.3636363636363" y="793.0909090909091" type="curve" smooth="yes"/>
      <point x="1149.3636363636363" y="1182.6363636363637"/>
      <point x="962.3636363636364" y="1498.8181818181818"/>
      <point x="543.3636363636364" y="1498.8181818181818" type="curve" smooth="yes"/>
      <point x="448.1818181818182" y="1498.8181818181818"/>
      <point x="352.6363636363636" y="1486.0"/>
      <point x="258.6363636363636" y="1486.0" type="curve" smooth="yes"/>
      <point x="46.72727272727273" y="1486.0" type="line"/>
      <point x="46.72727272727273" y="1431.8181818181818" type="line"/>
      <point x="176.63636363636363" y="1404.7272727272727" type="line"/>
    </contour>
    <contour>
      <point x="331.1818181818182" y="78.27272727272728" type="curve"/>
      <point x="331.54545454545456" y="1414.3636363636363" type="line"/>
      <point x="360.8181818181818" y="1416.3636363636363"/>
      <point x="428.6363636363636" y="1432.090909090909"/>
      <point x="511.6363636363636" y="1432.090909090909" type="curve" smooth="yes"/>
      <point x="818.8181818181819" y="1432.090909090909"/>
      <point x="977.9090909090909" y="1216.6363636363637"/>
      <point x="977.9090909090909" y="755.8181818181819" type="curve" smooth="yes"/>
      <point x="977.9090909090909" y="330.09090909090907"/>
      <point x="822.1818181818181" y="52.27272727272727"/>
      <point x="530.0909090909091" y="50.81818181818182" type="curve" smooth="yes"/>
      <point x="462.27272727272725" y="50.09090909090909"/>
      <point x="382.1818181818182" y="60.27272727272727"/>
    </contour>
  </outline>
</glyph>
<glyph name="E" format="2">
  <advance width="1068.4545454545455"/>
  <unicode hex="0045"/>
  <anchor x="539.0909090909091" y="1.8181818181818183" name="bottom"/>
  <anchor x="888.4545454545455" y="20.0" name="ogonek"/>
  <anchor x="542.9090909090909" y="1486.0" name="top"/>
  <anchor x="31.0" y="1486.0" name="topleft"/>
  <outline>
    <contour>
      <point x="186.8181818181818" y="80.0909090909091" type="line"/>
      <point x="44.0" y="53.81818181818182" type="line"/>
      <point x="44.0" y="0.0" type="line"/>
      <point x="968.8181818181819" y="0.0" type="line"/>
      <point x="1033.5454545454545" y="337.6363636363636" type="line"/>
      <point x="954.6363636363636" y="363.45454545454544" type="line"/>
      <point x="838.2727272727273" y="89.0" type="line"/>
      <point x="341.72727272727275" y="67.27272727272728" type="line"/>
      <point x="341.72727272727275" y="733.0" type="line"/>
      <point x="632.6363636363636" y="718.7272727272727" type="line"/>
      <point x="663.9090909090909" y="542.3636363636364" type="line"/>
      <point x="731.0" y="542.3636363636364" type="line"/>
      <point x="731.0" y="983.6363636363636" type="line"/>
      <point x="663.9090909090909" y="983.6363636363636" type="line"/>
      <point x="632.6363636363636" y="811.2727272727273" type="line"/>
      <point x="341.72727272727275" y="795.0909090909091" type="line"/>
      <point x="341.72727272727275" y="1420.4545454545455" type="line"/>
      <point x="796.0" y="1408.5454545454545" type="line"/>
      <point x="871.3636363636364" y="1192.7272727272727" type="line"/>
      <point x="945.7272727272727" y="1192.7272727272727" type="line"/>
      <point x="919.1818181818181" y="1486.0" type="line"/>
      <point x="45.72727272727273" y="1486.0" type="line"/>
      <point x="45.72727272727273" y="1432.1818181818182" type="line"/>
      <point x="186.8181818181818" y="1405.4545454545455" type="line"/>
    </contour>
  </outline>
</glyph>
<glyph name="F" format="2">
  <advance width="994.8181818181819"/>
  <unicode hex="0046"/>
  <anchor x="453.0" y="0.0" name="bottom"/>
  <anchor x="579.5454545454545" y="1486.0" name="top"/>
  <outline>
    <contour>
      <point x="186.8181818181818" y="80.45454545454545" type="line"/>
      <point x="44.0" y="54.18181818181819" type="line"/>
      <point x="44.0" y="0.0" type="line"/>
      <point x="562.3636363636364" y="0.0" type="line"/>
      <point x="562.3636363636364" y="54.18181818181819" type="line"/>
      <point x="342.0" y="80.45454545454545" type="line"/>
      <point x="342.0" y="724.4545454545455" type="line"/>
      <point x="641.8181818181819" y="713.2727272727273" type="line"/>
      <point x="676.4545454545455" y="536.9090909090909" type="line"/>
      <point x="744.2727272727273" y="536.9090909090909" type="line"/>
      <point x="744.2727272727273" y="978.9090909090909" type="line"/>
      <point x="676.4545454545455" y="978.9090909090909" type="line"/>
      <point x="641.8181818181819" y="808.0" type="line"/>
      <point x="342.0" y="795.6363636363636" type="line"/>
      <point x="342.0" y="1418.8181818181818" type="line"/>
      <point x="794.0" y="1408.1818181818182" type="line"/>
      <point x="869.6363636363636" y="1179.6363636363637" type="line"/>
      <point x="952.2727272727273" y="1179.6363636363637" type="line"/>
      <point x="927.8181818181819" y="1486.0" type="line"/>
      <point x="45.72727272727273" y="1486.0" type="line"/>
      <point x="45.72727272727273" y="1431.8181818181818" type="line"/>
      <point x="186.8181818181818" y="1404.7272727272727" type="line"/>
    </contour>
  </outline>
</glyph>
<glyph name="G" format="2">
  <advance width="1159.5454545454545"/>
  <unicode hex="0047"/>
  <anchor x="646.8181818181818" y="0.0" name="bottom"/>
  <anchor x="955.5399090909091" y="349.0" name="rstem"/>
  <anchor x="694.0909090909091" y="1486.0" name="top"/>
  <outline>
    <contour>
      <point x="583.3636363636364" y="-20.727272727272727" type="curve" smooth="yes"/>
      <point x="844.0909090909091" y="-20.727272727272727"/>
      <point x="942.6363636363636" y="76.0"/>
      <point x="1039.909090909091" y="80.0" type="curve"/>
      <point x="1039.909090909091" y="629.6363636363636" type="line"/>
      <point x="1139.1818181818182" y="650.2727272727273" type="line"/>
      <point x="1139.1818181818182" y="728.9090909090909" type="line"/>
      <point x="666.6363636363636" y="728.9090909090909" type="line"/>
      <point x="666.6363636363636" y="650.2727272727273" type="line"/>
      <point x="887.5454545454545" y="627.7272727272727" type="line"/>
      <point x="887.5454545454545" y="135.45454545454544" type="line"/>
      <point x="827.6363636363636" y="85.18181818181819"/>
      <point x="741.3636363636364" y="45.54545454545455"/>
      <point x="615.3636363636364" y="45.54545454545455" type="curve" smooth="yes"/>
      <point x="308.45454545454544" y="45.54545454545455"/>
      <point x="214.1818181818182" y="405.90909090909093"/>
      <point x="214.1818181818182" y="757.9090909090909" type="curve" smooth="yes"/>
      <point x="214.1818181818182" y="1175.8181818181818"/>
      <point x="374.3636363636364" y="1435.2727272727273"/>
      <point x="657.2727272727273" y="1435.2727272727273" type="curve" smooth="yes"/>
      <point x="777.8181818181819" y="1435.2727272727273"/>
      <point x="864.0909090909091" y="1391.909090909091"/>
      <point x="889.8181818181819" y="1367.2727272727273" type="curve"/>
      <point x="930.4545454545455" y="1108.0" type="line"/>
      <point x="1024.8181818181818" y="1106.909090909091" type="line"/>
      <point x="1039.8181818181818" y="1442.7272727272727" type="line"/>
      <point x="974.0" y="1448.5454545454545"/>
      <point x="827.3636363636364" y="1502.0"/>
      <point x="659.0" y="1502.0" type="curve" smooth="yes"/>
      <point x="292.72727272727275" y="1502.0"/>
      <point x="41.09090909090909" y="1195.1818181818182"/>
      <point x="41.09090909090909" y="721.8181818181819" type="curve" smooth="yes"/>
      <point x="41.09090909090909" y="313.1818181818182"/>
      <point x="230.8181818181818" y="-20.727272727272727"/>
    </contour>
  </outline>
</glyph>
<glyph name="H" format="2">
  <advance width="1280.0"/>
  <unicode hex="0048"/>
  <anchor x="643.5454545454545" y="0.0" name="bottom"/>
  <anchor x="1251.090909090909" y="0.0" name="bottomright"/>
  <anchor x="643.1818181818181" y="743.0" name="center"/>
  <anchor x="639.9090909090909" y="1486.0" name="top"/>
  <anchor x="-1.454545454545455" y="1486.0" name="topleft"/>
  <outline>
    <contour>
      <point x="174.45454545454544" y="80.0909090909091" type="line"/>
      <point x="44.0" y="53.81818181818182" type="line"/>
      <point x="44.0" y="0.0" type="line"/>
      <point x="472.1818181818182" y="0.0" type="line"/>
      <point x="472.1818181818182" y="53.81818181818182" type="line"/>
      <point x="329.72727272727275" y="80.0909090909091" type="line"/>
      <point x="329.72727272727275" y="725.6363636363636" type="line"/>
      <point x="950.9090909090909" y="725.6363636363636" type="line"/>
      <point x="950.9090909090909" y="80.0909090909091" type="line"/>
      <point x="810.9090909090909" y="54.45454545454545" type="line"/>
      <point x="810.9090909090909" y="0.0" type="line"/>
      <point x="1236.0" y="0.0" type="line"/>
      <point x="1236.0" y="54.45454545454545" type="line"/>
      <point x="1106.1818181818182" y="80.0909090909091" type="line"/>
      <point x="1106.1818181818182" y="1404.7272727272727" type="line"/>
      <point x="1233.1818181818182" y="1432.1818181818182" type="line"/>
      <point x="1233.1818181818182" y="1486.0" type="line"/>
      <point x="811.6363636363636" y="1486.0" type="line"/>
      <point x="811.6363636363636" y="1432.1818181818182" type="line"/>
      <point x="950.9090909090909" y="1404.7272727272727" type="line"/>
      <point x="950.9090909090909" y="802.9090909090909" type="line"/>
      <point x="329.72727272727275" y="802.9090909090909" type="line"/>
      <point x="329.72727272727275" y="1404.7272727272727" type="line"/>
      <point x="471.45454545454544" y="1432.1818181818182" type="line"/>
      <point x="471.45454545454544" y="1486.0" type="line"/>
      <point x="45.36363636363636" y="1486.0" type="line"/>
      <point x="45.36363636363636" y="1432.1818181818182" type="line"/>
      <point x="174.45454545454544" y="1404.7272727272727" type="line"/>
    </contour>
  </outline>
</glyph>
<glyph name="I" format="2">
  <advance width="540.0"/>
  <unicode hex="0049"/>
  <anchor x="273.3636363636364" y="1.8181818181818183" name="bottom"/>
  <anchor x="287.8181818181818" y="20.0" name="ogonek"/>
  <anchor x="273.3636363636364" y="1486.0" name="top"/>
  <anchor x="21.90909090909091" y="1486.0" name="topleft"/>
  <outline>
    <contour>
      <point x="192.36363636363637" y="80.0909090909091" type="line"/>
      <point x="53.81818181818182" y="53.81818181818182" type="line"/>
      <point x="53.81818181818182" y="0.0" type="line"/>
      <point x="486.1818181818182" y="0.0" type="line"/>
      <point x="486.1818181818182" y="53.09090909090909" type="line"/>
      <point x="347.6363636363636" y="80.0909090909091" type="line"/>
      <point x="347.6363636363636" y="1405.4545454545455" type="line"/>
      <point x="485.54545454545456" y="1432.1818181818182" type="line"/>
      <point x="485.54545454545456" y="1486.0" type="line"/>
      <point x="54.45454545454545" y="1486.0" type="line"/>
      <point x="54.45454545454545" y="1432.1818181818182" type="line"/>
      <point x="192.36363636363637" y="1405.4545454545455" type="line"/>
    </contour>
  </outline>
</glyph>
<glyph name="J" format="2">
  <advance width="540.0"/>
  <unicode hex="004A"/>
  <anchor x="255.9090909090909" y="1486.0" name="top"/>
  <outline>
    <contour>
      <point x="-109.81818181818181" y="-291.1818181818182" type="curve"/>
      <point x="-65.81818181818181" y="-346.0" type="line"/>
      <point x="106.18181818181819" y="-314.0"/>
      <point x="275.1818181818182" y="-176.54545454545453"/>
      <point x="317.3636363636364" y="39.45454545454545" type="curve" smooth="yes"/>
      <point x="341.72727272727275" y="163.45454545454547"/>
      <point x="336.72727272727275" y="329.27272727272725"/>
      <point x="336.72727272727275" y="502.9090909090909" type="curve" smooth="yes"/>
      <point x="336.72727272727275" y="1404.0" type="line"/>
      <point x="495.6363636363636" y="1431.8181818181818" type="line"/>
      <point x="495.6363636363636" y="1486.0" type="line"/>
      <point x="21.272727272727273" y="1486.0" type="line"/>
      <point x="21.272727272727273" y="1431.8181818181818" type="line"/>
      <point x="182.0909090909091" y="1404.0" type="line"/>
      <point x="182.0909090909091" y="506.0" type="line" smooth="yes"/>
      <point x="182.0909090909091" y="208.0"/>
      <point x="177.45454545454544" y="96.63636363636364"/>
      <point x="145.9090909090909" y="-18.0" type="curve" smooth="yes"/>
      <point x="107.0909090909091" y="-159.63636363636363"/>
      <point x="8.181818181818182" y="-259.1818181818182"/>
    </contour>
  </outline>
</glyph>
<glyph name="K" format="2">
  <advance width="1226.3636363636363"/>
  <unicode hex="004B"/>
  <anchor x="660.0" y="0.0" name="bottom"/>
  <anchor x="644.3636363636364" y="1486.0" name="top"/>
  <outline>
    <contour>
      <point x="985.6363636363636" y="0.0" type="curve"/>
      <point x="1205.4545454545455" y="0.0" type="line"/>
      <point x="1205.4545454545455" y="53.45454545454545" type="line"/>
      <point x="1119.7272727272727" y="81.81818181818181" type="line"/>
      <point x="1047.090909090909" y="92.18181818181819"/>
      <point x="789.1818181818182" y="747.4545454545455"/>
      <point x="624.7272727272727" y="880.0" type="curve"/>
      <point x="606.3636363636364" y="824.6363636363636" type="line"/>
      <point x="1035.4545454545455" y="1406.0" type="line"/>
      <point x="1165.2727272727273" y="1431.8181818181818" type="line"/>
      <point x="1165.2727272727273" y="1486.0" type="line"/>
      <point x="760.8181818181818" y="1486.0" type="line"/>
      <point x="760.8181818181818" y="1431.8181818181818" type="line"/>
      <point x="909.0909090909091" y="1404.7272727272727" type="line"/>
      <point x="311.1818181818182" y="572.7272727272727" type="line"/>
      <point x="346.45454545454544" y="564.2727272727273" type="line"/>
      <point x="346.45454545454544" y="1404.7272727272727" type="line"/>
      <point x="501.27272727272725" y="1431.8181818181818" type="line"/>
      <point x="501.27272727272725" y="1486.0" type="line"/>
      <point x="46.09090909090909" y="1486.0" type="line"/>
      <point x="46.09090909090909" y="1431.8181818181818" type="line"/>
      <point x="191.1818181818182" y="1404.7272727272727" type="line"/>
      <point x="191.1818181818182" y="80.45454545454545" type="line"/>
      <point x="44.0" y="55.45454545454545" type="line"/>
      <point x="44.0" y="0.0" type="line"/>
      <point x="507.0909090909091" y="0.0" type="line"/>
      <point x="507.0909090909091" y="53.45454545454545" type="line"/>
      <point x="346.45454545454544" y="80.45454545454545" type="line"/>
      <point x="346.45454545454544" y="556.8181818181819" type="line"/>
      <point x="315.0" y="463.8181818181818" type="line"/>
      <point x="589.5454545454545" y="802.6363636363636" type="line"/>
      <point x="529.7272727272727" y="778.4545454545455" type="line"/>
      <point x="681.5454545454545" y="628.1818181818181"/>
      <point x="899.5454545454545" y="0.0"/>
    </contour>
  </outline>
</glyph>
<glyph name="L" format="2">
  <advance width="981.0909090909091"/>
  <unicode hex="004C"/>
  <anchor x="510.9090909090909" y="0.0" name="bottom"/>
  <anchor x="1281.4545454545455" y="-290.090909090909" name="center"/>
  <anchor x="352.1818181818182" y="1486.0" name="top"/>
  <anchor x="795.4545454545455" y="1110.0" name="topright"/>
  <outline>
    <contour>
      <point x="196.27272727272728" y="80.45454545454545" type="line"/>
      <point x="44.0" y="54.18181818181819" type="line"/>
      <point x="44.0" y="0.0" type="line"/>
      <point x="904.3636363636364" y="0.0" type="line"/>
      <point x="974.7272727272727" y="416.0" type="line"/>
      <point x="894.6363636363636" y="432.0" type="line"/>
      <point x="771.6363636363636" y="101.54545454545455" type="line"/>
      <point x="352.6363636363636" y="77.9090909090909" type="line"/>
      <point x="353.27272727272725" y="1404.7272727272727" type="line"/>
      <point x="527.8181818181818" y="1431.8181818181818" type="line"/>
      <point x="527.8181818181818" y="1486.0" type="line"/>
      <point x="46.09090909090909" y="1486.0" type="line"/>
      <point x="46.09090909090909" y="1431.8181818181818" type="line"/>
      <point x="196.27272727272728" y="1404.7272727272727" type="line"/>
    </contour>
  </outline>
</glyph>
<glyph name="M" format="2">
  <advance width="1644.4545454545455"/>
  <unicode hex="004D"/>
  <anchor x="831.0" y="0.0" name="bottom"/>
  <anchor x="1654.2727272727273" y="0.0" name="bottomright"/>
  <anchor x="821.0" y="1486.0" name="top"/>
  <outline>
    <contour>
      <point x="145.45454545454544" y="76.0" type="line"/>
      <point x="-6.90909090909091" y="54.18181818181819" type="line"/>
      <point x="-6.90909090909091" y="0.0" type="line"/>
      <point x="432.1818181818182" y="0.0" type="line"/>
      <point x="432.1818181818182" y="54.18181818181819" type="line"/>
      <point x="256.72727272727275" y="76.0" type="line"/>
      <point x="357.6363636363636" y="1016.0" type="line"/>
      <point x="393.27272727272725" y="1417.909090909091" type="line"/>
      <point x="496.6363636363636" y="1020.3636363636364" type="line"/>
      <point x="738.6363636363636" y="72.0" type="line"/>
      <point x="850.4545454545455" y="72.0" type="line"/>
      <point x="1127.090909090909" y="1076.3636363636363" type="line"/>
      <point x="1214.7272727272727" y="1417.909090909091" type="line"/>
      <point x="1251.5454545454545" y="1016.0" type="line"/>
      <point x="1325.090909090909" y="76.0" type="line"/>
      <point x="1156.1818181818182" y="54.18181818181819" type="line"/>
      <point x="1156.1818181818182" y="0.0" type="line"/>
      <point x="1651.3636363636363" y="0.0" type="line"/>
      <point x="1651.3636363636363" y="54.18181818181819" type="line"/>
      <point x="1491.1818181818182" y="78.0" type="line"/>
      <point x="1347.6363636363637" y="1402.1818181818182" type="line"/>
      <point x="1517.090909090909" y="1432.4545454545455" type="line"/>
      <point x="1517.090909090909" y="1486.0" type="line"/>
      <point x="1133.2727272727273" y="1486.0" type="line"/>
      <point x="905.5454545454545" y="569.2727272727273" type="line"/>
      <point x="830.8181818181818" y="240.36363636363637" type="line"/>
      <point x="753.8181818181818" y="562.0" type="line"/>
      <point x="531.4545454545455" y="1486.0" type="line"/>
      <point x="125.27272727272728" y="1486.0" type="line"/>
      <point x="125.27272727272728" y="1432.4545454545455" type="line"/>
      <point x="310.0" y="1402.1818181818182" type="line"/>
    </contour>
  </outline>
</glyph>
<glyph name="N" format="2">
  <advance width="1289.090909090909"/>
  <unicode hex="004E"/>
  <anchor x="660.8181818181819" y="0.0" name="bottom"/>
  <anchor x="664.0" y="1486.0" name="top"/>
  <outline>
    <contour>
      <point x="186.9090909090909" y="80.81818181818181" type="line"/>
      <point x="59.45454545454545" y="53.81818181818182" type="line"/>
      <point x="59.45454545454545" y="0.0" type="line"/>
      <point x="431.0" y="0.0" type="line"/>
      <point x="431.0" y="53.81818181818182" type="line"/>
      <point x="290.45454545454544" y="80.0909090909091" type="line"/>
      <point x="275.8181818181818" y="1322.4545454545455" type="line"/>
      <point x="391.1818181818182" y="1100.3636363636363" type="line"/>
      <point x="994.3636363636364" y="0.0" type="line"/>
      <point x="1112.090909090909" y="0.0" type="line"/>
      <point x="1124.1818181818182" y="1404.8181818181818" type="line"/>
      <point x="1265.090909090909" y="1432.1818181818182" type="line"/>
      <point x="1265.090909090909" y="1486.0" type="line"/>
      <point x="875.7272727272727" y="1486.0" type="line"/>
      <point x="875.7272727272727" y="1432.1818181818182" type="line"/>
      <point x="1021.2727272727273" y="1404.8181818181818" type="line"/>
      <point x="1033.3636363636363" y="197.36363636363637" type="line"/>
      <point x="907.3636363636364" y="454.90909090909093" type="line"/>
      <point x="344.1818181818182" y="1486.0" type="line"/>
      <point x="65.18181818181819" y="1486.0" type="line"/>
      <point x="65.18181818181819" y="1432.1818181818182" type="line"/>
      <point x="116.54545454545455" y="1423.6363636363637"/>
      <point x="177.54545454545453" y="1397.1818181818182"/>
      <point x="196.45454545454544" y="1380.6363636363637" type="curve"/>
    </contour>
  </outline>
</glyph>
<glyph name="O" format="2">
  <advance width="1197.2727272727273"/>
  <unicode hex="004F"/>
  <anchor x="599.2727272727273" y="-7.636363636363637" name="bottom"/>
  <anchor x="600.3636363636364" y="741.0" name="center"/>
  <anchor x="678.8181818181819" y="13.636363636363637" name="ogonek"/>
  <anchor x="722.6983636363636" y="0.0" name="qq"/>
  <anchor x="607.2727272727273" y="1486.0" name="top"/>
  <anchor x="8.181818181818182" y="1486.0" name="topleft"/>
  <anchor x="1066.3636363636365" y="1486.0" name="topright"/>
  <outline>
    <contour>
      <point x="587.2727272727273" y="-22.0" type="curve" smooth="yes"/>
      <point x="911.9090909090909" y="-19.454545454545453"/>
      <point x="1155.090909090909" y="292.72727272727275"/>
      <point x="1155.090909090909" y="763.6363636363636" type="curve" smooth="yes"/>
      <point x="1155.090909090909" y="1209.1818181818182"/>
      <point x="972.4545454545455" y="1502.0"/>
      <point x="615.2727272727273" y="1502.0" type="curve" smooth="yes"/>
      <point x="287.45454545454544" y="1502.0"/>
      <point x="42.18181818181818" y="1207.1818181818182"/>
      <point x="42.18181818181818" y="728.8181818181819" type="curve" smooth="yes"/>
      <point x="42.18181818181818" y="289.72727272727275"/>
      <point x="226.72727272727272" y="-24.545454545454547"/>
    </contour>
    <contour>
      <point x="600.2727272727273" y="1435.090909090909" type="curve" smooth="yes"/>
      <point x="831.4545454545455" y="1435.090909090909"/>
      <point x="983.6363636363636" y="1185.090909090909"/>
      <point x="983.6363636363636" y="763.6363636363636" type="curve" smooth="yes"/>
      <point x="983.6363636363636" y="272.72727272727275"/>
      <point x="812.1818181818181" y="43.63636363636364"/>
      <point x="595.6363636363636" y="43.63636363636364" type="curve" smooth="yes"/>
      <point x="363.8181818181818" y="43.63636363636364"/>
      <point x="213.63636363636363" y="314.72727272727275"/>
      <point x="213.63636363636363" y="728.8181818181819" type="curve" smooth="yes"/>
      <point x="213.63636363636363" y="1225.4545454545455"/>
      <point x="383.09090909090907" y="1435.090909090909"/>
    </contour>
  </outline>
</glyph>
<glyph name="P" format="2">
  <advance width="1060.3636363636363"/>
  <unicode hex="0050"/>
  <anchor x="378.9090909090909" y="0.0" name="bottom"/>
  <anchor x="605.0" y="1486.0" name="top"/>
  <outline>
    <contour>
      <point x="186.0909090909091" y="81.0909090909091" type="line"/>
      <point x="44.0" y="54.18181818181819" type="line"/>
      <point x="44.0" y="0.0" type="line"/>
      <point x="554.2727272727273" y="0.0" type="line"/>
      <point x="554.2727272727273" y="54.18181818181819" type="line"/>
      <point x="341.8181818181818" y="81.81818181818181" type="line"/>
      <point x="341.8181818181818" y="614.1818181818181" type="line"/>
      <point x="372.54545454545456" y="608.2727272727273"/>
      <point x="482.54545454545456" y="601.7272727272727"/>
      <point x="531.4545454545455" y="601.7272727272727" type="curve" smooth="yes"/>
      <point x="821.3636363636364" y="601.7272727272727"/>
      <point x="1026.090909090909" y="794.8181818181819"/>
      <point x="1026.090909090909" y="1086.3636363636363" type="curve" smooth="yes"/>
      <point x="1026.090909090909" y="1334.4545454545455"/>
      <point x="878.2727272727273" y="1501.2727272727273"/>
      <point x="569.6363636363636" y="1501.2727272727273" type="curve" smooth="yes"/>
      <point x="448.09090909090907" y="1501.2727272727273"/>
      <point x="388.1818181818182" y="1486.0"/>
      <point x="268.0909090909091" y="1486.0" type="curve" smooth="yes"/>
      <point x="49.0" y="1486.0" type="line"/>
      <point x="49.0" y="1431.8181818181818" type="line"/>
      <point x="186.0909090909091" y="1404.7272727272727" type="line"/>
    </contour>
    <contour>
      <point x="341.8181818181818" y="688.0" type="curve"/>
      <point x="341.8181818181818" y="1408.5454545454545" type="line"/>
      <point x="389.0909090909091" y="1421.2727272727273"/>
      <point x="476.09090909090907" y="1434.5454545454545"/>
      <point x="545.0909090909091" y="1434.5454545454545" type="curve" smooth="yes"/>
      <point x="755.0" y="1434.5454545454545"/>
      <point x="856.4545454545455" y="1314.1818181818182"/>
      <point x="856.4545454545455" y="1086.3636363636363" type="curve" smooth="yes"/>
      <point x="856.4545454545455" y="808.4545454545455"/>
      <point x="718.9090909090909" y="666.6363636363636"/>
      <point x="528.4545454545455" y="666.6363636363636" type="curve" smooth="yes"/>
      <point x="456.27272727272725" y="666.6363636363636"/>
      <point x="384.45454545454544" y="676.9090909090909"/>
    </contour>
  </outline>
</glyph>
<glyph name="R" format="2">
  <advance width="1181.7272727272727"/>
  <unicode hex="0052"/>
  <anchor x="649.0" y="0.0" name="bottom"/>
  <anchor x="589.0" y="1486.0" name="top"/>
  <outline>
    <contour>
      <point x="44.0" y="0.0" type="line"/>
      <point x="556.6363636363636" y="0.0" type="line"/>
      <point x="556.6363636363636" y="54.18181818181819" type="line"/>
      <point x="358.54545454545456" y="81.0909090909091" type="line"/>
      <point x="358.54545454545456" y="671.5454545454545" type="line"/>
      <point x="389.27272727272725" y="669.5454545454545"/>
      <point x="500.9090909090909" y="667.0"/>
      <point x="562.9090909090909" y="667.0" type="curve"/>
      <point x="722.5454545454545" y="642.0"/>
      <point x="877.4545454545455" y="0.0"/>
      <point x="966.0" y="0.0" type="curve" smooth="yes"/>
      <point x="1185.2727272727273" y="0.0" type="line"/>
      <point x="1185.2727272727273" y="53.45454545454545" type="line"/>
      <point x="1098.7272727272727" y="88.18181818181819" type="line"/>
      <point x="1010.9090909090909" y="125.45454545454545"/>
      <point x="866.3636363636364" y="634.7272727272727"/>
      <point x="705.4545454545455" y="686.7272727272727" type="curve"/>
      <point x="905.0" y="735.7272727272727"/>
      <point x="1016.7272727272727" y="909.9090909090909"/>
      <point x="1016.7272727272727" y="1111.909090909091" type="curve" smooth="yes"/>
      <point x="1016.7272727272727" y="1344.6363636363637"/>
      <point x="896.2727272727273" y="1502.0"/>
      <point x="545.8181818181819" y="1502.0" type="curve" smooth="yes"/>
      <point x="441.3636363636364" y="1502.0"/>
      <point x="363.0909090909091" y="1486.0"/>
      <point x="266.9090909090909" y="1486.0" type="curve" smooth="yes"/>
      <point x="49.0" y="1486.0" type="line"/>
      <point x="49.0" y="1433.2727272727273" type="line"/>
      <point x="202.0" y="1405.4545454545455" type="line"/>
      <point x="202.0" y="81.0909090909091" type="line"/>
      <point x="44.0" y="54.18181818181819" type="line"/>
    </contour>
    <contour>
      <point x="525.4545454545455" y="734.4545454545455" type="curve" smooth="yes"/>
      <point x="477.45454545454544" y="734.4545454545455"/>
      <point x="418.72727272727275" y="738.1818181818181"/>
      <point x="358.54545454545456" y="746.0" type="curve"/>
      <point x="358.54545454545456" y="1416.8181818181818" type="line"/>
      <point x="390.72727272727275" y="1420.1818181818182"/>
      <point x="425.0" y="1434.5454545454545"/>
      <point x="526.1818181818181" y="1434.5454545454545" type="curve" smooth="yes"/>
      <point x="760.7272727272727" y="1434.5454545454545"/>
      <point x="852.2727272727273" y="1315.3636363636363"/>
      <point x="852.2727272727273" y="1104.2727272727273" type="curve" smooth="yes"/>
      <point x="852.2727272727273" y="857.1818181818181"/>
      <point x="750.5454545454545" y="734.4545454545455"/>
    </contour>
  </outline>
</glyph>
<glyph name="S" format="2">
  <advance width="1001.0909090909091"/>
  <unicode hex="0053"/>
  <anchor x="491.54545454545456" y="0.0" name="bottom"/>
  <anchor x="523.0909090909091" y="1486.0" name="top"/>
  <outline>
    <contour>
      <point x="481.9090909090909" y="-19.09090909090909" type="curve" smooth="yes"/>
      <point x="820.2727272727273" y="-19.09090909090909"/>
      <point x="946.8181818181818" y="200.1818181818182"/>
      <point x="946.8181818181818" y="386.3636363636364" type="curve" smooth="yes"/>
      <point x="946.8181818181818" y="626.2727272727273"/>
      <point x="742.0" y="724.9090909090909"/>
      <point x="569.6363636363636" y="808.8181818181819" type="curve" smooth="yes"/>
      <point x="364.0" y="908.7272727272727"/>
      <point x="222.54545454545456" y="1000.1818181818181"/>
      <point x="222.54545454545456" y="1171.4545454545455" type="curve" smooth="yes"/>
      <point x="222.54545454545456" y="1332.7272727272727"/>
      <point x="337.9090909090909" y="1433.8181818181818"/>
      <point x="519.3636363636364" y="1433.8181818181818" type="curve" smooth="yes"/>
      <point x="628.1818181818181" y="1433.8181818181818"/>
      <point x="707.1818181818182" y="1388.3636363636363"/>
      <point x="734.4545454545455" y="1364.3636363636363" type="curve"/>
      <point x="778.9090909090909" y="1128.5454545454545" type="line"/>
      <point x="864.2727272727273" y="1128.5454545454545" type="line"/>
      <point x="875.9090909090909" y="1427.4545454545455" type="line"/>
      <point x="830.8181818181819" y="1431.090909090909"/>
      <point x="717.1818181818181" y="1502.0"/>
      <point x="531.5454545454545" y="1502.0" type="curve" smooth="yes"/>
      <point x="260.45454545454544" y="1502.0"/>
      <point x="95.0" y="1337.0"/>
      <point x="95.0" y="1132.8181818181818" type="curve" smooth="yes"/>
      <point x="95.0" y="869.5454545454545"/>
      <point x="328.45454545454544" y="755.9090909090909"/>
      <point x="475.3636363636364" y="690.7272727272727" type="curve" smooth="yes"/>
      <point x="670.1818181818181" y="604.0"/>
      <point x="812.5454545454545" y="508.27272727272725"/>
      <point x="812.5454545454545" y="351.45454545454544" type="curve" smooth="yes"/>
      <point x="812.5454545454545" y="182.1818181818182"/>
      <point x="710.4545454545455" y="50.54545454545455"/>
      <point x="489.0" y="50.54545454545455" type="curve" smooth="yes"/>
      <point x="381.72727272727275" y="50.54545454545455"/>
      <point x="275.6363636363636" y="94.18181818181819"/>
      <point x="222.1818181818182" y="144.54545454545456" type="curve"/>
      <point x="180.1818181818182" y="396.54545454545456" type="line"/>
      <point x="89.9090909090909" y="396.54545454545456" type="line"/>
      <point x="74.27272727272728" y="72.54545454545455" type="line"/>
      <point x="134.45454545454544" y="66.54545454545455"/>
      <point x="274.8181818181818" y="-19.09090909090909"/>
    </contour>
  </outline>
</glyph>
<glyph name="T" format="2">
  <advance width="1197.5454545454545"/>
  <unicode hex="0054"/>
  <anchor x="608.2727272727273" y="0.0" name="bottom"/>
  <anchor x="945.8181818181819" y="0.0" name="bottomright"/>
  <anchor x="599.6363636363636" y="703.0909090909091" name="center"/>
  <anchor x="599.6363636363636" y="1486.0" name="top"/>
  <outline>
    <contour>
      <point x="521.0909090909091" y="81.0909090909091" type="line"/>
      <point x="258.45454545454544" y="54.18181818181819" type="line"/>
      <point x="258.45454545454544" y="0.0" type="line"/>
      <point x="941.2727272727273" y="0.0" type="line"/>
      <point x="941.2727272727273" y="54.18181818181819" type="line"/>
      <point x="676.4545454545455" y="81.0909090909091" type="line"/>
      <point x="676.4545454545455" y="1419.5454545454545" type="line"/>
      <point x="968.7272727272727" y="1405.0" type="line"/>
      <point x="1057.5454545454545" y="997.0909090909091" type="line"/>
      <point x="1149.7272727272727" y="997.0909090909091" type="line"/>
      <point x="1110.6363636363637" y="1486.0" type="line"/>
      <point x="86.9090909090909" y="1486.0" type="line"/>
      <point x="47.81818181818181" y="997.0909090909091" type="line"/>
      <point x="140.63636363636363" y="997.0909090909091" type="line"/>
      <point x="228.8181818181818" y="1405.0" type="line"/>
      <point x="521.0909090909091" y="1419.5454545454545" type="line"/>
    </contour>
  </outline>
</glyph>
<glyph name="U" format="2">
  <advance width="1232.7272727272727"/>
  <unicode hex="0055"/>
  <anchor x="654.0909090909091" y="0.0" name="bottom"/>
  <anchor x="779.8181818181819" y="20.0" name="ogonek"/>
  <anchor x="658.3636363636364" y="1486.0" name="top"/>
  <anchor x="1333.090909090909" y="1486.0" name="topright"/>
  <outline>
    <contour>
      <point x="664.1818181818181" y="-18.545454545454547" type="curve" smooth="yes"/>
      <point x="937.1818181818181" y="-18.545454545454547"/>
      <point x="1095.909090909091" y="171.72727272727272"/>
      <point x="1099.090909090909" y="577.2727272727273" type="curve" smooth="yes"/>
      <point x="1105.4545454545455" y="1405.3636363636363" type="line"/>
      <point x="1233.1818181818182" y="1431.8181818181818" type="line"/>
      <point x="1233.1818181818182" y="1486.0" type="line"/>
      <point x="858.7272727272727" y="1486.0" type="line"/>
      <point x="858.7272727272727" y="1431.8181818181818" type="line"/>
      <point x="1009.0" y="1403.3636363636363" type="line"/>
      <point x="1012.1818181818181" y="569.2727272727273" type="line" smooth="yes"/>
      <point x="1013.4545454545455" y="230.36363636363637"/>
      <point x="884.6363636363636" y="50.18181818181819"/>
      <point x="662.0" y="50.18181818181819" type="curve" smooth="yes"/>
      <point x="469.8181818181818" y="50.18181818181819"/>
      <point x="335.0" y="149.45454545454544"/>
      <point x="335.0" y="565.5454545454545" type="curve" smooth="yes"/>
      <point x="335.0" y="1405.3636363636363" type="line"/>
      <point x="499.3636363636364" y="1431.8181818181818" type="line"/>
      <point x="499.3636363636364" y="1486.0" type="line"/>
      <point x="28.727272727272727" y="1486.0" type="line"/>
      <point x="28.727272727272727" y="1431.8181818181818" type="line"/>
      <point x="174.0" y="1405.3636363636363" type="line"/>
      <point x="174.0" y="577.8181818181819" type="line" smooth="yes"/>
      <point x="174.0" y="151.54545454545456"/>
      <point x="338.90909090909093" y="-18.545454545454547"/>
    </contour>
  </outline>
</glyph>
<glyph name="V" format="2">
  <advance width="1150.4545454545455"/>
  <unicode hex="0056"/>
  <outline>
    <contour>
      <point x="-13.090909090909092" y="1433.4545454545455" type="line"/>
      <point x="95.45454545454545" y="1402.8181818181818" type="line"/>
      <point x="522.7272727272727" y="-16.0" type="line"/>
      <point x="640.9090909090909" y="-16.0" type="line"/>
      <point x="1057.8181818181818" y="1402.8181818181818" type="line"/>
      <point x="1173.5454545454545" y="1433.4545454545455" type="line"/>
      <point x="1173.5454545454545" y="1486.0" type="line"/>
      <point x="817.4545454545455" y="1486.0" type="line"/>
      <point x="817.4545454545455" y="1433.4545454545455" type="line"/>
      <point x="951.2727272727273" y="1402.8181818181818" type="line"/>
      <point x="649.6363636363636" y="282.0909090909091" type="line"/>
      <point x="609.9090909090909" y="99.18181818181819" type="line"/>
      <point x="567.6363636363636" y="280.6363636363636" type="line"/>
      <point x="258.27272727272725" y="1402.8181818181818" type="line"/>
      <point x="405.3636363636364" y="1433.4545454545455" type="line"/>
      <point x="405.3636363636364" y="1486.0" type="line"/>
      <point x="-13.090909090909092" y="1486.0" type="line"/>
    </contour>
  </outline>
</glyph>
<glyph name="W" format="2">
  <advance width="1701.8181818181818"/>
  <unicode hex="0057"/>
  <anchor x="852.7272727272727" y="0.0" name="bottom"/>
  <anchor x="868.7272727272727" y="1486.0" name="top"/>
  <outline>
    <contour>
      <point x="-34.27272727272727" y="1433.7272727272727" type="line"/>
      <point x="88.0909090909091" y="1402.7272727272727" type="line"/>
      <point x="452.6363636363636" y="-13.818181818181818" type="line"/>
      <point x="584.9090909090909" y="-13.818181818181818" type="line"/>
      <point x="856.7272727272727" y="1036.6363636363637" type="line"/>
      <point x="1117.6363636363637" y="-13.818181818181818" type="line"/>
      <point x="1250.4545454545455" y="-13.818181818181818" type="line"/>
      <point x="1616.1818181818182" y="1402.8181818181818" type="line"/>
      <point x="1741.8181818181818" y="1432.4545454545455" type="line"/>
      <point x="1741.8181818181818" y="1486.0" type="line"/>
      <point x="1340.2727272727273" y="1486.0" type="line"/>
      <point x="1340.2727272727273" y="1432.4545454545455" type="line"/>
      <point x="1512.3636363636363" y="1402.8181818181818" type="line"/>
      <point x="1252.0" y="305.1818181818182" type="line"/>
      <point x="1213.909090909091" y="86.0909090909091" type="line"/>
      <point x="1173.3636363636363" y="300.72727272727275" type="line"/>
      <point x="913.9090909090909" y="1410.4545454545455" type="line"/>
      <point x="1068.6363636363637" y="1432.4545454545455" type="line"/>
      <point x="1068.6363636363637" y="1486.0" type="line"/>
      <point x="638.7272727272727" y="1486.0" type="line"/>
      <point x="638.7272727272727" y="1432.4545454545455" type="line"/>
      <point x="761.4545454545455" y="1410.4545454545455" type="line"/>
      <point x="815.2727272727273" y="1204.909090909091" type="line"/>
      <point x="585.2727272727273" y="305.1818181818182" type="line"/>
      <point x="546.3636363636364" y="94.81818181818181" type="line"/>
      <point x="509.8181818181818" y="301.3636363636364" type="line"/>
      <point x="239.63636363636363" y="1403.4545454545455" type="line"/>
      <point x="402.90909090909093" y="1433.090909090909" type="line"/>
      <point x="402.90909090909093" y="1486.0" type="line"/>
      <point x="-34.27272727272727" y="1486.6363636363637" type="line"/>
    </contour>
  </outline>
</glyph>
<glyph name="X" format="2">
  <advance width="1227.909090909091"/>
  <unicode hex="0058"/>
  <anchor x="1220.2727272727273" y="0.0" name="bottomright"/>
  <outline>
    <contour>
      <point x="162.0" y="77.27272727272728" type="line"/>
      <point x="28.0" y="54.18181818181819" type="line"/>
      <point x="29.272727272727273" y="0.0" type="line"/>
      <point x="457.27272727272725" y="0.0" type="line"/>
      <point x="456.0" y="54.18181818181819" type="line"/>
      <point x="285.27272727272725" y="79.18181818181819" type="line"/>
      <point x="583.3636363636364" y="668.9090909090909" type="line"/>
      <point x="884.7272727272727" y="77.27272727272728" type="line"/>
      <point x="717.6363636363636" y="54.18181818181819" type="line"/>
      <point x="718.9090909090909" y="0.0" type="line"/>
      <point x="1205.0" y="0.0" type="line"/>
      <point x="1203.7272727272727" y="54.18181818181819" type="line"/>
      <point x="1066.7272727272727" y="79.18181818181819" type="line"/>
      <point x="677.2727272727273" y="772.6363636363636" type="line"/>
      <point x="1050.7272727272727" y="1407.2727272727273" type="line"/>
      <point x="1183.3636363636363" y="1431.8181818181818" type="line"/>
      <point x="1183.3636363636363" y="1486.0" type="line"/>
      <point x="771.5454545454545" y="1486.0" type="line"/>
      <point x="771.5454545454545" y="1431.8181818181818" type="line"/>
      <point x="932.8181818181819" y="1405.3636363636363" type="line"/>
      <point x="635.2727272727273" y="838.6363636363636" type="line"/>
      <point x="345.1818181818182" y="1407.2727272727273" type="line"/>
      <point x="513.9090909090909" y="1431.8181818181818" type="line"/>
      <point x="513.9090909090909" y="1486.0" type="line"/>
      <point x="36.0" y="1486.0" type="line"/>
      <point x="36.0" y="1431.8181818181818" type="line"/>
      <point x="168.9090909090909" y="1405.3636363636363" type="line"/>
      <point x="539.6363636363636" y="738.0" type="line"/>
    </contour>
  </outline>
</glyph>
<glyph name="Y" format="2">
  <advance width="1133.2727272727273"/>
  <unicode hex="0059"/>
  <anchor x="570.1818181818181" y="0.0" name="bottom"/>
  <anchor x="568.406909090909" y="547.0" name="center"/>
  <anchor x="584.6363636363636" y="1486.0" name="top"/>
  <anchor x="8.363636363636363" y="1486.0" name="topleft"/>
  <outline>
    <contour>
      <point x="489.6363636363636" y="81.72727272727272" type="line"/>
      <point x="271.27272727272725" y="54.18181818181819" type="line"/>
      <point x="271.27272727272725" y="0.0" type="line"/>
      <point x="860.0" y="0.0" type="line"/>
      <point x="860.0" y="54.18181818181819" type="line"/>
      <point x="643.6363636363636" y="82.45454545454545" type="line"/>
      <point x="643.6363636363636" y="582.2727272727273" type="line"/>
      <point x="1027.8181818181818" y="1412.3636363636363" type="line"/>
      <point x="1150.5454545454545" y="1432.4545454545455" type="line"/>
      <point x="1150.5454545454545" y="1486.0" type="line"/>
      <point x="751.2727272727273" y="1486.0" type="line"/>
      <point x="751.2727272727273" y="1432.4545454545455" type="line"/>
      <point x="912.9090909090909" y="1411.090909090909" type="line"/>
      <point x="649.7272727272727" y="802.4545454545455" type="line"/>
      <point x="587.0" y="646.9090909090909" type="line"/>
      <point x="524.5454545454545" y="808.8181818181819" type="line"/>
      <point x="274.0" y="1411.090909090909" type="line"/>
      <point x="435.0" y="1432.4545454545455" type="line"/>
      <point x="435.0" y="1486.0" type="line"/>
      <point x="-17.272727272727273" y="1485.3636363636363" type="line"/>
      <point x="-17.272727272727273" y="1431.8181818181818" type="line"/>
      <point x="98.81818181818181" y="1411.090909090909" type="line"/>
      <point x="489.6363636363636" y="580.2727272727273" type="line"/>
    </contour>
  </outline>
</glyph>
<glyph name="Z" format="2">
  <advance width="1165.090909090909"/>
  <unicode hex="005A"/>
  <anchor x="581.2727272727273" y="0.0" name="bottom"/>
  <anchor x="600.0" y="1486.0" name="top"/>
  <outline>
    <contour>
      <point x="790.0" y="1243.6363636363637" type="line"/>
      <point x="51.27272727272727" y="49.36363636363636" type="line"/>
      <point x="82.54545454545455" y="0.0" type="line"/>
      <point x="1051.6363636363637" y="0.0" type="line"/>
      <point x="1105.8181818181818" y="409.27272727272725" type="line"/>
      <point x="1024.1818181818182" y="430.0" type="line"/>
      <point x="914.0909090909091" y="113.36363636363636" type="line"/>
      <point x="212.9090909090909" y="71.72727272727272" type="line"/>
      <point x="351.0" y="257.1818181818182" type="line"/>
      <point x="1081.3636363636363" y="1439.6363636363637" type="line"/>
      <point x="1051.8181818181818" y="1488.1818181818182" type="line"/>
      <point x="189.9090909090909" y="1488.1818181818182" type="line"/>
      <point x="149.36363636363637" y="1126.1818181818182" type="line"/>
      <point x="225.72727272727272" y="1116.1818181818182" type="line"/>
      <point x="329.3636363636364" y="1395.2727272727273" type="line"/>
      <point x="915.6363636363636" y="1416.5454545454545" type="line"/>
    </contour>
  </outline>
</glyph>
<glyph name="bracketleft" format="2">
  <advance width="731.7272727272727"/>
  <unicode hex="005B"/>
  <outline>
    <contour>
      <point x="170.63636363636363" y="1467.1818181818182" type="curve"/>
      <point x="170.63636363636363" y="-133.1818181818182" type="line" smooth="yes"/>
      <point x="170.63636363636363" y="-253.0"/>
      <point x="213.1818181818182" y="-274.0"/>
      <point x="313.6363636363636" y="-274.0" type="curve" smooth="yes"/>
      <point x="387.8181818181818" y="-274.0"/>
      <point x="463.8181818181818" y="-258.0"/>
      <point x="535.7272727272727" y="-238.0" type="curve"/>
      <point x="535.7272727272727" y="-185.63636363636363" type="line"/>
      <point x="288.54545454545456" y="-185.63636363636363" type="line"/>
      <point x="288.54545454545456" y="1521.6363636363637" type="line"/>
      <point x="535.7272727272727" y="1521.6363636363637" type="line"/>
      <point x="535.7272727272727" y="1574.0" type="line"/>
      <point x="469.1818181818182" y="1590.0"/>
      <point x="393.1818181818182" y="1608.0"/>
      <point x="313.6363636363636" y="1608.0" type="curve" smooth="yes"/>
      <point x="213.1818181818182" y="1608.0"/>
      <point x="170.63636363636363" y="1587.0"/>
    </contour>
  </outline>
</glyph>
<glyph name="backslash" format="2">
  <advance width="715.6363636363636"/>
  <unicode hex="005C"/>
  <outline>
    <contour>
      <point x="659.0909090909091" y="-354.0" type="line"/>
      <point x="148.72727272727275" y="1562.0" type="line"/>
      <point x="42.0" y="1562.0" type="line"/>
      <point x="552.3636363636364" y="-354.0" type="line"/>
    </contour>
  </outline>
</glyph>
<glyph name="bracketright" format="2">
  <advance width="731.7272727272727"/>
  <unicode hex="005D"/>
  <outline>
    <contour>
      <point x="561.0909090909091" y="1467.1818181818182" type="line"/>
      <point x="561.0909090909091" y="1587.0"/>
      <point x="518.5454545454545" y="1608.0"/>
      <point x="418.0909090909091" y="1608.0" type="curve" smooth="yes"/>
      <point x="338.54545454545456" y="1608.0"/>
      <point x="262.54545454545456" y="1590.0"/>
      <point x="196.0" y="1574.0" type="curve"/>
      <point x="196.0" y="1521.6363636363637" type="line"/>
      <point x="443.1818181818182" y="1521.6363636363637" type="line"/>
      <point x="443.1818181818182" y="-185.63636363636363" type="line"/>
      <point x="196.0" y="-185.63636363636363" type="line"/>
      <point x="196.0" y="-238.0" type="line"/>
      <point x="267.9090909090909" y="-258.0"/>
      <point x="343.9090909090909" y="-274.0"/>
      <point x="418.0909090909091" y="-274.0" type="curve" smooth="yes"/>
      <point x="518.5454545454545" y="-274.0"/>
      <point x="561.0909090909091" y="-253.0"/>
      <point x="561.0909090909091" y="-133.1818181818182" type="curve" smooth="yes"/>
    </contour>
  </outline>
</glyph>
<glyph name="asciicircum" format="2">
  <advance width="1126.6363636363637"/>
  <unicode hex="005E"/>
  <outline>
    <contour>
      <point x="617.7272727272727" y="1496.0" type="line"/>
      <point x="509.72727272727275" y="1496.0" type="line"/>
      <point x="152.72727272727272" y="266.6363636363636" type="line"/>
      <point x="256.8181818181818" y="266.6363636363636" type="line"/>
      <point x="563.0909090909091" y="1333.6363636363637" type="line"/>
      <point x="863.6363636363636" y="266.6363636363636" type="line"/>
      <point x="973.5454545454545" y="266.6363636363636" type="line"/>
    </contour>
  </outline>
</glyph>
<glyph name="a" format="2">
  <advance width="836.0909090909091"/>
  <unicode hex="0061"/>
  <anchor x="404.09090909090907" y="1.8181818181818183" name="bottom"/>
  <anchor x="708.4545454545455" y="20.0" name="ogonek"/>
  <anchor x="408.3636363636364" y="1110.0" name="top"/>
  <outline>
    <contour>
      <point x="32.0" y="261.72727272727275" type="curve" smooth="yes"/>
      <point x="32.0" y="67.0"/>
      <point x="159.63636363636363" y="-16.90909090909091"/>
      <point x="297.09090909090907" y="-16.90909090909091" type="curve" smooth="yes"/>
      <point x="441.72727272727275" y="-16.90909090909091"/>
      <point x="542.5454545454545" y="93.18181818181819"/>
      <point x="581.0909090909091" y="157.1818181818182" type="curve"/>
      <point x="581.0909090909091" y="66.72727272727273" type="line" smooth="yes"/>
      <point x="581.0909090909091" y="10.727272727272727"/>
      <point x="605.1818181818181" y="-16.727272727272727"/>
      <point x="665.7272727272727" y="-16.727272727272727" type="curve" smooth="yes"/>
      <point x="709.8181818181819" y="-16.727272727272727"/>
      <point x="776.6363636363636" y="-1.9090909090909092"/>
      <point x="814.0" y="13.272727272727273" type="curve"/>
      <point x="814.0" y="60.81818181818182" type="line"/>
      <point x="715.7272727272727" y="60.81818181818182" type="line"/>
      <point x="715.7272727272727" y="723.2727272727273" type="line" smooth="yes"/>
      <point x="715.7272727272727" y="923.0"/>
      <point x="665.6363636363636" y="1069.6363636363637"/>
      <point x="431.54545454545456" y="1069.6363636363637" type="curve" smooth="yes"/>
      <point x="291.72727272727275" y="1069.6363636363637"/>
      <point x="135.45454545454544" y="991.3636363636364"/>
      <point x="73.81818181818181" y="933.8181818181819" type="curve"/>
      <point x="106.54545454545455" y="879.6363636363636" type="line"/>
      <point x="172.36363636363637" y="923.2727272727273"/>
      <point x="266.3636363636364" y="971.6363636363636"/>
      <point x="397.6363636363636" y="971.6363636363636" type="curve" smooth="yes"/>
      <point x="539.7272727272727" y="971.6363636363636"/>
      <point x="575.4545454545455" y="866.7272727272727"/>
      <point x="574.8181818181819" y="715.8181818181819" type="curve" smooth="yes"/>
      <point x="574.1818181818181" y="613.4545454545455" type="line"/>
      <point x="334.0" y="611.2727272727273"/>
      <point x="32.0" y="517.8181818181819"/>
    </contour>
    <contour>
      <point x="339.6363636363636" y="78.72727272727272" type="curve" smooth="yes"/>
      <point x="246.27272727272728" y="78.72727272727272"/>
      <point x="185.45454545454544" y="150.0"/>
      <point x="185.45454545454544" y="281.09090909090907" type="curve" smooth="yes"/>
      <point x="185.45454545454544" y="450.54545454545456"/>
      <point x="345.1818181818182" y="547.0909090909091"/>
      <point x="574.1818181818181" y="548.1818181818181" type="curve"/>
      <point x="574.1818181818181" y="205.9090909090909" type="line"/>
      <point x="513.0" y="138.45454545454544"/>
      <point x="430.45454545454544" y="78.72727272727272"/>
    </contour>
  </outline>
</glyph>
<glyph name="b" format="2">
  <advance width="943.7272727272727"/>
  <unicode hex="0062"/>
  <anchor x="422.1818181818182" y="0.0" name="bottom"/>
  <anchor x="589.0909090909091" y="1110.0" name="top"/>
  <outline>
    <contour>
      <point x="-11.636363636363637" y="1561.5454545454545" type="line"/>
      <point x="110.45454545454545" y="1543.2727272727273" type="line"/>
      <point x="110.45454545454545" y="54.0" type="line"/>
      <point x="133.0909090909091" y="29.09090909090909"/>
      <point x="271.90909090909093" y="-23.90909090909091"/>
      <point x="424.72727272727275" y="-23.90909090909091" type="curve" smooth="yes"/>
      <point x="710.1818181818181" y="-23.90909090909091"/>
      <point x="893.5454545454545" y="226.9090909090909"/>
      <point x="893.9090909090909" y="572.6363636363636" type="curve" smooth="yes"/>
      <point x="894.2727272727273" y="900.4545454545455"/>
      <point x="741.5454545454545" y="1072.5454545454545"/>
      <point x="535.4545454545455" y="1072.5454545454545" type="curve" smooth="yes"/>
      <point x="369.27272727272725" y="1072.5454545454545"/>
      <point x="283.54545454545456" y="982.3636363636364"/>
      <point x="253.0909090909091" y="913.0" type="curve"/>
      <point x="253.0909090909091" y="1619.5454545454545" type="line"/>
      <point x="229.1818181818182" y="1638.0" type="line"/>
      <point x="212.8181818181818" y="1638.0" type="line"/>
      <point x="-11.636363636363637" y="1605.2727272727273" type="line"/>
    </contour>
    <contour>
      <point x="495.45454545454544" y="986.1818181818181" type="curve" smooth="yes"/>
      <point x="645.0" y="986.1818181818181"/>
      <point x="738.4545454545455" y="834.6363636363636"/>
      <point x="739.1818181818181" y="554.7272727272727" type="curve" smooth="yes"/>
      <point x="739.9090909090909" y="210.36363636363637"/>
      <point x="616.3636363636364" y="50.09090909090909"/>
      <point x="433.90909090909093" y="49.36363636363636" type="curve" smooth="yes"/>
      <point x="345.27272727272725" y="49.0"/>
      <point x="283.8181818181818" y="74.45454545454545"/>
      <point x="253.0909090909091" y="121.27272727272728" type="curve"/>
      <point x="253.0909090909091" y="838.4545454545455" type="line"/>
      <point x="290.72727272727275" y="903.9090909090909"/>
      <point x="363.54545454545456" y="986.1818181818181"/>
    </contour>
  </outline>
</glyph>
<glyph name="c" format="2">
  <advance width="797.4545454545455"/>
  <unicode hex="0063"/>
  <anchor x="418.09090909090907" y="0.0" name="bottom"/>
  <anchor x="490.54545454545456" y="1110.0" name="top"/>
  <outline>
    <contour>
      <point x="47.0" y="521.6363636363636" type="curve" smooth="yes"/>
      <point x="47.72727272727273" y="198.0"/>
      <point x="180.27272727272728" y="-22.0"/>
      <point x="446.72727272727275" y="-22.0" type="curve" smooth="yes"/>
      <point x="559.4545454545455" y="-22.0"/>
      <point x="677.7272727272727" y="34.36363636363636"/>
      <point x="736.6363636363636" y="105.36363636363636" type="curve"/>
      <point x="711.7272727272727" y="151.54545454545456" type="line"/>
      <point x="662.2727272727273" y="110.18181818181819"/>
      <point x="572.4545454545455" y="62.09090909090909"/>
      <point x="477.27272727272725" y="62.09090909090909" type="curve" smooth="yes"/>
      <point x="279.0909090909091" y="62.09090909090909"/>
      <point x="200.1818181818182" y="280.0"/>
      <point x="200.9090909090909" y="569.6363636363636" type="curve" smooth="yes"/>
      <point x="201.27272727272728" y="849.6363636363636"/>
      <point x="323.90909090909093" y="1003.7272727272727"/>
      <point x="469.45454545454544" y="1003.7272727272727" type="curve" smooth="yes"/>
      <point x="561.7272727272727" y="1003.7272727272727"/>
      <point x="616.3636363636364" y="968.1818181818182"/>
      <point x="621.5454545454545" y="938.0" type="curve" smooth="yes"/>
      <point x="650.9090909090909" y="745.7272727272727" type="line"/>
      <point x="732.6363636363636" y="745.7272727272727" type="line"/>
      <point x="739.6363636363636" y="1013.8181818181818" type="line"/>
      <point x="701.2727272727273" y="1027.5454545454545"/>
      <point x="605.0909090909091" y="1072.5454545454545"/>
      <point x="501.54545454545456" y="1072.5454545454545" type="curve" smooth="yes"/>
      <point x="210.72727272727272" y="1072.5454545454545"/>
      <point x="46.27272727272727" y="804.0"/>
    </contour>
  </outline>
</glyph>
<glyph name="e" format="2">
  <advance width="850.4545454545455"/>
  <unicode hex="0065"/>
  <anchor x="430.3636363636364" y="5.0" name="bottom"/>
  <anchor x="560.3636363636364" y="20.0" name="ogonek"/>
  <anchor x="477.9090909090909" y="1110.0" name="top"/>
  <outline>
    <contour>
      <point x="458.1818181818182" y="-22.0" type="curve" smooth="yes"/>
      <point x="588.3636363636364" y="-22.0"/>
      <point x="710.9090909090909" y="35.90909090909091"/>
      <point x="772.0" y="108.18181818181819" type="curve"/>
      <point x="746.4545454545455" y="158.9090909090909" type="line"/>
      <point x="694.4545454545455" y="106.81818181818181"/>
      <point x="597.6363636363636" y="60.72727272727273"/>
      <point x="487.0" y="60.72727272727273" type="curve" smooth="yes"/>
      <point x="293.72727272727275" y="60.72727272727273"/>
      <point x="208.36363636363637" y="257.0"/>
      <point x="206.36363636363637" y="537.1818181818181" type="curve"/>
      <point x="792.0909090909091" y="537.1818181818181" type="line"/>
      <point x="799.4545454545455" y="573.5454545454545"/>
      <point x="803.0909090909091" y="610.7272727272727"/>
      <point x="802.4545454545455" y="694.3636363636364" type="curve"/>
      <point x="797.2727272727273" y="941.3636363636364"/>
      <point x="659.0909090909091" y="1072.5454545454545"/>
      <point x="467.72727272727275" y="1072.5454545454545" type="curve" smooth="yes"/>
      <point x="241.9090909090909" y="1072.5454545454545"/>
      <point x="51.27272727272727" y="867.6363636363636"/>
      <point x="51.27272727272727" y="527.5454545454545" type="curve" smooth="yes"/>
      <point x="51.27272727272727" y="207.8181818181818"/>
      <point x="186.54545454545456" y="-22.0"/>
    </contour>
    <contour>
      <point x="206.72727272727272" y="600.9090909090909" type="line"/>
      <point x="212.8181818181818" y="886.5454545454545"/>
      <point x="312.9090909090909" y="1005.9090909090909"/>
      <point x="463.6363636363636" y="1005.9090909090909" type="curve" smooth="yes"/>
      <point x="588.7272727272727" y="1005.9090909090909"/>
      <point x="654.0" y="883.4545454545455"/>
      <point x="654.0" y="695.2727272727273" type="curve" smooth="yes"/>
      <point x="654.0" y="664.0909090909091"/>
      <point x="653.0" y="637.8181818181819"/>
      <point x="650.0" y="609.1818181818181" type="curve"/>
    </contour>
  </outline>
</glyph>
<glyph name="f" format="2">
  <advance width="605.1818181818182"/>
  <unicode hex="0066"/>
  <anchor x="393.0" y="1565.7272727272727" name="top"/>
  <outline>
    <contour>
      <point x="203.45454545454544" y="79.36363636363636" type="line"/>
      <point x="58.90909090909091" y="53.81818181818182" type="line"/>
      <point x="58.90909090909091" y="0.0" type="line"/>
      <point x="516.5454545454545" y="0.0" type="line"/>
      <point x="516.5454545454545" y="53.81818181818182" type="line"/>
      <point x="346.0909090909091" y="77.36363636363636" type="line"/>
      <point x="346.0909090909091" y="957.2727272727273" type="line"/>
      <point x="566.9090909090909" y="957.2727272727273" type="line"/>
      <point x="566.9090909090909" y="1043.1818181818182" type="line"/>
      <point x="346.0909090909091" y="1043.1818181818182" type="line"/>
      <point x="346.72727272727275" y="1296.0" type="line" smooth="yes"/>
      <point x="347.3636363636364" y="1468.2727272727273"/>
      <point x="384.0909090909091" y="1536.090909090909"/>
      <point x="520.4545454545455" y="1536.090909090909" type="curve" smooth="yes"/>
      <point x="594.6363636363636" y="1536.090909090909"/>
      <point x="649.4545454545455" y="1523.6363636363637"/>
      <point x="666.8181818181819" y="1509.6363636363637" type="curve"/>
      <point x="666.8181818181819" y="1640.090909090909" type="line"/>
      <point x="649.0909090909091" y="1648.090909090909"/>
      <point x="623.8181818181819" y="1656.090909090909"/>
      <point x="573.2727272727273" y="1656.090909090909" type="curve" smooth="yes"/>
      <point x="387.90909090909093" y="1656.090909090909"/>
      <point x="203.45454545454544" y="1468.3636363636363"/>
      <point x="203.45454545454544" y="1170.5454545454545" type="curve" smooth="yes"/>
      <point x="203.45454545454544" y="1041.1818181818182" type="line"/>
      <point x="33.81818181818182" y="1009.5454545454545" type="line"/>
      <point x="33.81818181818182" y="957.2727272727273" type="line"/>
      <point x="203.45454545454544" y="957.2727272727273" type="line"/>
    </contour>
  </outline>
</glyph>
<glyph name="g" format="2">
  <advance width="935.0909090909091"/>
  <unicode hex="0067"/>
  <anchor x="460.6363636363636" y="0.0" name="bottom"/>
  <anchor x="482.45454545454544" y="1110.0" name="top"/>
  <outline>
    <contour>
      <point x="421.72727272727275" y="-494.1818181818182" type="curve"/>
      <point x="703.0" y="-494.1818181818182"/>
      <point x="907.2727272727273" y="-341.1818181818182"/>
      <point x="907.2727272727273" y="-112.36363636363636" type="curve" smooth="yes"/>
      <point x="907.2727272727273" y="14.181818181818183"/>
      <point x="819.8181818181818" y="113.9090909090909"/>
      <point x="636.0" y="113.9090909090909" type="curve" smooth="yes"/>
      <point x="404.9090909090909" y="113.9090909090909" type="line" smooth="yes"/>
      <point x="290.6363636363636" y="113.9090909090909"/>
      <point x="243.0" y="144.0"/>
      <point x="243.0" y="233.36363636363637" type="curve" smooth="yes"/>
      <point x="243.0" y="298.0"/>
      <point x="272.3636363636364" y="339.1818181818182"/>
      <point x="317.0" y="371.45454545454544" type="curve"/>
      <point x="357.72727272727275" y="362.6363636363636"/>
      <point x="397.72727272727275" y="356.0"/>
      <point x="445.1818181818182" y="356.0" type="curve" smooth="yes"/>
      <point x="643.3636363636364" y="356.0"/>
      <point x="825.3636363636364" y="500.0"/>
      <point x="825.3636363636364" y="726.7272727272727" type="curve" smooth="yes"/>
      <point x="825.3636363636364" y="827.0"/>
      <point x="794.7272727272727" y="898.0909090909091"/>
      <point x="772.5454545454545" y="927.7272727272727" type="curve"/>
      <point x="943.0909090909091" y="928.3636363636364" type="line"/>
      <point x="943.7272727272727" y="1062.3636363636363" type="line"/>
      <point x="899.1818181818182" y="1062.3636363636363" type="line" smooth="yes"/>
      <point x="837.8181818181818" y="1062.3636363636363"/>
      <point x="754.7272727272727" y="1015.2727272727273"/>
      <point x="737.6363636363636" y="972.0909090909091" type="curve"/>
      <point x="681.0" y="1030.6363636363637"/>
      <point x="605.5454545454545" y="1075.7272727272727"/>
      <point x="474.0909090909091" y="1075.7272727272727" type="curve" smooth="yes"/>
      <point x="283.54545454545456" y="1075.7272727272727"/>
      <point x="94.0909090909091" y="939.6363636363636"/>
      <point x="94.0909090909091" y="708.3636363636364" type="curve" smooth="yes"/>
      <point x="94.0909090909091" y="576.9090909090909"/>
      <point x="147.1818181818182" y="458.0909090909091"/>
      <point x="276.3636363636364" y="391.8181818181818" type="curve"/>
      <point x="180.27272727272728" y="350.3636363636364"/>
      <point x="123.18181818181819" y="264.72727272727275"/>
      <point x="123.81818181818181" y="180.54545454545456" type="curve" smooth="yes"/>
      <point x="124.45454545454545" y="97.36363636363636"/>
      <point x="166.72727272727272" y="49.09090909090909"/>
      <point x="222.36363636363637" y="22.181818181818183" type="curve"/>
      <point x="124.81818181818181" y="-8.636363636363637"/>
      <point x="33.27272727272727" y="-94.45454545454545"/>
      <point x="33.27272727272727" y="-218.0909090909091" type="curve" smooth="yes"/>
      <point x="33.27272727272727" y="-399.1818181818182"/>
      <point x="208.0" y="-494.1818181818182"/>
    </contour>
    <contour>
      <point x="437.45454545454544" y="-425.90909090909093" type="curve"/>
      <point x="281.72727272727275" y="-425.90909090909093"/>
      <point x="183.9090909090909" y="-346.27272727272725"/>
      <point x="183.9090909090909" y="-195.27272727272728" type="curve" smooth="yes"/>
      <point x="183.9090909090909" y="-87.27272727272728"/>
      <point x="219.72727272727272" y="-33.0"/>
      <point x="264.27272727272725" y="4.363636363636363" type="curve"/>
      <point x="307.72727272727275" y="-3.090909090909091"/>
      <point x="376.0" y="-6.363636363636363"/>
      <point x="436.8181818181818" y="-6.363636363636363" type="curve" smooth="yes"/>
      <point x="597.0" y="-6.363636363636363" type="line" smooth="yes"/>
      <point x="737.3636363636364" y="-6.363636363636363"/>
      <point x="766.4545454545455" y="-69.9090909090909"/>
      <point x="766.4545454545455" y="-157.0909090909091" type="curve" smooth="yes"/>
      <point x="766.4545454545455" y="-310.8181818181818"/>
      <point x="625.7272727272727" y="-425.90909090909093"/>
    </contour>
    <contour>
      <point x="453.0" y="423.45454545454544" type="curve" smooth="yes"/>
      <point x="318.72727272727275" y="423.45454545454544"/>
      <point x="241.63636363636363" y="546.9090909090909"/>
      <point x="241.63636363636363" y="717.6363636363636" type="curve" smooth="yes"/>
      <point x="241.63636363636363" y="912.8181818181819"/>
      <point x="332.0909090909091" y="1008.2727272727273"/>
      <point x="467.54545454545456" y="1008.2727272727273" type="curve" smooth="yes"/>
      <point x="594.3636363636364" y="1008.2727272727273"/>
      <point x="680.3636363636364" y="902.8181818181819"/>
      <point x="680.3636363636364" y="718.0909090909091" type="curve" smooth="yes"/>
      <point x="680.3636363636364" y="530.3636363636364"/>
      <point x="597.9090909090909" y="423.45454545454544"/>
    </contour>
  </outline>
</glyph>
<glyph name="h" format="2">
  <advance width="1007.3636363636364"/>
  <unicode hex="0068"/>
  <anchor x="531.9090909090909" y="0.0" name="bottom"/>
  <anchor x="391.0909090909091" y="1042.4545454545455" name="center"/>
  <anchor x="198.54545454545456" y="1602.0" name="top"/>
  <outline>
    <contour>
      <point x="150.9090909090909" y="78.63636363636364" type="line"/>
      <point x="39.18181818181819" y="53.81818181818182" type="line"/>
      <point x="39.18181818181819" y="0.0" type="line"/>
      <point x="413.3636363636364" y="0.0" type="line"/>
      <point x="413.3636363636364" y="53.81818181818182" type="line"/>
      <point x="293.9090909090909" y="79.36363636363636" type="line"/>
      <point x="293.9090909090909" y="832.5454545454545" type="line"/>
      <point x="374.1818181818182" y="919.7272727272727"/>
      <point x="469.3636363636364" y="967.5454545454545"/>
      <point x="556.7272727272727" y="967.5454545454545" type="curve" smooth="yes"/>
      <point x="702.3636363636364" y="967.5454545454545"/>
      <point x="732.2727272727273" y="850.6363636363636"/>
      <point x="732.2727272727273" y="653.6363636363636" type="curve" smooth="yes"/>
      <point x="732.2727272727273" y="78.63636363636364" type="line"/>
      <point x="620.0" y="53.81818181818182" type="line"/>
      <point x="620.0" y="0.0" type="line"/>
      <point x="987.9090909090909" y="0.0" type="line"/>
      <point x="987.9090909090909" y="53.81818181818182" type="line"/>
      <point x="876.2727272727273" y="78.63636363636364" type="line"/>
      <point x="876.2727272727273" y="652.2727272727273" type="line" smooth="yes"/>
      <point x="876.2727272727273" y="894.3636363636364"/>
      <point x="835.9090909090909" y="1066.6363636363637"/>
      <point x="605.9090909090909" y="1066.6363636363637" type="curve" smooth="yes"/>
      <point x="480.72727272727275" y="1066.6363636363637"/>
      <point x="343.54545454545456" y="969.6363636363636"/>
      <point x="292.3636363636364" y="884.1818181818182" type="curve"/>
      <point x="293.1818181818182" y="1052.2727272727273" type="line"/>
      <point x="293.8181818181818" y="1620.2727272727273" type="line"/>
      <point x="270.27272727272725" y="1638.0" type="line"/>
      <point x="248.8181818181818" y="1638.0" type="line"/>
      <point x="10.81818181818182" y="1605.2727272727273" type="line"/>
      <point x="10.81818181818182" y="1561.909090909091" type="line"/>
      <point x="150.9090909090909" y="1543.2727272727273" type="line"/>
    </contour>
  </outline>
</glyph>
<glyph name="k" format="2">
  <advance width="951.7272727272727"/>
  <unicode hex="006B"/>
  <anchor x="619.9090909090909" y="0.0" name="bottom"/>
  <anchor x="576.5454545454545" y="1593.8181818181818" name="top"/>
  <outline>
    <contour>
      <point x="150.9090909090909" y="79.72727272727272" type="line"/>
      <point x="32.81818181818182" y="54.18181818181819" type="line"/>
      <point x="32.81818181818182" y="0.0" type="line"/>
      <point x="417.8181818181818" y="0.0" type="line"/>
      <point x="417.8181818181818" y="54.18181818181819" type="line"/>
      <point x="293.54545454545456" y="79.72727272727272" type="line"/>
      <point x="293.54545454545456" y="256.0" type="line"/>
      <point x="285.0909090909091" y="356.54545454545456" type="line"/>
      <point x="464.72727272727275" y="562.5454545454545" type="line"/>
      <point x="731.7272727272727" y="79.72727272727272" type="line"/>
      <point x="616.9090909090909" y="54.18181818181819" type="line"/>
      <point x="616.9090909090909" y="0.0" type="line"/>
      <point x="1000.2727272727273" y="0.0" type="line"/>
      <point x="1000.2727272727273" y="55.45454545454545" type="line"/>
      <point x="896.3636363636364" y="79.0" type="line"/>
      <point x="561.4545454545455" y="652.8181818181819" type="line"/>
      <point x="831.0909090909091" y="959.3636363636364" type="line"/>
      <point x="941.4545454545455" y="989.2727272727273" type="line"/>
      <point x="941.4545454545455" y="1043.1818181818182" type="line"/>
      <point x="581.2727272727273" y="1043.1818181818182" type="line"/>
      <point x="581.2727272727273" y="989.2727272727273" type="line"/>
      <point x="706.4545454545455" y="958.7272727272727" type="line"/>
      <point x="286.3636363636364" y="455.1818181818182" type="line"/>
      <point x="293.54545454545456" y="602.0" type="line"/>
      <point x="293.54545454545456" y="1620.2727272727273" type="line"/>
      <point x="272.27272727272725" y="1638.0" type="line"/>
      <point x="247.36363636363637" y="1638.0" type="line"/>
      <point x="10.81818181818182" y="1605.2727272727273" type="line"/>
      <point x="10.81818181818182" y="1561.1818181818182" type="line"/>
      <point x="150.9090909090909" y="1542.5454545454545" type="line"/>
    </contour>
  </outline>
</glyph>
<glyph name="l" format="2">
  <advance width="481.0909090909091"/>
  <unicode hex="006C"/>
  <anchor x="247.0909090909091" y="0.0" name="bottom"/>
  <anchor x="232.0" y="1634.0" name="top"/>
  <anchor x="474.6363636363636" y="1110.0" name="topright"/>
  <outline>
    <contour>
      <point x="170.1818181818182" y="79.36363636363636" type="line"/>
      <point x="28.636363636363637" y="53.81818181818182" type="line"/>
      <point x="28.636363636363637" y="0.0" type="line"/>
      <point x="454.1818181818182" y="0.0" type="line"/>
      <point x="454.1818181818182" y="53.81818181818182" type="line"/>
      <point x="313.8181818181818" y="77.36363636363636" type="line"/>
      <point x="313.8181818181818" y="1620.2727272727273" type="line"/>
      <point x="291.54545454545456" y="1638.0" type="line"/>
      <point x="273.6363636363636" y="1638.0" type="line"/>
      <point x="32.90909090909091" y="1605.2727272727273" type="line"/>
      <point x="32.90909090909091" y="1561.909090909091" type="line"/>
      <point x="170.1818181818182" y="1543.2727272727273" type="line"/>
    </contour>
  </outline>
</glyph>
<glyph name="m" format="2">
  <advance width="1572.909090909091"/>
  <unicode hex="006D"/>
  <anchor x="794.6363636363636" y="0.0" name="bottom"/>
  <anchor x="794.0" y="1110.0" name="top"/>
  <outline>
    <contour>
      <point x="34.45454545454545" y="0.0" type="line"/>
      <point x="408.6363636363636" y="0.0" type="line"/>
      <point x="408.6363636363636" y="54.18181818181819" type="line"/>
      <point x="289.1818181818182" y="79.72727272727272" type="line"/>
      <point x="289.1818181818182" y="832.9090909090909" type="line"/>
      <point x="368.8181818181818" y="919.7272727272727"/>
      <point x="468.1818181818182" y="967.5454545454545"/>
      <point x="550.8181818181819" y="967.5454545454545" type="curve" smooth="yes"/>
      <point x="695.4545454545455" y="967.5454545454545"/>
      <point x="725.0" y="849.3636363636364"/>
      <point x="725.0" y="655.2727272727273" type="curve" smooth="yes"/>
      <point x="725.0" y="79.72727272727272" type="line"/>
      <point x="612.7272727272727" y="54.18181818181819" type="line"/>
      <point x="612.7272727272727" y="0.0" type="line"/>
      <point x="979.5454545454545" y="0.0" type="line"/>
      <point x="979.5454545454545" y="54.18181818181819" type="line"/>
      <point x="869.0" y="79.72727272727272" type="line"/>
      <point x="869.0" y="652.0" type="line" smooth="yes"/>
      <point x="869.0" y="715.5454545454545"/>
      <point x="862.9090909090909" y="801.5454545454545"/>
      <point x="853.0" y="843.9090909090909" type="curve"/>
      <point x="940.3636363636364" y="934.3636363636364"/>
      <point x="1040.6363636363637" y="967.1818181818181"/>
      <point x="1123.3636363636363" y="967.1818181818181" type="curve" smooth="yes"/>
      <point x="1267.2727272727273" y="967.1818181818181"/>
      <point x="1297.1818181818182" y="847.4545454545455"/>
      <point x="1297.1818181818182" y="651.9090909090909" type="curve" smooth="yes"/>
      <point x="1297.1818181818182" y="79.72727272727272" type="line"/>
      <point x="1185.5454545454545" y="54.18181818181819" type="line"/>
      <point x="1185.5454545454545" y="0.0" type="line"/>
      <point x="1553.4545454545455" y="0.0" type="line"/>
      <point x="1553.4545454545455" y="54.18181818181819" type="line"/>
      <point x="1441.1818181818182" y="79.72727272727272" type="line"/>
      <point x="1441.1818181818182" y="653.4545454545455" type="line" smooth="yes"/>
      <point x="1441.1818181818182" y="891.1818181818181"/>
      <point x="1400.4545454545455" y="1066.2727272727273"/>
      <point x="1171.4545454545455" y="1066.2727272727273" type="curve" smooth="yes"/>
      <point x="1058.7272727272727" y="1066.2727272727273"/>
      <point x="909.7272727272727" y="985.0"/>
      <point x="844.9090909090909" y="890.1818181818182" type="curve"/>
      <point x="806.9090909090909" y="1011.9090909090909"/>
      <point x="729.2727272727273" y="1066.6363636363637"/>
      <point x="604.1818181818181" y="1066.6363636363637" type="curve" smooth="yes"/>
      <point x="474.0909090909091" y="1066.6363636363637"/>
      <point x="338.1818181818182" y="970.3636363636364"/>
      <point x="281.90909090909093" y="880.8181818181818" type="curve"/>
      <point x="283.0" y="1035.8181818181818" type="line"/>
      <point x="258.72727272727275" y="1055.090909090909" type="line"/>
      <point x="223.36363636363637" y="1055.090909090909" type="line"/>
      <point x="19.090909090909093" y="1010.3636363636364" type="line"/>
      <point x="19.090909090909093" y="961.1818181818181" type="line"/>
      <point x="146.1818181818182" y="926.5454545454545" type="line"/>
      <point x="146.1818181818182" y="79.72727272727272" type="line"/>
      <point x="34.45454545454545" y="54.18181818181819" type="line"/>
    </contour>
  </outline>
</glyph>
<glyph name="n" format="2">
  <advance width="1002.0"/>
  <unicode hex="006E"/>
  <anchor x="517.0909090909091" y="0.0" name="bottom"/>
  <anchor x="490.09090909090907" y="1110.0" name="top"/>
  <outline>
    <contour>
      <point x="146.1818181818182" y="79.36363636363636" type="line"/>
      <point x="34.45454545454545" y="53.81818181818182" type="line"/>
      <point x="34.45454545454545" y="0.0" type="line"/>
      <point x="408.6363636363636" y="0.0" type="line"/>
      <point x="408.6363636363636" y="53.81818181818182" type="line"/>
      <point x="289.1818181818182" y="79.36363636363636" type="line"/>
      <point x="289.1818181818182" y="832.1818181818181" type="line"/>
      <point x="368.8181818181818" y="919.7272727272727"/>
      <point x="464.0" y="967.5454545454545"/>
      <point x="551.7272727272727" y="967.5454545454545" type="curve" smooth="yes"/>
      <point x="697.0" y="967.5454545454545"/>
      <point x="726.9090909090909" y="850.6363636363636"/>
      <point x="726.9090909090909" y="655.0909090909091" type="curve" smooth="yes"/>
      <point x="726.9090909090909" y="78.63636363636364" type="line"/>
      <point x="614.6363636363636" y="53.81818181818182" type="line"/>
      <point x="614.6363636363636" y="0.0" type="line"/>
      <point x="982.5454545454545" y="0.0" type="line"/>
      <point x="982.5454545454545" y="53.81818181818182" type="line"/>
      <point x="870.9090909090909" y="78.63636363636364" type="line"/>
      <point x="870.9090909090909" y="651.6363636363636" type="line" smooth="yes"/>
      <point x="870.9090909090909" y="894.3636363636364"/>
      <point x="830.5454545454545" y="1066.6363636363637"/>
      <point x="599.9090909090909" y="1066.6363636363637" type="curve" smooth="yes"/>
      <point x="475.3636363636364" y="1066.6363636363637"/>
      <point x="338.1818181818182" y="970.3636363636364"/>
      <point x="282.27272727272725" y="880.4545454545455" type="curve"/>
      <point x="283.0" y="952.2727272727273" type="line"/>
      <point x="283.0" y="1035.8181818181818" type="line"/>
      <point x="259.8181818181818" y="1055.090909090909" type="line"/>
      <point x="224.9090909090909" y="1055.090909090909" type="line"/>
      <point x="19.090909090909093" y="1010.3636363636364" type="line"/>
      <point x="19.090909090909093" y="961.1818181818181" type="line"/>
      <point x="146.1818181818182" y="926.5454545454545" type="line"/>
    </contour>
  </outline>
</glyph>
<glyph name="o" format="2">
  <advance width="921.3636363636364"/>
  <unicode hex="006F"/>
  <anchor x="461.0" y="0.0" name="bottom"/>
  <anchor x="461.0" y="524.5454545454545" name="center"/>
  <anchor x="529.5454545454545" y="10.0" name="ogonek"/>
  <anchor x="460.3636363636364" y="1110.0" name="top"/>
  <anchor x="665.5454545454545" y="1043.1818181818182" name="topright"/>
  <outline>
    <contour>
      <point x="47.0" y="516.1818181818181" type="curve" smooth="yes"/>
      <point x="47.0" y="213.36363636363637"/>
      <point x="166.63636363636363" y="-22.0"/>
      <point x="443.72727272727275" y="-22.0" type="curve" smooth="yes"/>
      <point x="649.0" y="-22.0"/>
      <point x="874.3636363636364" y="164.0"/>
      <point x="874.3636363636364" y="538.8181818181819" type="curve" smooth="yes"/>
      <point x="874.3636363636364" y="842.2727272727273"/>
      <point x="750.9090909090909" y="1075.7272727272727"/>
      <point x="479.54545454545456" y="1075.7272727272727" type="curve" smooth="yes"/>
      <point x="268.54545454545456" y="1075.7272727272727"/>
      <point x="47.0" y="891.6363636363636"/>
    </contour>
    <contour>
      <point x="452.72727272727275" y="47.63636363636364" type="curve" smooth="yes"/>
      <point x="270.9090909090909" y="47.63636363636364"/>
      <point x="203.54545454545456" y="283.27272727272725"/>
      <point x="203.54545454545456" y="534.5454545454545" type="curve" smooth="yes"/>
      <point x="203.54545454545456" y="842.0909090909091"/>
      <point x="301.6363636363636" y="1006.0909090909091"/>
      <point x="472.54545454545456" y="1006.0909090909091" type="curve" smooth="yes"/>
      <point x="649.0" y="1006.0909090909091"/>
      <point x="717.8181818181819" y="769.0"/>
      <point x="717.8181818181819" y="520.4545454545455" type="curve" smooth="yes"/>
      <point x="717.8181818181819" y="214.27272727272728"/>
      <point x="615.9090909090909" y="47.63636363636364"/>
    </contour>
  </outline>
</glyph>
<glyph name="p" format="2">
  <advance width="968.0"/>
  <unicode hex="0070"/>
  <anchor x="576.0" y="1110.0" name="top"/>
  <outline>
    <contour>
      <point x="918.1818181818182" y="565.9090909090909" type="curve" smooth="yes"/>
      <point x="917.5454545454545" y="901.1818181818182"/>
      <point x="764.8181818181819" y="1072.5454545454545"/>
      <point x="557.4545454545455" y="1072.5454545454545" type="curve" smooth="yes"/>
      <point x="392.54545454545456" y="1072.5454545454545"/>
      <point x="308.45454545454544" y="982.3636363636364"/>
      <point x="272.1818181818182" y="907.4545454545455" type="curve"/>
      <point x="272.1818181818182" y="1035.1818181818182" type="line"/>
      <point x="248.9090909090909" y="1055.090909090909" type="line"/>
      <point x="225.1818181818182" y="1055.090909090909" type="line"/>
      <point x="16.90909090909091" y="1010.3636363636364" type="line"/>
      <point x="16.90909090909091" y="960.4545454545455" type="line"/>
      <point x="137.27272727272728" y="925.8181818181819" type="line"/>
      <point x="137.27272727272728" y="-375.3636363636364" type="line"/>
      <point x="22.727272727272727" y="-402.3636363636364" type="line"/>
      <point x="22.727272727272727" y="-457.27272727272725" type="line"/>
      <point x="445.45454545454544" y="-457.27272727272725" type="line"/>
      <point x="445.45454545454544" y="-402.3636363636364" type="line"/>
      <point x="278.0" y="-375.3636363636364" type="line"/>
      <point x="278.0" y="-160.0" type="line"/>
      <point x="276.0909090909091" y="26.545454545454547" type="line"/>
      <point x="315.6363636363636" y="3.3636363636363633"/>
      <point x="374.3636363636364" y="-23.90909090909091"/>
      <point x="450.1818181818182" y="-23.90909090909091" type="curve" smooth="yes"/>
      <point x="732.7272727272727" y="-23.90909090909091"/>
      <point x="918.8181818181818" y="235.0"/>
    </contour>
    <contour>
      <point x="519.0909090909091" y="986.1818181818181" type="curve" smooth="yes"/>
      <point x="666.6363636363636" y="986.1818181818181"/>
      <point x="762.8181818181818" y="834.9090909090909"/>
      <point x="763.4545454545455" y="557.2727272727273" type="curve" smooth="yes"/>
      <point x="764.0909090909091" y="223.8181818181818"/>
      <point x="641.5454545454545" y="49.36363636363636"/>
      <point x="458.8181818181818" y="49.36363636363636" type="curve" smooth="yes"/>
      <point x="368.9090909090909" y="49.36363636363636"/>
      <point x="308.3636363636364" y="75.54545454545455"/>
      <point x="278.0" y="122.81818181818181" type="curve"/>
      <point x="278.0" y="840.4545454545455" type="line"/>
      <point x="315.6363636363636" y="902.4545454545455"/>
      <point x="387.45454545454544" y="986.1818181818181"/>
    </contour>
  </outline>
</glyph>
<glyph name="q" format="2">
  <advance width="933.6363636363636"/>
  <unicode hex="0071"/>
  <outline>
    <contour>
      <point x="520.5454545454545" y="-457.27272727272725" type="line"/>
      <point x="960.0" y="-457.27272727272725" type="line"/>
      <point x="960.0" y="-403.90909090909093" type="line"/>
      <point x="839.0909090909091" y="-377.54545454545456" type="line"/>
      <point x="839.0909090909091" y="1040.2727272727273" type="line"/>
      <point x="809.5454545454545" y="1063.3636363636363" type="line"/>
      <point x="800.5454545454545" y="1063.3636363636363" type="line"/>
      <point x="725.9090909090909" y="1016.2727272727273" type="line"/>
      <point x="665.9090909090909" y="1052.4545454545455"/>
      <point x="588.6363636363636" y="1073.1818181818182"/>
      <point x="507.0" y="1073.1818181818182" type="curve" smooth="yes"/>
      <point x="231.0" y="1073.1818181818182"/>
      <point x="51.72727272727273" y="833.9090909090909"/>
      <point x="51.72727272727273" y="502.90909090909093" type="curve" smooth="yes"/>
      <point x="51.72727272727273" y="154.63636363636363"/>
      <point x="185.0" y="-20.727272727272727"/>
      <point x="407.09090909090907" y="-20.727272727272727" type="curve" smooth="yes"/>
      <point x="551.0909090909091" y="-20.727272727272727"/>
      <point x="653.0909090909091" y="76.36363636363636"/>
      <point x="698.3636363636364" y="152.72727272727272" type="curve"/>
      <point x="693.6363636363636" y="-46.0" type="line"/>
      <point x="693.6363636363636" y="-377.54545454545456" type="line"/>
      <point x="520.5454545454545" y="-403.90909090909093" type="line"/>
    </contour>
    <contour>
      <point x="443.1818181818182" y="69.81818181818181" type="curve" smooth="yes"/>
      <point x="279.0" y="69.81818181818181"/>
      <point x="206.8181818181818" y="220.27272727272728"/>
      <point x="206.8181818181818" y="514.7272727272727" type="curve" smooth="yes"/>
      <point x="206.8181818181818" y="844.0909090909091"/>
      <point x="327.0909090909091" y="1005.0"/>
      <point x="503.9090909090909" y="1005.0" type="curve" smooth="yes"/>
      <point x="588.0" y="1005.0"/>
      <point x="661.0909090909091" y="964.0909090909091"/>
      <point x="692.9090909090909" y="917.0909090909091" type="curve"/>
      <point x="692.9090909090909" y="205.0909090909091" type="line"/>
      <point x="656.5454545454545" y="155.9090909090909"/>
      <point x="572.5454545454545" y="69.81818181818181"/>
    </contour>
  </outline>
</glyph>
<glyph name="r" format="2">
  <advance width="661.1818181818182"/>
  <unicode hex="0072"/>
  <anchor x="228.0909090909091" y="0.0" name="bottom"/>
  <anchor x="384.1818181818182" y="1110.0" name="top"/>
  <outline>
    <contour>
      <point x="25.636363636363637" y="0.0" type="line"/>
      <point x="477.3636363636364" y="0.0" type="line"/>
      <point x="477.3636363636364" y="52.72727272727273" type="line"/>
      <point x="302.45454545454544" y="78.27272727272728" type="line"/>
      <point x="302.45454545454544" y="767.0" type="line"/>
      <point x="383.54545454545456" y="869.6363636363636"/>
      <point x="456.6363636363636" y="917.8181818181819"/>
      <point x="564.3636363636364" y="917.8181818181819" type="curve" smooth="yes"/>
      <point x="595.6363636363636" y="917.8181818181819"/>
      <point x="620.3636363636364" y="911.5454545454545"/>
      <point x="630.2727272727273" y="906.1818181818181" type="curve"/>
      <point x="630.2727272727273" y="1050.6363636363637" type="line"/>
      <point x="618.1818181818182" y="1054.6363636363637"/>
      <point x="604.0" y="1057.3636363636363"/>
      <point x="580.4545454545455" y="1057.3636363636363" type="curve" smooth="yes"/>
      <point x="420.45454545454544" y="1057.3636363636363"/>
      <point x="312.1818181818182" y="890.0"/>
      <point x="293.9090909090909" y="808.0" type="curve"/>
      <point x="290.54545454545456" y="811.8181818181818" type="line"/>
      <point x="295.1818181818182" y="972.0" type="line"/>
      <point x="295.8181818181818" y="1035.8181818181818" type="line"/>
      <point x="272.45454545454544" y="1055.090909090909" type="line"/>
      <point x="239.1818181818182" y="1055.090909090909" type="line"/>
      <point x="22.727272727272727" y="1010.3636363636364" type="line"/>
      <point x="22.727272727272727" y="960.4545454545455" type="line"/>
      <point x="158.9090909090909" y="925.8181818181819" type="line"/>
      <point x="158.9090909090909" y="77.54545454545455" type="line"/>
      <point x="25.636363636363637" y="53.45454545454545" type="line"/>
    </contour>
  </outline>
</glyph>
<glyph name="s" format="2">
  <advance width="777.0909090909091"/>
  <unicode hex="0073"/>
  <anchor x="386.45454545454544" y="0.0" name="bottom"/>
  <anchor x="411.8181818181818" y="1110.0" name="top"/>
  <outline>
    <contour>
      <point x="155.0" y="297.45454545454544" type="line"/>
      <point x="70.36363636363636" y="297.45454545454544" type="line"/>
      <point x="70.36363636363636" y="57.54545454545455" type="line"/>
      <point x="125.54545454545455" y="25.454545454545453"/>
      <point x="257.72727272727275" y="-22.0"/>
      <point x="375.54545454545456" y="-22.0" type="curve" smooth="yes"/>
      <point x="581.9090909090909" y="-22.0"/>
      <point x="713.0909090909091" y="89.9090909090909"/>
      <point x="713.0909090909091" y="279.72727272727275" type="curve" smooth="yes"/>
      <point x="713.0909090909091" y="449.54545454545456"/>
      <point x="564.2727272727273" y="516.8181818181819"/>
      <point x="430.45454545454544" y="585.9090909090909" type="curve" smooth="yes"/>
      <point x="307.6363636363636" y="650.0"/>
      <point x="210.0909090909091" y="693.1818181818181"/>
      <point x="210.0909090909091" y="836.2727272727273" type="curve" smooth="yes"/>
      <point x="210.0909090909091" y="928.4545454545455"/>
      <point x="278.3636363636364" y="1012.8181818181819"/>
      <point x="397.0" y="1012.4545454545455" type="curve" smooth="yes"/>
      <point x="487.1818181818182" y="1012.0909090909091"/>
      <point x="536.0909090909091" y="959.0"/>
      <point x="550.1818181818181" y="926.2727272727273" type="curve"/>
      <point x="582.9090909090909" y="787.9090909090909" type="line"/>
      <point x="663.0" y="787.9090909090909" type="line"/>
      <point x="663.0" y="1013.4545454545455" type="line"/>
      <point x="624.2727272727273" y="1028.8181818181818"/>
      <point x="546.0909090909091" y="1073.5454545454545"/>
      <point x="406.72727272727275" y="1073.5454545454545" type="curve" smooth="yes"/>
      <point x="236.0" y="1073.5454545454545"/>
      <point x="86.45454545454545" y="970.3636363636364"/>
      <point x="86.45454545454545" y="802.6363636363636" type="curve" smooth="yes"/>
      <point x="86.45454545454545" y="645.0909090909091"/>
      <point x="167.27272727272728" y="559.5454545454545"/>
      <point x="335.54545454545456" y="478.3636363636364" type="curve" smooth="yes"/>
      <point x="499.0909090909091" y="399.54545454545456"/>
      <point x="587.4545454545455" y="348.6363636363636"/>
      <point x="587.4545454545455" y="236.0909090909091" type="curve" smooth="yes"/>
      <point x="587.4545454545455" y="133.1818181818182"/>
      <point x="526.2727272727273" y="43.0"/>
      <point x="387.6363636363636" y="43.0" type="curve" smooth="yes"/>
      <point x="284.45454545454544" y="43.0"/>
      <point x="204.8181818181818" y="106.0909090909091"/>
      <point x="182.72727272727272" y="146.54545454545453" type="curve"/>
    </contour>
  </outline>
</glyph>
<glyph name="t" format="2">
  <advance width="569.3636363636364"/>
  <unicode hex="0074"/>
  <anchor x="322.6363636363636" y="0.0" name="bottom"/>
  <anchor x="233.0909090909091" y="563.2727272727273" name="center"/>
  <anchor x="262.6363636363636" y="1353.6363636363637" name="top"/>
  <anchor x="477.8181818181818" y="1110.0" name="topright"/>
  <outline>
    <contour>
      <point x="315.54545454545456" y="-15.454545454545455" type="curve" smooth="yes"/>
      <point x="407.9090909090909" y="-15.454545454545455"/>
      <point x="501.27272727272725" y="31.090909090909093"/>
      <point x="549.7272727272727" y="73.18181818181819" type="curve"/>
      <point x="530.1818181818182" y="124.9090909090909" type="line"/>
      <point x="487.45454545454544" y="100.36363636363637"/>
      <point x="422.1818181818182" y="79.27272727272728"/>
      <point x="377.72727272727275" y="79.27272727272728" type="curve" smooth="yes"/>
      <point x="317.0" y="79.27272727272728"/>
      <point x="297.90909090909093" y="109.27272727272728"/>
      <point x="297.90909090909093" y="232.63636363636363" type="curve" smooth="yes"/>
      <point x="297.90909090909093" y="960.4545454545455" type="line"/>
      <point x="518.4545454545455" y="960.4545454545455" type="line"/>
      <point x="518.4545454545455" y="1043.1818181818182" type="line"/>
      <point x="298.54545454545456" y="1043.1818181818182" type="line"/>
      <point x="298.1818181818182" y="1339.909090909091" type="line"/>
      <point x="227.9090909090909" y="1339.909090909091" type="line"/>
      <point x="213.54545454545453" y="1267.6363636363637"/>
      <point x="182.0" y="1148.3636363636363"/>
      <point x="166.0" y="1101.909090909091" type="curve" smooth="yes"/>
      <point x="154.36363636363637" y="1069.2727272727273"/>
      <point x="143.36363636363637" y="1052.2727272727273"/>
      <point x="119.36363636363636" y="1040.2727272727273" type="curve" smooth="yes"/>
      <point x="101.45454545454545" y="1031.5454545454545"/>
      <point x="44.72727272727273" y="1019.1818181818181"/>
      <point x="21.81818181818182" y="1012.7272727272727" type="curve"/>
      <point x="21.81818181818182" y="960.4545454545455" type="line"/>
      <point x="154.27272727272728" y="960.4545454545455" type="line"/>
      <point x="154.27272727272728" y="175.0909090909091" type="line" smooth="yes"/>
      <point x="154.27272727272728" y="30.727272727272727"/>
      <point x="214.36363636363637" y="-15.454545454545455"/>
    </contour>
  </outline>
</glyph>
<glyph name="u" format="2">
  <advance width="998.0909090909091"/>
  <unicode hex="0075"/>
  <anchor x="535.8181818181819" y="0.0" name="bottom"/>
  <anchor x="871.4545454545455" y="20.0" name="ogonek"/>
  <anchor x="488.72727272727275" y="1110.0" name="top"/>
  <anchor x="788.5454545454545" y="1046.3636363636363" name="topright"/>
  <outline>
    <contour>
      <point x="810.6363636363636" y="-16.727272727272727" type="curve" smooth="yes"/>
      <point x="868.6363636363636" y="-16.727272727272727"/>
      <point x="919.5454545454545" y="0.0"/>
      <point x="960.0909090909091" y="13.272727272727273" type="curve"/>
      <point x="960.8181818181819" y="61.90909090909091" type="line"/>
      <point x="852.1818181818181" y="61.90909090909091" type="line"/>
      <point x="852.1818181818181" y="1038.7272727272727" type="line"/>
      <point x="827.0909090909091" y="1055.090909090909" type="line"/>
      <point x="803.4545454545455" y="1055.090909090909" type="line"/>
      <point x="583.6363636363636" y="1012.5454545454545" type="line"/>
      <point x="583.6363636363636" y="968.4545454545455" type="line"/>
      <point x="710.4545454545455" y="933.8181818181818" type="line"/>
      <point x="710.4545454545455" y="209.0" type="line"/>
      <point x="653.7272727272727" y="147.36363636363637"/>
      <point x="550.0" y="76.9090909090909"/>
      <point x="440.8181818181818" y="76.9090909090909" type="curve" smooth="yes"/>
      <point x="308.27272727272725" y="76.9090909090909"/>
      <point x="278.45454545454544" y="166.8181818181818"/>
      <point x="278.45454545454544" y="334.9090909090909" type="curve" smooth="yes"/>
      <point x="278.45454545454544" y="1038.7272727272727" type="line"/>
      <point x="256.6363636363636" y="1055.090909090909" type="line"/>
      <point x="231.45454545454544" y="1055.090909090909" type="line"/>
      <point x="19.090909090909093" y="1012.5454545454545" type="line"/>
      <point x="19.090909090909093" y="968.4545454545455" type="line"/>
      <point x="136.0909090909091" y="933.8181818181818" type="line"/>
      <point x="136.72727272727272" y="322.3636363636364" type="line" smooth="yes"/>
      <point x="136.72727272727272" y="95.36363636363636"/>
      <point x="203.0909090909091" y="-20.727272727272727"/>
      <point x="410.09090909090907" y="-20.727272727272727" type="curve" smooth="yes"/>
      <point x="552.9090909090909" y="-20.727272727272727"/>
      <point x="659.6363636363636" y="78.54545454545455"/>
      <point x="715.8181818181819" y="151.8181818181818" type="curve"/>
      <point x="715.8181818181819" y="66.0" type="line" smooth="yes"/>
      <point x="715.8181818181819" y="4.363636363636363"/>
      <point x="751.8181818181819" y="-16.727272727272727"/>
    </contour>
  </outline>
</glyph>
<glyph name="v" format="2">
  <advance width="873.0909090909091"/>
  <unicode hex="0076"/>
  <outline>
    <contour>
      <point x="-13.454545454545455" y="991.4545454545455" type="line"/>
      <point x="61.72727272727273" y="964.8181818181819" type="line"/>
      <point x="360.54545454545456" y="-5.818181818181818" type="line"/>
      <point x="492.72727272727275" y="-5.818181818181818" type="line"/>
      <point x="806.2727272727273" y="964.8181818181819" type="line"/>
      <point x="884.7272727272727" y="991.4545454545455" type="line"/>
      <point x="884.7272727272727" y="1043.1818181818182" type="line"/>
      <point x="598.6363636363636" y="1043.1818181818182" type="line"/>
      <point x="598.6363636363636" y="991.4545454545455" type="line"/>
      <point x="700.0909090909091" y="964.8181818181819" type="line"/>
      <point x="499.6363636363636" y="261.4545454545455" type="line"/>
      <point x="457.0909090909091" y="79.0" type="line"/>
      <point x="408.0" y="264.4545454545455" type="line"/>
      <point x="213.54545454545456" y="964.8181818181819" type="line"/>
      <point x="317.1818181818182" y="991.4545454545455" type="line"/>
      <point x="317.1818181818182" y="1043.1818181818182" type="line"/>
      <point x="-13.454545454545455" y="1043.1818181818182" type="line"/>
    </contour>
  </outline>
</glyph>
<glyph name="w" format="2">
  <advance width="1309.090909090909"/>
  <unicode hex="0077"/>
  <anchor x="667.9090909090909" y="0.0" name="bottom"/>
  <anchor x="678.3636363636364" y="1110.0" name="top"/>
  <outline>
    <contour>
      <point x="-36.63636363636363" y="991.0909090909091" type="line"/>
      <point x="43.63636363636364" y="965.1818181818181" type="line"/>
      <point x="298.6363636363636" y="-5.818181818181818" type="line"/>
      <point x="432.3636363636364" y="-5.818181818181818" type="line"/>
      <point x="603.0909090909091" y="674.5454545454545" type="line"/>
      <point x="656.3636363636364" y="931.7272727272727" type="line"/>
      <point x="706.7272727272727" y="674.5454545454545" type="line"/>
      <point x="871.4545454545455" y="-5.818181818181818" type="line"/>
      <point x="1007.7272727272727" y="-5.818181818181818" type="line"/>
      <point x="1271.3636363636365" y="964.4545454545455" type="line"/>
      <point x="1359.1818181818182" y="991.0909090909091" type="line"/>
      <point x="1359.1818181818182" y="1043.909090909091" type="line"/>
      <point x="1071.3636363636363" y="1043.909090909091" type="line"/>
      <point x="1071.3636363636363" y="991.0909090909091" type="line"/>
      <point x="1176.090909090909" y="964.4545454545455" type="line"/>
      <point x="1009.8181818181818" y="275.0909090909091" type="line"/>
      <point x="971.0909090909091" y="71.63636363636364" type="line"/>
      <point x="935.4545454545455" y="255.45454545454547" type="line"/>
      <point x="764.2727272727273" y="1043.909090909091" type="line"/>
      <point x="609.4545454545455" y="1043.909090909091" type="line"/>
      <point x="429.0" y="275.8181818181818" type="line"/>
      <point x="394.54545454545456" y="72.36363636363637" type="line"/>
      <point x="357.1818181818182" y="254.72727272727275" type="line"/>
      <point x="190.63636363636363" y="965.1818181818181" type="line"/>
      <point x="293.72727272727275" y="991.0909090909091" type="line"/>
      <point x="293.72727272727275" y="1043.909090909091" type="line"/>
      <point x="-36.63636363636363" y="1043.909090909091" type="line"/>
    </contour>
  </outline>
</glyph>
<glyph name="x" format="2">
  <advance width="882.7272727272727"/>
  <unicode hex="0078"/>
  <outline>
    <contour>
      <point x="102.18181818181819" y="82.27272727272728" type="line"/>
      <point x="6.2727272727272725" y="54.09090909090909" type="line"/>
      <point x="6.2727272727272725" y="0.0" type="line"/>
      <point x="319.3636363636364" y="0.0" type="line"/>
      <point x="319.3636363636364" y="54.09090909090909" type="line"/>
      <point x="205.0909090909091" y="82.27272727272728" type="line"/>
      <point x="349.6363636363636" y="342.0" type="line"/>
      <point x="410.8181818181818" y="461.8181818181818" type="line"/>
      <point x="479.90909090909093" y="334.9090909090909" type="line"/>
      <point x="628.2727272727273" y="82.27272727272728" type="line"/>
      <point x="516.0" y="54.09090909090909" type="line"/>
      <point x="516.0" y="0.0" type="line"/>
      <point x="882.1818181818181" y="0.0" type="line"/>
      <point x="882.1818181818181" y="54.09090909090909" type="line"/>
      <point x="796.6363636363636" y="81.54545454545455" type="line"/>
      <point x="506.8181818181818" y="546.0909090909091" type="line"/>
      <point x="777.8181818181819" y="960.7272727272727" type="line"/>
      <point x="871.0909090909091" y="991.0909090909091" type="line"/>
      <point x="871.0909090909091" y="1043.1818181818182" type="line"/>
      <point x="575.0909090909091" y="1043.1818181818182" type="line"/>
      <point x="575.0909090909091" y="991.0909090909091" type="line"/>
      <point x="681.5454545454545" y="960.7272727272727" type="line"/>
      <point x="519.9090909090909" y="692.0909090909091" type="line"/>
      <point x="471.45454545454544" y="590.1818181818181" type="line"/>
      <point x="412.6363636363636" y="699.1818181818181" type="line"/>
      <point x="256.72727272727275" y="960.7272727272727" type="line"/>
      <point x="373.27272727272725" y="991.0909090909091" type="line"/>
      <point x="373.27272727272725" y="1043.1818181818182" type="line"/>
      <point x="4.545454545454545" y="1043.1818181818182" type="line"/>
      <point x="4.545454545454545" y="991.0909090909091" type="line"/>
      <point x="91.72727272727272" y="960.7272727272727" type="line"/>
      <point x="376.27272727272725" y="512.8181818181819" type="line"/>
    </contour>
  </outline>
</glyph>
<glyph name="y" format="2">
  <advance width="901.5454545454545"/>
  <unicode hex="0079"/>
  <anchor x="719.8181818181818" y="0.0" name="bottom"/>
  <anchor x="465.0909090909091" y="1110.0" name="top"/>
  <outline>
    <contour>
      <point x="140.9090909090909" y="-499.90909090909093" type="curve" smooth="yes"/>
      <point x="320.6363636363636" y="-499.90909090909093"/>
      <point x="391.72727272727275" y="-355.3636363636364"/>
      <point x="514.1818181818182" y="-32.0" type="curve"/>
      <point x="546.2727272727273" y="52.72727272727273"/>
      <point x="673.4545454545455" y="457.9090909090909"/>
      <point x="829.7272727272727" y="970.6363636363636" type="curve"/>
      <point x="919.0" y="994.6363636363636" type="line"/>
      <point x="919.0" y="1046.3636363636363" type="line"/>
      <point x="602.3636363636364" y="1046.3636363636363" type="line"/>
      <point x="602.3636363636364" y="994.6363636363636" type="line"/>
      <point x="710.8181818181819" y="970.6363636363636" type="line"/>
      <point x="524.1818181818182" y="263.8181818181818" type="line"/>
      <point x="461.6363636363636" y="39.09090909090909" type="line"/>
      <point x="409.0909090909091" y="268.1818181818182" type="line"/>
      <point x="214.36363636363637" y="970.6363636363636" type="line"/>
      <point x="333.1818181818182" y="994.0" type="line"/>
      <point x="333.1818181818182" y="1046.3636363636363" type="line"/>
      <point x="-19.18181818181818" y="1046.3636363636363" type="line"/>
      <point x="-19.18181818181818" y="994.6363636363636" type="line"/>
      <point x="57.81818181818182" y="975.0" type="line"/>
      <point x="360.3636363636364" y="0.0" type="line"/>
      <point x="436.0" y="0.0" type="line"/>
      <point x="374.0" y="-217.1818181818182"/>
      <point x="282.0909090909091" y="-373.54545454545456"/>
      <point x="144.1818181818182" y="-373.54545454545456" type="curve" smooth="yes"/>
      <point x="117.45454545454545" y="-373.54545454545456"/>
      <point x="77.81818181818181" y="-369.90909090909093"/>
      <point x="62.18181818181819" y="-361.90909090909093" type="curve"/>
      <point x="62.18181818181819" y="-485.90909090909093" type="line"/>
      <point x="77.81818181818181" y="-493.90909090909093"/>
      <point x="112.72727272727273" y="-499.90909090909093"/>
    </contour>
  </outline>
</glyph>
<glyph name="z" format="2">
  <advance width="835.0909090909091"/>
  <unicode hex="007A"/>
  <anchor x="419.72727272727275" y="0.0" name="bottom"/>
  <anchor x="428.3636363636364" y="1110.0" name="top"/>
  <outline>
    <contour>
      <point x="655.8181818181819" y="976.7272727272727" type="line"/>
      <point x="543.0" y="836.5454545454545" type="line"/>
      <point x="38.45454545454545" y="62.0" type="line"/>
      <point x="68.18181818181819" y="0.0" type="line"/>
      <point x="761.4545454545455" y="0.0" type="line"/>
      <point x="800.2727272727273" y="317.72727272727275" type="line"/>
      <point x="726.1818181818182" y="329.72727272727275" type="line"/>
      <point x="633.9090909090909" y="88.81818181818181" type="line"/>
      <point x="174.63636363636363" y="66.36363636363637" type="line"/>
      <point x="299.0" y="221.0909090909091" type="line"/>
      <point x="794.0909090909091" y="981.9090909090909" type="line"/>
      <point x="766.0" y="1043.1818181818182" type="line"/>
      <point x="104.36363636363636" y="1043.1818181818182" type="line"/>
      <point x="104.36363636363636" y="737.1818181818182" type="line"/>
      <point x="179.36363636363637" y="737.1818181818182" type="line"/>
      <point x="224.0909090909091" y="956.3636363636364" type="line"/>
    </contour>
  </outline>
</glyph>
<glyph name="braceleft" format="2">
  <advance width="841.6363636363636"/>
  <unicode hex="007B"/>
  <outline>
    <contour>
      <point x="540.7272727272727" y="-272.0" type="curve" smooth="yes"/>
      <point x="602.4545454545455" y="-272.0"/>
      <point x="661.7272727272727" y="-258.0"/>
      <point x="722.3636363636364" y="-238.0" type="curve"/>
      <point x="722.3636363636364" y="-180.27272727272728" type="line"/>
      <point x="709.6363636363636" y="-184.27272727272728"/>
      <point x="625.3636363636364" y="-188.27272727272728"/>
      <point x="609.2727272727273" y="-188.27272727272728" type="curve" smooth="yes"/>
      <point x="501.72727272727275" y="-188.27272727272728"/>
      <point x="389.3636363636364" y="-156.9090909090909"/>
      <point x="389.3636363636364" y="6.0" type="curve" smooth="yes"/>
      <point x="389.3636363636364" y="136.0"/>
      <point x="444.45454545454544" y="320.3636363636364"/>
      <point x="444.45454545454544" y="454.8181818181818" type="curve" smooth="yes"/>
      <point x="444.45454545454544" y="580.9090909090909"/>
      <point x="336.45454545454544" y="650.8181818181819"/>
      <point x="207.72727272727272" y="672.0" type="curve"/>
      <point x="336.45454545454544" y="695.1818181818181"/>
      <point x="444.45454545454544" y="752.5454545454545"/>
      <point x="444.45454545454544" y="881.1818181818181" type="curve" smooth="yes"/>
      <point x="444.45454545454544" y="1015.6363636363636"/>
      <point x="389.3636363636364" y="1202.0"/>
      <point x="389.3636363636364" y="1332.0" type="curve" smooth="yes"/>
      <point x="389.3636363636364" y="1490.909090909091"/>
      <point x="503.72727272727275" y="1524.2727272727273"/>
      <point x="609.2727272727273" y="1524.2727272727273" type="curve" smooth="yes"/>
      <point x="622.0" y="1524.2727272727273"/>
      <point x="709.6363636363636" y="1522.2727272727273"/>
      <point x="722.3636363636364" y="1518.2727272727273" type="curve"/>
      <point x="722.3636363636364" y="1576.0" type="line"/>
      <point x="657.2727272727273" y="1596.0"/>
      <point x="610.0909090909091" y="1608.0"/>
      <point x="546.4545454545455" y="1608.0" type="curve" smooth="yes"/>
      <point x="357.6363636363636" y="1608.0"/>
      <point x="258.0" y="1522.0"/>
      <point x="258.0" y="1360.0" type="curve" smooth="yes"/>
      <point x="258.0" y="1174.0"/>
      <point x="343.45454545454544" y="1040.0"/>
      <point x="343.45454545454544" y="888.0" type="curve" smooth="yes"/>
      <point x="343.45454545454544" y="774.1818181818181"/>
      <point x="285.1818181818182" y="720.5454545454545"/>
      <point x="70.9090909090909" y="722.5454545454545" type="curve"/>
      <point x="70.9090909090909" y="632.1818181818181" type="line"/>
      <point x="285.1818181818182" y="634.1818181818181"/>
      <point x="343.45454545454544" y="566.3636363636364"/>
      <point x="343.45454545454544" y="450.0" type="curve" smooth="yes"/>
      <point x="343.45454545454544" y="298.0"/>
      <point x="258.0" y="164.0"/>
      <point x="258.0" y="-24.0" type="curve" smooth="yes"/>
      <point x="258.0" y="-184.0"/>
      <point x="359.54545454545456" y="-272.0"/>
    </contour>
  </outline>
</glyph>
<glyph name="bar" format="2">
  <advance width="750.9090909090909"/>
  <unicode hex="007C"/>
  <outline>
    <contour>
      <point x="429.72727272727275" y="1738.0" type="line"/>
      <point x="321.54545454545456" y="1738.0" type="line"/>
      <point x="321.54545454545456" y="-182.0" type="line"/>
      <point x="429.72727272727275" y="-182.0" type="line"/>
    </contour>
  </outline>
</glyph>
<glyph name="asciitilde" format="2">
  <advance width="1140.3636363636363"/>
  <unicode hex="007E"/>
  <outline>
    <contour>
      <point x="154.54545454545456" y="543.4545454545455" type="curve"/>
      <point x="198.54545454545456" y="479.54545454545456" type="line"/>
      <point x="241.72727272727272" y="545.0909090909091"/>
      <point x="310.3636363636364" y="599.4545454545455"/>
      <point x="389.72727272727275" y="599.4545454545455" type="curve" smooth="yes"/>
      <point x="528.4545454545455" y="599.4545454545455"/>
      <point x="561.5454545454545" y="422.72727272727275"/>
      <point x="729.7272727272727" y="422.72727272727275" type="curve" smooth="yes"/>
      <point x="841.0" y="422.72727272727275"/>
      <point x="944.1818181818182" y="497.27272727272725"/>
      <point x="985.8181818181818" y="583.9090909090909" type="curve"/>
      <point x="937.3636363636364" y="651.5454545454545" type="line"/>
      <point x="894.1818181818182" y="586.0"/>
      <point x="823.0" y="527.9090909090909"/>
      <point x="743.0909090909091" y="527.9090909090909" type="curve" smooth="yes"/>
      <point x="608.0" y="527.9090909090909"/>
      <point x="568.7272727272727" y="704.6363636363636"/>
      <point x="408.8181818181818" y="704.6363636363636" type="curve" smooth="yes"/>
      <point x="297.3636363636364" y="704.6363636363636"/>
      <point x="192.9090909090909" y="626.0909090909091"/>
    </contour>
  </outline>
</glyph>
<glyph name="exclamdown" format="2">
  <advance width="403.27272727272725"/>
  <unicode hex="00A1"/>
  <outline>
    <contour>
      <point x="127.45454545454545" y="-285.8181818181818" type="line"/>
      <point x="284.54545454545456" y="-285.8181818181818" type="line"/>
      <point x="239.0" y="1085.909090909091" type="line"/>
      <point x="165.63636363636363" y="1085.909090909091" type="line"/>
    </contour>
    <contour>
      <point x="209.45454545454544" y="1496.0" type="curve" smooth="yes"/>
      <point x="154.72727272727272" y="1496.0"/>
      <point x="104.0909090909091" y="1449.090909090909"/>
      <point x="104.0909090909091" y="1380.6363636363637" type="curve" smooth="yes"/>
      <point x="104.0909090909091" y="1329.6363636363637"/>
      <point x="131.0909090909091" y="1282.7272727272727"/>
      <point x="193.27272727272728" y="1282.7272727272727" type="curve" smooth="yes"/>
      <point x="246.45454545454544" y="1282.7272727272727"/>
      <point x="299.1818181818182" y="1332.3636363636363"/>
      <point x="299.1818181818182" y="1398.090909090909" type="curve" smooth="yes"/>
      <point x="299.1818181818182" y="1457.8181818181818"/>
      <point x="257.27272727272725" y="1496.0"/>
    </contour>
  </outline>
</glyph>
<glyph name="cent" format="2">
  <advance width="928.8181818181819"/>
  <unicode hex="00A2"/>
  <outline>
    <contour>
      <point x="120.63636363636364" y="514.0" type="curve" smooth="yes"/>
      <point x="121.0" y="226.54545454545453"/>
      <point x="248.63636363636363" y="8.363636363636363"/>
      <point x="462.1818181818182" y="-17.90909090909091" type="curve"/>
      <point x="438.6363636363636" y="-252.0" type="line"/>
      <point x="526.8181818181819" y="-252.0" type="line"/>
      <point x="550.7272727272727" y="-21.363636363636363" type="line"/>
      <point x="660.4545454545455" y="-13.545454545454545"/>
      <point x="767.0909090909091" y="38.27272727272727"/>
      <point x="823.3636363636364" y="106.0" type="curve"/>
      <point x="799.0909090909091" y="152.1818181818182" type="line"/>
      <point x="743.6363636363636" y="106.36363636363637"/>
      <point x="656.7272727272727" y="62.09090909090909"/>
      <point x="558.6363636363636" y="62.09090909090909" type="curve" smooth="yes"/>
      <point x="354.54545454545456" y="62.09090909090909"/>
      <point x="258.54545454545456" y="270.90909090909093"/>
      <point x="259.27272727272725" y="550.5454545454545" type="curve" smooth="yes"/>
      <point x="260.0" y="859.8181818181819"/>
      <point x="393.27272727272725" y="1006.5454545454545"/>
      <point x="549.4545454545455" y="1006.5454545454545" type="curve" smooth="yes"/>
      <point x="627.1818181818181" y="1006.5454545454545"/>
      <point x="698.6363636363636" y="977.2727272727273"/>
      <point x="704.4545454545455" y="940.8181818181819" type="curve" smooth="yes"/>
      <point x="733.1818181818181" y="748.5454545454545" type="line"/>
      <point x="806.3636363636364" y="748.5454545454545" type="line"/>
      <point x="813.0" y="1017.3636363636364" type="line"/>
      <point x="780.7272727272727" y="1028.6363636363637"/>
      <point x="704.7272727272727" y="1062.6363636363637"/>
      <point x="619.8181818181819" y="1073.3636363636363" type="curve"/>
      <point x="639.9090909090909" y="1325.8181818181818" type="line"/>
      <point x="550.9090909090909" y="1325.8181818181818" type="line"/>
      <point x="532.8181818181819" y="1074.7272727272727" type="line"/>
      <point x="275.1818181818182" y="1051.2727272727273"/>
      <point x="120.27272727272727" y="825.7272727272727"/>
    </contour>
  </outline>
</glyph>
<glyph name="sterling" format="2">
  <advance width="1252.2727272727273"/>
  <unicode hex="00A3"/>
  <outline>
    <contour>
      <point x="806.3636363636364" y="-14.0" type="curve" smooth="yes"/>
      <point x="1019.0" y="-14.0"/>
      <point x="1156.0" y="157.63636363636363"/>
      <point x="1156.0" y="343.72727272727275" type="curve" smooth="yes"/>
      <point x="1156.0" y="412.6363636363636"/>
      <point x="1137.4545454545455" y="470.72727272727275"/>
      <point x="1120.090909090909" y="495.3636363636364" type="curve"/>
      <point x="956.0909090909091" y="495.3636363636364" type="line"/>
      <point x="983.2727272727273" y="459.72727272727275"/>
      <point x="997.0" y="366.6363636363636"/>
      <point x="997.0" y="292.54545454545456" type="curve" smooth="yes"/>
      <point x="997.0" y="146.1818181818182"/>
      <point x="944.0" y="81.63636363636364"/>
      <point x="810.4545454545455" y="81.63636363636364" type="curve" smooth="yes"/>
      <point x="664.2727272727273" y="81.63636363636364"/>
      <point x="522.0909090909091" y="161.0"/>
      <point x="376.1818181818182" y="173.63636363636363" type="curve"/>
      <point x="425.27272727272725" y="236.27272727272728"/>
      <point x="480.6363636363636" y="360.27272727272725"/>
      <point x="480.6363636363636" y="542.0909090909091" type="curve" smooth="yes"/>
      <point x="480.6363636363636" y="773.6363636363636" type="line"/>
      <point x="747.4545454545455" y="773.6363636363636" type="line"/>
      <point x="747.4545454545455" y="850.3636363636364" type="line"/>
      <point x="480.6363636363636" y="850.3636363636364" type="line"/>
      <point x="480.6363636363636" y="1034.090909090909" type="line" smooth="yes"/>
      <point x="480.6363636363636" y="1321.3636363636363"/>
      <point x="575.7272727272727" y="1430.909090909091"/>
      <point x="701.2727272727273" y="1430.909090909091" type="curve" smooth="yes"/>
      <point x="809.7272727272727" y="1430.909090909091"/>
      <point x="885.5454545454545" y="1347.5454545454545"/>
      <point x="913.8181818181819" y="1296.090909090909" type="curve"/>
      <point x="1012.1818181818181" y="1401.3636363636363" type="line"/>
      <point x="954.8181818181819" y="1459.1818181818182"/>
      <point x="854.3636363636364" y="1502.0"/>
      <point x="747.5454545454545" y="1502.0" type="curve" smooth="yes"/>
      <point x="508.8181818181818" y="1502.0"/>
      <point x="320.3636363636364" y="1295.6363636363637"/>
      <point x="320.3636363636364" y="998.0" type="curve" smooth="yes"/>
      <point x="320.3636363636364" y="850.3636363636364" type="line"/>
      <point x="139.8181818181818" y="850.3636363636364" type="line"/>
      <point x="139.8181818181818" y="773.6363636363636" type="line"/>
      <point x="320.3636363636364" y="773.6363636363636" type="line"/>
      <point x="320.3636363636364" y="527.1818181818181" type="line" smooth="yes"/>
      <point x="320.3636363636364" y="410.45454545454544"/>
      <point x="301.6363636363636" y="239.0909090909091"/>
      <point x="281.0" y="185.27272727272728" type="curve"/>
      <point x="165.54545454545453" y="189.63636363636363"/>
      <point x="75.45454545454545" y="129.0"/>
      <point x="75.45454545454545" y="67.18181818181819" type="curve" smooth="yes"/>
      <point x="75.45454545454545" y="26.18181818181818"/>
      <point x="115.27272727272727" y="0.0"/>
      <point x="162.0" y="0.0" type="curve" smooth="yes"/>
      <point x="225.8181818181818" y="0.0"/>
      <point x="282.90909090909093" y="53.81818181818182"/>
      <point x="327.45454545454544" y="114.0" type="curve"/>
      <point x="481.54545454545456" y="112.0"/>
      <point x="625.6363636363636" y="-14.0"/>
    </contour>
  </outline>
</glyph>
<glyph name="currency" format="2">
  <advance width="1399.090909090909"/>
  <unicode hex="00A4"/>
  <outline>
    <contour>
      <point x="356.54545454545456" y="490.0" type="curve"/>
      <point x="154.54545454545456" y="288.0" type="line"/>
      <point x="254.54545454545456" y="186.0" type="line"/>
      <point x="460.54545454545456" y="390.0" type="line"/>
      <point x="528.5454545454545" y="348.0"/>
      <point x="608.5454545454545" y="322.0"/>
      <point x="696.5454545454545" y="322.0" type="curve" smooth="yes"/>
      <point x="784.5454545454545" y="322.0"/>
      <point x="866.5454545454545" y="350.0"/>
      <point x="934.5454545454545" y="396.0" type="curve"/>
      <point x="1140.5454545454545" y="190.0" type="line"/>
      <point x="1240.5454545454545" y="292.0" type="line"/>
      <point x="1036.5454545454545" y="496.0" type="line"/>
      <point x="1092.5454545454545" y="570.0"/>
      <point x="1126.5454545454545" y="664.0"/>
      <point x="1126.5454545454545" y="764.0" type="curve" smooth="yes"/>
      <point x="1126.5454545454545" y="862.0"/>
      <point x="1094.5454545454545" y="950.0"/>
      <point x="1042.5454545454545" y="1020.0" type="curve"/>
      <point x="1244.5454545454545" y="1222.0" type="line"/>
      <point x="1144.5454545454545" y="1324.0" type="line"/>
      <point x="936.5454545454545" y="1118.0" type="line"/>
      <point x="868.5454545454545" y="1162.0"/>
      <point x="784.5454545454545" y="1188.0"/>
      <point x="696.5454545454545" y="1188.0" type="curve" smooth="yes"/>
      <point x="608.5454545454545" y="1188.0"/>
      <point x="528.5454545454545" y="1160.0"/>
      <point x="462.54545454545456" y="1114.0" type="curve"/>
      <point x="254.54545454545456" y="1322.0" type="line"/>
      <point x="154.54545454545456" y="1220.0" type="line"/>
      <point x="360.54545454545456" y="1012.0" type="line"/>
      <point x="308.54545454545456" y="938.0"/>
      <point x="278.54545454545456" y="844.0"/>
      <point x="278.54545454545456" y="746.0" type="curve" smooth="yes"/>
      <point x="278.54545454545456" y="648.0"/>
      <point x="306.54545454545456" y="560.0"/>
    </contour>
    <contour>
      <point x="696.5454545454545" y="444.0" type="curve" smooth="yes"/>
      <point x="534.5454545454545" y="444.0"/>
      <point x="406.54545454545456" y="578.0"/>
      <point x="406.54545454545456" y="748.0" type="curve" smooth="yes"/>
      <point x="406.54545454545456" y="914.0"/>
      <point x="504.54545454545456" y="1066.0"/>
      <point x="692.5454545454545" y="1066.0" type="curve" smooth="yes"/>
      <point x="854.5454545454545" y="1066.0"/>
      <point x="988.5454545454545" y="920.0"/>
      <point x="988.5454545454545" y="752.0" type="curve" smooth="yes"/>
      <point x="988.5454545454545" y="584.0"/>
      <point x="894.5454545454545" y="444.0"/>
    </contour>
  </outline>
</glyph>
<glyph name="yen" format="2">
  <advance width="1333.2727272727273"/>
  <unicode hex="00A5"/>
  <outline>
    <contour>
      <point x="562.3636363636364" y="777.0909090909091" type="line"/>
      <point x="199.54545454545453" y="777.0909090909091" type="line"/>
      <point x="199.54545454545453" y="708.0" type="line"/>
      <point x="598.3636363636364" y="708.0" type="line"/>
      <point x="598.3636363636364" y="442.54545454545456" type="line"/>
      <point x="199.54545454545453" y="442.54545454545456" type="line"/>
      <point x="199.54545454545453" y="373.45454545454544" type="line"/>
      <point x="598.3636363636364" y="373.45454545454544" type="line"/>
      <point x="598.3636363636364" y="80.18181818181819" type="line"/>
      <point x="396.27272727272725" y="50.54545454545455" type="line"/>
      <point x="396.27272727272725" y="0.0" type="line"/>
      <point x="948.5454545454545" y="0.0" type="line"/>
      <point x="948.5454545454545" y="50.54545454545455" type="line"/>
      <point x="744.7272727272727" y="80.18181818181819" type="line"/>
      <point x="744.7272727272727" y="373.45454545454544" type="line"/>
      <point x="1145.4545454545455" y="373.45454545454544" type="line"/>
      <point x="1145.4545454545455" y="442.54545454545456" type="line"/>
      <point x="744.7272727272727" y="442.54545454545456" type="line"/>
      <point x="744.7272727272727" y="708.0" type="line"/>
      <point x="1145.4545454545455" y="708.0" type="line"/>
      <point x="1145.4545454545455" y="777.0909090909091" type="line"/>
      <point x="768.8181818181819" y="777.0909090909091" type="line"/>
      <point x="1123.7272727272727" y="1416.090909090909" type="line"/>
      <point x="1242.909090909091" y="1436.8181818181818" type="line"/>
      <point x="1242.909090909091" y="1486.0" type="line"/>
      <point x="864.3636363636364" y="1486.0" type="line"/>
      <point x="864.3636363636364" y="1436.8181818181818" type="line"/>
      <point x="1006.2727272727273" y="1416.090909090909" type="line"/>
      <point x="772.1818181818181" y="963.2727272727273" type="line"/>
      <point x="693.0" y="800.7272727272727" type="line"/>
      <point x="620.8181818181819" y="959.2727272727273" type="line"/>
      <point x="379.8181818181818" y="1416.8181818181818" type="line"/>
      <point x="524.6363636363636" y="1436.8181818181818" type="line"/>
      <point x="524.6363636363636" y="1486.0" type="line"/>
      <point x="90.36363636363636" y="1486.0" type="line"/>
      <point x="90.36363636363636" y="1436.8181818181818" type="line"/>
      <point x="200.63636363636363" y="1415.3636363636363" type="line"/>
    </contour>
  </outline>
</glyph>
<glyph name="section" format="2">
  <advance width="1191.909090909091"/>
  <unicode hex="00A7"/>
  <outline>
    <contour>
      <point x="276.1818181818182" y="240.63636363636363" type="line"/>
      <point x="184.8181818181818" y="240.63636363636363" type="line"/>
      <point x="167.72727272727272" y="-106.0" type="line"/>
      <point x="226.0909090909091" y="-112.0"/>
      <point x="344.0" y="-198.0"/>
      <point x="572.0" y="-198.0" type="curve" smooth="yes"/>
      <point x="876.1818181818181" y="-198.0"/>
      <point x="1013.1818181818181" y="-41.27272727272727"/>
      <point x="1013.1818181818181" y="128.0909090909091" type="curve" smooth="yes"/>
      <point x="1013.1818181818181" y="225.27272727272728"/>
      <point x="968.8181818181819" y="308.27272727272725"/>
      <point x="894.3636363636364" y="368.1818181818182" type="curve"/>
      <point x="987.6363636363636" y="440.27272727272725"/>
      <point x="1042.1818181818182" y="522.3636363636364"/>
      <point x="1042.1818181818182" y="636.0" type="curve" smooth="yes"/>
      <point x="1042.1818181818182" y="838.4545454545455"/>
      <point x="862.2727272727273" y="948.0909090909091"/>
      <point x="693.8181818181819" y="1025.1818181818182" type="curve" smooth="yes"/>
      <point x="522.2727272727273" y="1110.8181818181818"/>
      <point x="343.54545454545456" y="1167.090909090909"/>
      <point x="343.54545454545456" y="1356.2727272727273" type="curve" smooth="yes"/>
      <point x="343.54545454545456" y="1501.909090909091"/>
      <point x="449.72727272727275" y="1575.7272727272727"/>
      <point x="605.0909090909091" y="1575.7272727272727" type="curve" smooth="yes"/>
      <point x="714.8181818181819" y="1575.7272727272727"/>
      <point x="797.9090909090909" y="1538.4545454545455"/>
      <point x="823.0909090909091" y="1514.909090909091" type="curve"/>
      <point x="865.9090909090909" y="1254.0" type="line"/>
      <point x="951.2727272727273" y="1254.0" type="line"/>
      <point x="967.0" y="1572.0" type="line"/>
      <point x="919.8181818181819" y="1576.0"/>
      <point x="792.4545454545455" y="1644.0"/>
      <point x="614.0909090909091" y="1644.0" type="curve" smooth="yes"/>
      <point x="368.8181818181818" y="1644.0"/>
      <point x="196.45454545454547" y="1515.2727272727273"/>
      <point x="196.45454545454547" y="1317.7272727272727" type="curve" smooth="yes"/>
      <point x="196.45454545454547" y="1219.5454545454545"/>
      <point x="238.63636363636363" y="1139.1818181818182"/>
      <point x="302.6363636363636" y="1079.090909090909" type="curve"/>
      <point x="222.1818181818182" y="1020.1818181818181"/>
      <point x="155.8181818181818" y="944.5454545454545"/>
      <point x="155.8181818181818" y="812.6363636363636" type="curve" smooth="yes"/>
      <point x="155.8181818181818" y="580.0909090909091"/>
      <point x="353.09090909090907" y="474.3636363636364"/>
      <point x="510.54545454545456" y="407.72727272727275" type="curve" smooth="yes"/>
      <point x="686.1818181818181" y="326.54545454545456"/>
      <point x="862.4545454545455" y="263.0"/>
      <point x="862.4545454545455" y="90.45454545454545" type="curve" smooth="yes"/>
      <point x="862.4545454545455" y="-41.27272727272727"/>
      <point x="760.9090909090909" y="-130.45454545454544"/>
      <point x="579.4545454545455" y="-130.45454545454544" type="curve" smooth="yes"/>
      <point x="452.0" y="-130.45454545454544"/>
      <point x="356.09090909090907" y="-85.72727272727272"/>
      <point x="318.09090909090907" y="-44.45454545454545" type="curve"/>
    </contour>
    <contour>
      <point x="542.8181818181818" y="558.5454545454545" type="curve" smooth="yes"/>
      <point x="383.72727272727275" y="637.6363636363636"/>
      <point x="295.54545454545456" y="726.4545454545455"/>
      <point x="295.54545454545456" y="852.0909090909091" type="curve" smooth="yes"/>
      <point x="295.54545454545456" y="937.2727272727273"/>
      <point x="318.8181818181818" y="990.5454545454545"/>
      <point x="358.54545454545456" y="1033.909090909091" type="curve"/>
      <point x="431.8181818181818" y="983.3636363636364"/>
      <point x="513.2727272727273" y="946.6363636363636"/>
      <point x="596.8181818181819" y="909.0" type="curve" smooth="yes"/>
      <point x="779.6363636363636" y="826.3636363636364"/>
      <point x="890.0" y="746.4545454545455"/>
      <point x="890.0" y="592.4545454545455" type="curve" smooth="yes"/>
      <point x="890.0" y="529.7272727272727"/>
      <point x="873.6363636363636" y="459.6363636363636"/>
      <point x="829.7272727272727" y="413.6363636363636" type="curve"/>
      <point x="727.2727272727273" y="470.45454545454544"/>
      <point x="624.2727272727273" y="517.4545454545455"/>
    </contour>
  </outline>
</glyph>
<glyph name="copyright" format="2">
  <advance width="1955.7272727272727"/>
  <unicode hex="00A9"/>
  <outline>
    <contour>
      <point x="163.1818181818182" y="967.2727272727273" type="curve" smooth="yes"/>
      <point x="163.1818181818182" y="491.27272727272725"/>
      <point x="521.9090909090909" y="120.0"/>
      <point x="977.5454545454545" y="120.0" type="curve" smooth="yes"/>
      <point x="1431.8181818181818" y="120.0"/>
      <point x="1792.5454545454545" y="491.27272727272725"/>
      <point x="1792.5454545454545" y="967.2727272727273" type="curve" smooth="yes"/>
      <point x="1792.5454545454545" y="1441.2727272727273"/>
      <point x="1431.8181818181818" y="1810.5454545454545"/>
      <point x="977.5454545454545" y="1810.5454545454545" type="curve" smooth="yes"/>
      <point x="521.9090909090909" y="1810.5454545454545"/>
      <point x="163.1818181818182" y="1441.2727272727273"/>
    </contour>
    <contour>
      <point x="241.27272727272728" y="967.2727272727273" type="curve" smooth="yes"/>
      <point x="241.27272727272728" y="1395.909090909091"/>
      <point x="560.7272727272727" y="1742.0"/>
      <point x="977.5454545454545" y="1742.0" type="curve" smooth="yes"/>
      <point x="1393.0" y="1742.0"/>
      <point x="1712.4545454545455" y="1395.909090909091"/>
      <point x="1712.4545454545455" y="967.2727272727273" type="curve" smooth="yes"/>
      <point x="1712.4545454545455" y="536.6363636363636"/>
      <point x="1393.0" y="190.54545454545456"/>
      <point x="977.5454545454545" y="190.54545454545456" type="curve" smooth="yes"/>
      <point x="561.3636363636364" y="190.54545454545456"/>
      <point x="241.27272727272728" y="536.6363636363636"/>
    </contour>
    <contour>
      <point x="972.6363636363636" y="491.27272727272725" type="curve" smooth="yes"/>
      <point x="1117.090909090909" y="491.27272727272725"/>
      <point x="1226.3636363636363" y="566.7272727272727"/>
      <point x="1285.5454545454545" y="635.4545454545455" type="curve"/>
      <point x="1257.6363636363637" y="683.0909090909091" type="line"/>
      <point x="1201.7272727272727" y="624.0"/>
      <point x="1114.2727272727273" y="582.8181818181819"/>
      <point x="1028.0" y="582.8181818181819" type="curve" smooth="yes"/>
      <point x="847.0" y="582.8181818181819"/>
      <point x="720.0" y="741.5454545454545"/>
      <point x="720.0" y="996.2727272727273" type="curve" smooth="yes"/>
      <point x="720.0" y="1223.8181818181818"/>
      <point x="817.0909090909091" y="1377.6363636363637"/>
      <point x="996.0909090909091" y="1377.6363636363637" type="curve" smooth="yes"/>
      <point x="1079.0" y="1377.6363636363637"/>
      <point x="1129.3636363636363" y="1356.0"/>
      <point x="1151.7272727272727" y="1334.6363636363637" type="curve"/>
      <point x="1193.5454545454545" y="1179.2727272727273" type="line"/>
      <point x="1276.8181818181818" y="1179.2727272727273" type="line"/>
      <point x="1277.4545454545455" y="1389.2727272727273" type="line"/>
      <point x="1240.7272727272727" y="1427.2727272727273"/>
      <point x="1119.8181818181818" y="1447.2727272727273"/>
      <point x="1036.3636363636363" y="1447.2727272727273" type="curve" smooth="yes"/>
      <point x="765.0909090909091" y="1447.2727272727273"/>
      <point x="564.0" y="1235.090909090909"/>
      <point x="564.0" y="948.3636363636364" type="curve" smooth="yes"/>
      <point x="564.0" y="680.2727272727273"/>
      <point x="719.6363636363636" y="491.27272727272725"/>
    </contour>
  </outline>
</glyph>
<glyph name="ordfeminine" format="2">
  <advance width="685.8181818181818"/>
  <unicode hex="00AA"/>
  <outline>
    <contour>
      <point x="32.0" y="1015.5454545454545" type="curve" smooth="yes"/>
      <point x="32.0" y="871.0"/>
      <point x="135.63636363636363" y="808.0"/>
      <point x="245.0909090909091" y="808.0" type="curve" smooth="yes"/>
      <point x="367.1818181818182" y="808.0"/>
      <point x="443.0" y="900.4545454545455"/>
      <point x="471.0909090909091" y="938.3636363636364" type="curve"/>
      <point x="471.0909090909091" y="869.4545454545455" type="line" smooth="yes"/>
      <point x="471.0909090909091" y="821.0909090909091"/>
      <point x="500.3636363636364" y="808.4545454545455"/>
      <point x="540.1818181818182" y="808.4545454545455" type="curve" smooth="yes"/>
      <point x="593.0" y="808.4545454545455"/>
      <point x="634.5454545454545" y="820.5454545454545"/>
      <point x="663.7272727272727" y="830.5454545454545" type="curve"/>
      <point x="663.7272727272727" y="872.0909090909091" type="line"/>
      <point x="586.3636363636364" y="872.0909090909091" type="line"/>
      <point x="586.3636363636364" y="1346.6363636363637" type="line" smooth="yes"/>
      <point x="586.3636363636364" y="1527.8181818181818"/>
      <point x="515.0" y="1616.0"/>
      <point x="355.27272727272725" y="1616.0" type="curve" smooth="yes"/>
      <point x="217.0909090909091" y="1616.0"/>
      <point x="104.36363636363636" y="1543.8181818181818"/>
      <point x="63.72727272727273" y="1513.2727272727273" type="curve"/>
      <point x="86.18181818181819" y="1463.2727272727273" type="line"/>
      <point x="139.54545454545456" y="1496.7272727272727"/>
      <point x="219.8181818181818" y="1534.6363636363637"/>
      <point x="332.27272727272725" y="1534.6363636363637" type="curve" smooth="yes"/>
      <point x="444.27272727272725" y="1534.6363636363637"/>
      <point x="466.1818181818182" y="1454.1818181818182"/>
      <point x="466.1818181818182" y="1341.909090909091" type="curve" smooth="yes"/>
      <point x="466.1818181818182" y="1279.7272727272727" type="line"/>
      <point x="267.6363636363636" y="1277.909090909091"/>
      <point x="32.0" y="1206.2727272727273"/>
    </contour>
    <contour>
      <point x="283.6363636363636" y="882.6363636363636" type="curve" smooth="yes"/>
      <point x="204.45454545454544" y="882.6363636363636"/>
      <point x="159.72727272727272" y="931.8181818181818"/>
      <point x="159.72727272727272" y="1029.6363636363637" type="curve" smooth="yes"/>
      <point x="159.72727272727272" y="1154.5454545454545"/>
      <point x="286.3636363636364" y="1226.5454545454545"/>
      <point x="466.1818181818182" y="1227.2727272727273" type="curve"/>
      <point x="466.1818181818182" y="977.8181818181818" type="line"/>
      <point x="414.1818181818182" y="927.8181818181818"/>
      <point x="347.45454545454544" y="882.6363636363636"/>
    </contour>
  </outline>
</glyph>
<glyph name="guillemetleft" format="2">
  <advance width="1062.3636363636365"/>
  <unicode hex="00AB"/>
  <outline>
    <contour>
      <point x="458.1818181818182" y="982.6363636363636" type="line"/>
      <point x="94.9090909090909" y="587.0" type="line"/>
      <point x="94.9090909090909" y="508.45454545454544" type="line"/>
      <point x="458.1818181818182" y="123.54545454545455" type="line"/>
      <point x="514.4545454545455" y="169.45454545454544" type="line"/>
      <point x="240.36363636363637" y="549.7272727272727" type="line"/>
      <point x="514.4545454545455" y="939.5454545454545" type="line"/>
    </contour>
    <contour>
      <point x="884.1818181818182" y="982.6363636363636" type="line"/>
      <point x="498.0" y="587.0" type="line"/>
      <point x="498.0" y="508.45454545454544" type="line"/>
      <point x="884.1818181818182" y="123.54545454545455" type="line"/>
      <point x="939.8181818181818" y="169.45454545454544" type="line"/>
      <point x="643.4545454545455" y="549.7272727272727" type="line"/>
      <point x="939.8181818181818" y="939.5454545454545" type="line"/>
    </contour>
  </outline>
</glyph>
<glyph name="logicalnot" format="2">
  <advance width="1195.1818181818182"/>
  <unicode hex="00AC"/>
  <outline>
    <contour>
      <point x="1012.6363636363636" y="609.7272727272727" type="line"/>
      <point x="154.54545454545456" y="609.7272727272727" type="line"/>
      <point x="154.54545454545456" y="517.0" type="line"/>
      <point x="909.3636363636364" y="517.0" type="line"/>
      <point x="909.3636363636364" y="96.18181818181819" type="line"/>
      <point x="1012.6363636363636" y="96.18181818181819" type="line"/>
    </contour>
  </outline>
</glyph>
